<svg width="396" height="363" viewBox="0 0 396 363" fill="none" xmlns="http://www.w3.org/2000/svg">
<path fill-rule="evenodd" clip-rule="evenodd" d="M4.78933 185.168C1.19478 167.265 2.34877 149.206 4.67312 131.135C7.36364 110.218 5.18081 87.0727 19.6297 69.7906C33.9368 52.6781 61.7288 48.2791 83.0526 37.3868C105.63 25.8544 123.851 4.64865 150.211 3.0892C176.769 1.51799 202.508 14.8563 222.836 29.1171C241.898 42.4894 246.429 65.3883 262.068 81.5606C273.974 93.873 288.067 104.441 303.987 113.037C329.37 126.743 366.926 126.542 383.967 147.38C399.005 165.77 391.905 191.868 386.308 213.705C380.765 235.332 370.226 256.978 351.793 272.91C333.782 288.477 308.128 296.146 283.417 302.636C261.967 308.27 236.727 299.402 216.934 308.332C190.9 320.078 184.538 360.764 155.001 360.575C126.754 360.394 123.505 320.897 100.266 307.584C81.1105 296.61 48.8602 306.074 33.9321 291.218C18.7047 276.066 30.3815 252.063 25.078 232.763C20.527 216.202 8.15472 201.93 4.78933 185.168Z" fill="#8111FF" fill-opacity="0.05"/>
<path d="M342.496 98.3081H181.63C180.799 98.3081 180.126 98.9812 180.126 99.8115V285.986C180.126 286.816 180.799 287.489 181.63 287.489H342.496C343.327 287.489 344 286.816 344 285.986V99.8115C344 98.9812 343.327 98.3081 342.496 98.3081Z" fill="#F2F6FB"/>
<path d="M212.419 118.354V119.857H193.408C193.268 119.857 193.156 119.969 193.156 120.107H191.653C191.653 119.138 192.438 118.354 193.408 118.354H212.419ZM235.973 118.354V119.857H215.426V118.354H235.973ZM259.527 118.354V119.857H238.98V118.354H259.527ZM283.081 118.354V119.857H262.534V118.354H283.081ZM306.634 118.354V119.857H286.087V118.354H306.634ZM330.188 118.354V119.857H309.641V118.354H330.188ZM332.724 141.345H331.221V120.798H332.724V141.345ZM325.048 159.197V157.693H330.968C331.109 157.693 331.221 157.581 331.221 157.443V144.352H332.724V157.443C332.724 158.412 331.939 159.197 330.968 159.197H325.048ZM301.494 159.197V157.693H322.041V159.197H301.494ZM277.941 159.197V157.693H298.488V159.197H277.941ZM254.387 159.197V157.693H274.934V159.197H254.387ZM230.833 159.197V157.693H251.38V159.197H230.833ZM207.28 159.197V157.693H227.826V159.197H207.28ZM191.653 149.296H193.156V157.443C193.156 157.581 193.269 157.693 193.408 157.693H204.273V159.197H193.408C192.439 159.197 191.653 158.412 191.653 157.443V149.296ZM191.653 125.742H193.156V146.289H191.653V125.742ZM191.653 120.107H193.156V122.735H191.653V120.107Z" fill="#D8DEED"/>
<path d="M180.126 101.065C180.126 98.2969 182.369 96.0527 185.137 96.0527H338.989C341.756 96.0527 344 98.2971 344 101.065V107.078H180.126V101.065Z" fill="#D8DEED"/>
<path d="M187.518 104.071C188.833 104.071 189.899 103.005 189.899 101.69C189.899 100.376 188.833 99.3101 187.518 99.3101C186.203 99.3101 185.138 100.376 185.138 101.69C185.138 103.005 186.203 104.071 187.518 104.071Z" fill="#FF5645"/>
<path d="M195.286 104.071C196.601 104.071 197.666 103.005 197.666 101.69C197.666 100.376 196.601 99.3101 195.286 99.3101C193.971 99.3101 192.905 100.376 192.905 101.69C192.905 103.005 193.971 104.071 195.286 104.071Z" fill="#FFCB3D"/>
<path d="M203.304 104.071C204.619 104.071 205.685 103.005 205.685 101.69C205.685 100.376 204.619 99.3101 203.304 99.3101C201.989 99.3101 200.924 100.376 200.924 101.69C200.924 103.005 201.989 104.071 203.304 104.071Z" fill="#3ABF7C"/>
<path d="M191.675 169.969C191.675 169.417 192.122 168.969 192.678 168.969H330.742C331.296 168.969 331.745 169.416 331.745 169.969V212.388C331.745 212.94 331.298 213.388 330.742 213.388H192.678C192.124 213.388 191.675 212.941 191.675 212.388V169.969ZM192.154 221.338H245.525C245.802 221.338 246.026 221.563 246.026 221.839V227.853C246.026 228.13 245.802 228.354 245.525 228.354H192.154C191.877 228.354 191.653 228.13 191.653 227.853V221.839C191.653 221.563 191.877 221.338 192.154 221.338ZM192.154 232.864H229.99C230.267 232.864 230.491 233.089 230.491 233.366V239.379C230.491 239.656 230.267 239.88 229.99 239.88H192.154C191.877 239.88 191.653 239.656 191.653 239.379V233.366C191.653 233.089 191.877 232.864 192.154 232.864ZM192.154 244.641H237.758C238.034 244.641 238.259 244.866 238.259 245.142V251.156C238.259 251.433 238.034 251.657 237.758 251.657H192.154C191.877 251.657 191.653 251.433 191.653 251.156V245.142C191.653 244.866 191.877 244.641 192.154 244.641ZM192.154 256.168H222.222C222.499 256.168 222.723 256.392 222.723 256.669V262.682C222.723 262.959 222.499 263.184 222.222 263.184H192.154C191.877 263.184 191.653 262.959 191.653 262.682V256.669C191.653 256.392 191.877 256.168 192.154 256.168ZM262.063 232.864H317.189C317.466 232.864 317.69 233.089 317.69 233.366V239.379C317.69 239.656 317.466 239.88 317.189 239.88H262.063C261.786 239.88 261.562 239.656 261.562 239.379V233.366C261.562 233.089 261.786 232.864 262.063 232.864ZM262.063 244.641H324.205C324.482 244.641 324.706 244.866 324.706 245.142V251.156C324.706 251.433 324.482 251.657 324.205 251.657H262.063C261.786 251.657 261.562 251.433 261.562 251.156V245.142C261.562 244.866 261.786 244.641 262.063 244.641ZM262.063 256.168H331.221C331.497 256.168 331.722 256.392 331.722 256.669V262.682C331.722 262.959 331.497 263.184 331.221 263.184H262.063C261.786 263.184 261.562 262.959 261.562 262.682V256.669C261.562 256.392 261.786 256.168 262.063 256.168ZM262.063 267.694H310.173C310.45 267.694 310.674 267.918 310.674 268.195V274.209C310.674 274.485 310.45 274.71 310.173 274.71H262.063C261.786 274.71 261.562 274.485 261.562 274.209V268.195C261.562 267.918 261.786 267.694 262.063 267.694ZM262.086 221.384H331.243C331.52 221.384 331.745 221.608 331.745 221.885V227.99C331.745 228.266 331.52 228.491 331.243 228.491H262.086C261.809 228.491 261.585 228.266 261.585 227.99V221.885C261.585 221.608 261.809 221.384 262.086 221.384Z" fill="#E1E5F0"/>
<path fill-rule="evenodd" clip-rule="evenodd" d="M263.334 200.017L262.296 200.029L262.303 200.017H249.598C249.32 200.017 249.213 199.826 249.359 199.592L258.359 185.142C258.505 184.907 258.748 184.905 258.9 185.135L265.388 195.054L267.883 191.04C268.029 190.805 268.274 190.797 268.431 191.026L274.172 199.363C274.328 199.59 274.233 199.781 273.954 199.79L268.664 199.954L268.438 199.956L268.475 200.017C268.475 200.017 268.25 200.017 267.971 200.017H263.334ZM268.353 187.363C267.208 187.363 266.281 186.427 266.281 185.273C266.281 184.119 267.208 183.183 268.353 183.183C269.497 183.183 270.425 184.119 270.425 185.273C270.425 186.427 269.497 187.363 268.353 187.363Z" fill="white"/>
<path d="M51.4582 315.803H77.0165C77.6392 315.803 78.1441 316.308 78.1441 316.931C78.1441 317.554 77.6392 318.058 77.0165 318.058H51.4582C50.8355 318.058 50.3307 317.554 50.3307 316.931C50.3307 316.308 50.8355 315.803 51.4582 315.803ZM130.639 315.803H173.236C173.858 315.803 174.363 316.308 174.363 316.931C174.363 317.554 173.858 318.058 173.236 318.058H130.639C130.016 318.058 129.511 317.554 129.511 316.931C129.511 316.308 130.016 315.803 130.639 315.803Z" fill="#8111FF" fill-opacity="0.2"/>
<path d="M173.365 315.811C173.322 315.806 173.279 315.804 173.236 315.804H130.639C130.565 315.804 130.494 315.811 130.424 315.824L132.437 299.77H151.28L155.765 303.077C156.793 304.104 157.92 305.032 159.123 305.858C162.055 307.813 163.583 307.788 168.043 309.943C169.246 310.519 170.399 311.145 171.551 311.872C172.102 312.373 173.08 313.376 173.38 314.578C173.43 314.779 173.43 314.979 173.456 315.155C173.456 315.389 173.421 315.608 173.365 315.811ZM77.3382 315.85C77.2362 315.82 77.1282 315.804 77.0165 315.804H51.4582C51.3917 315.804 51.3265 315.809 51.2632 315.82L57.3159 300.284L75.2568 302.714L77.3382 315.85Z" fill="#474961"/>
<path d="M69.1515 233.425C69.0439 233.401 68.9363 233.378 68.8285 233.355C74.6167 199.599 79.0295 179.37 82.0669 172.667C85.1043 165.965 88.684 161.219 92.8061 158.429C96.7396 153.947 103.677 154.197 113.274 153.916C113.518 153.904 113.795 153.907 114.039 153.895C123.961 153.728 122.311 154.107 124.931 154.918C137.502 158.275 147.93 179.481 156.216 218.534L158.849 231.326C158.812 231.221 158.773 231.118 158.733 231.016C158.805 231.347 158.84 231.682 158.838 232.022C159.103 237.487 154.861 241.771 146.113 244.872C140.768 246.767 130.308 251.981 113.11 253.626C105.809 254.325 92.1838 254.173 72.2348 253.172C68.9381 247.634 67.5274 243.201 68.0027 239.873C68.2632 238.049 68.6461 235.9 69.1515 233.425Z" fill="#8111FF"/>
<path opacity="0.176986" d="M69.1381 233.49C98.4448 239.847 120.1 239.356 134.103 232.018C147.834 224.822 156.038 224.465 158.717 230.946C158.8 231.299 158.84 231.658 158.838 232.022C159.103 237.487 154.861 241.771 146.113 244.872C140.768 246.767 130.308 251.981 113.11 253.626C105.809 254.325 92.1838 254.173 72.2348 253.172C68.9381 247.634 67.5274 243.201 68.0027 239.873C68.2609 238.065 68.6393 235.938 69.1381 233.49Z" fill="#444444"/>
<path d="M95.8171 134.483C93.0117 134.051 90.7612 133.59 89.0657 133.101C87.6762 132.906 85.5523 132.354 84.7194 130.719C83.5057 128.372 85.7273 125.167 88.2068 121.569C91.1913 117.256 93.0198 115.701 95.8962 113.667C100.793 110.203 103.817 110.069 106.011 112.297C106.231 112.521 106.451 112.893 106.67 113.41C107.295 113.319 107.935 113.277 108.586 113.286L114.098 113.386C121.089 113.461 126.652 119.45 126.552 126.692V127.143L126.401 141.099L126.266 147.635C126.173 152.134 122.499 155.733 117.999 155.733H103.942C103.912 155.733 103.881 155.733 103.85 155.732C99.2841 155.682 95.6233 151.939 95.674 147.372L95.8171 134.483Z" fill="#8111FF" fill-opacity="0.2"/>
<path d="M210.172 141.128L21 131.214C19.618 131.141 18.439 132.203 18.3665 133.585L15.1668 194.64C15.0943 196.022 16.1559 197.201 17.5379 197.274L206.71 207.188C208.092 207.26 209.271 206.199 209.344 204.817L212.543 143.761C212.616 142.379 211.554 141.2 210.172 141.128Z" fill="#D8DEED"/>
<path d="M146.619 156.867L28.5116 150.677C27.9588 150.648 27.4872 151.073 27.4582 151.625L26.8287 163.636C26.7998 164.189 27.2244 164.661 27.7772 164.69L145.885 170.879C146.437 170.908 146.909 170.484 146.938 169.931L147.567 157.92C147.596 157.367 147.172 156.896 146.619 156.867Z" fill="white"/>
<path d="M116.088 109.92L115.761 114.082C115.745 114.287 115.605 114.462 115.409 114.522C114.314 114.86 113.25 114.983 112.216 114.89C111.153 114.795 109.589 114.414 107.523 113.746C107.279 113.667 107.133 113.415 107.188 113.164L108.848 105.441L108.945 105.469C108.034 103.628 107.457 102.598 107.214 102.379C106.29 101.494 105.559 96.0278 109.68 96.3573C110.133 96.3599 110.575 96.4899 111 96.6971L111.028 96.7194C111.166 96.831 111.343 96.8375 111.52 96.8441C111.943 96.7996 112.261 96.4639 112.241 96.0376L111.782 89.51C111.737 89.0863 112.03 88.7533 112.453 88.7087C113.375 88.6118 114.267 88.4677 115.168 88.1714C115.293 88.1583 115.39 88.1229 115.49 88.1124C116.376 87.9185 121.155 87.1139 124.121 90.4051C124.382 90.7304 124.643 91.0557 124.854 91.3862C125.397 92.2362 125.701 93.212 125.736 94.2665L125.939 98.8308C125.936 99.2846 125.933 99.7384 125.883 100.222C125.276 105.955 123.143 110.11 121.013 110.46C119.919 110.6 118.81 110.59 117.704 110.379C117.564 110.326 117.654 110.37 116.088 109.92ZM94.2886 237.437L75.2569 302.714L57.316 300.284L68.8289 233.355L68.8859 233.358C68.8816 233.383 68.8773 233.408 68.8731 233.433C78.1012 235.444 86.573 236.779 94.2886 237.437ZM127.778 234.695C130.037 233.937 132.145 233.044 134.104 232.017C147.59 224.95 155.746 224.479 158.57 230.607C160.185 235.755 160.647 240.453 159.956 244.7C157.881 257.451 154.989 275.807 151.28 299.77H132.437L132.763 245.973L127.778 234.695ZM85.6647 131.768C86.6764 132.597 88.1062 132.936 89.1341 133.081C92.2523 133.98 97.2472 134.783 104.119 135.489L100.556 149.435L123.126 157.505C123.236 157.529 123.763 157.739 124.707 158.137C134.493 160.924 141.012 163.451 144.263 165.716C146.785 167.473 146.273 169.772 142.727 172.614C139.905 174.875 136.12 175.529 132.702 174.346L118.115 169.294C118.116 169.277 118.117 169.259 118.118 169.241C99.8348 167.248 88.8287 163.318 85.0995 157.451C81.6588 152.038 81.8472 143.477 85.6647 131.768ZM142.12 137.596C148.152 131.391 153.673 130.393 158.682 134.602C163.692 138.81 158.171 139.809 142.12 137.596Z" fill="#ED9474"/>
<path d="M101.899 99.686C101.139 99.9868 100.388 100.103 99.6453 100.033C94.7312 99.5741 91.4004 95.2568 90.0849 91.0366C88.7694 86.8165 91.0806 84.6514 94.7783 82.2901C98.4761 79.9288 102.709 81.6124 106.238 83.4376C108.3 84.5044 109.51 86.3549 109.868 88.989C110.426 88.9384 111.042 88.8746 111.73 88.7845C112.528 88.7007 113.417 88.4842 114.897 88.1775C115.021 88.1644 115.722 87.9912 115.822 87.9808C116.709 87.7868 121.182 87.1361 124.148 90.4272C124.131 90.5046 123.364 90.4272 121.119 91.9177C118.563 93.6152 116.044 101.055 113.789 100.939C113.764 100.939 113.714 100.963 113.637 101.014L113.737 100.919L112.356 98.0914C112.044 97.5195 111.57 97.0906 111.03 96.7442C110.605 96.5369 110.163 96.407 109.71 96.4043C108.503 96.4304 107.304 97.4886 106.934 98.7621C106.589 100.033 106.957 101.38 107.929 102.235C108.543 102.801 109.335 103.146 110.173 103.209L111.192 103.082C111.15 103.119 111.109 103.156 111.067 103.194C109.329 105.934 108.461 107.304 108.461 107.304C108.461 107.304 107.709 107.102 106.204 106.697C104.355 106.057 102.92 103.72 101.899 99.686ZM122.286 97.8792C121.8 98.0562 121.016 98.2646 120.3 98.1635C119.103 98.0374 120.126 97.2244 121.192 97.0619C121.688 96.9846 122.107 97.1421 122.378 97.3152C122.57 97.4713 122.53 97.8031 122.286 97.8792ZM126.512 97.3342C126.032 97.5611 125.28 97.8416 124.547 97.8179C123.307 97.7718 124.27 96.8644 125.304 96.6297C125.844 96.4974 126.236 96.6325 126.529 96.7781C126.769 96.9041 126.753 97.2333 126.512 97.3342Z" fill="#482D1F"/>
<path d="M120.889 101.125C120.608 100.852 120.634 100.144 120.664 99.7127C120.655 99.3861 120.933 99.1553 121.208 99.1265C121.385 99.1331 121.619 99.2092 121.706 99.5529C121.967 100.357 121.265 101.59 120.889 101.125ZM124.998 100.668C124.767 100.39 124.743 99.6871 124.774 99.2556C124.765 98.929 125.043 98.6982 125.317 98.6694C125.494 98.676 125.729 98.7521 125.815 99.0958C126.076 99.8998 125.349 101.135 124.998 100.668Z" fill="#482D1F"/>
<path d="M124.548 98.8089C124.552 98.6706 124.443 98.5551 124.305 98.5509C124.167 98.5468 124.051 98.6555 124.047 98.7939L124.002 100.285L124.003 100.317L124.256 102.96C124.25 102.991 124.228 103.013 124.196 103.019C123.895 103.018 123.509 103.018 123.036 103.019C122.898 103.02 122.786 103.132 122.786 103.271C122.787 103.409 122.9 103.521 123.038 103.52C123.519 103.519 123.91 103.519 124.211 103.52L124.239 103.519C124.53 103.489 124.741 103.257 124.758 102.977L124.757 102.938L124.504 100.285L124.548 98.8089Z" fill="#482D1F"/>
<path d="M123.045 105.585C122.868 105.578 122.409 105.526 122.281 105.262C122.275 105.212 122.218 105.143 122.237 105.09C122.299 104.958 123.071 104.877 123.071 104.877C124.096 104.794 124.34 104.718 124.428 104.835C124.46 104.907 124.471 105.007 124.32 105.249C124.14 105.696 123.324 105.606 123.045 105.585Z" fill="#482D1F"/>
<path d="M162.44 157.696L196.857 159.499C198.53 159.587 199.128 159.793 199.722 160.152C200.317 160.511 200.772 161.016 201.067 161.645C201.362 162.274 201.504 162.89 201.417 164.563L201.187 168.952C201.099 170.626 200.893 171.223 200.534 171.818C200.175 172.412 199.669 172.867 199.041 173.162C198.412 173.457 197.796 173.6 196.123 173.512L161.706 171.708C160.033 171.621 159.435 171.415 158.841 171.055C158.246 170.696 157.791 170.191 157.496 169.562C157.201 168.933 157.059 168.318 157.147 166.644L157.377 162.255C157.464 160.582 157.67 159.984 158.029 159.39C158.389 158.795 158.894 158.34 159.523 158.045C160.151 157.75 160.767 157.608 162.44 157.696Z" fill="#8111FF"/>
<path d="M125.916 181.824L53.6002 178.034C53.3239 178.02 53.088 178.232 53.0736 178.508L52.7064 185.515C52.6919 185.791 52.9042 186.027 53.1806 186.041L125.496 189.831C125.773 189.846 126.009 189.633 126.023 189.357L126.39 182.351C126.405 182.074 126.193 181.838 125.916 181.824Z" fill="#F2F6FB"/>
<path d="M172.731 184.456L131.694 182.305C131.417 182.291 131.182 182.503 131.167 182.779L130.8 189.786C130.786 190.062 130.998 190.298 131.274 190.312L172.312 192.463C172.588 192.478 172.824 192.265 172.838 191.989L173.205 184.982C173.22 184.706 173.008 184.47 172.731 184.456Z" fill="#F2F6FB"/>
<path d="M140.603 173.394C140.795 173.471 141.014 173.378 141.092 173.186C141.17 172.993 141.077 172.774 140.884 172.697C139.675 172.209 138.723 171.86 136.595 171.106C134.477 170.355 133.533 170.008 132.337 169.526C132.144 169.448 131.925 169.541 131.848 169.734C131.77 169.926 131.863 170.145 132.056 170.223C133.265 170.711 134.216 171.06 136.344 171.814C138.462 172.565 139.407 172.911 140.603 173.394ZM144.345 170.706C144.542 170.772 144.755 170.665 144.821 170.468C144.886 170.271 144.78 170.058 144.583 169.993C143.234 169.543 142.196 169.172 139.891 168.325C137.579 167.476 136.536 167.102 135.178 166.65C134.981 166.584 134.768 166.69 134.702 166.887C134.637 167.084 134.743 167.297 134.94 167.363C136.289 167.812 137.327 168.184 139.632 169.031C141.944 169.88 142.987 170.253 144.345 170.706Z" fill="#482D1F"/>
<path d="M107.563 134.773C109.453 129.618 110.551 125.921 110.858 123.666C110.886 123.46 110.742 123.271 110.536 123.243C110.331 123.215 110.141 123.359 110.113 123.564C109.815 125.752 108.73 129.407 106.857 134.515C106.786 134.71 106.886 134.926 107.081 134.997C107.276 135.068 107.492 134.968 107.563 134.773Z" fill="#482D1F"/>
</svg>
