<svg width="576" height="568" viewBox="0 0 576 568" fill="none" xmlns="http://www.w3.org/2000/svg">
<path fill-rule="evenodd" clip-rule="evenodd" d="M175.856 126.225C156.492 136.111 139.823 149.91 123.845 164.655C105.35 181.722 81.793 196.476 73.84 220.364C65.965 244.018 78.3933 269.402 80.703 294.238C83.1485 320.534 73.6848 350.24 87.9842 372.453C102.391 394.834 130.639 405.93 156.532 412.036C180.811 417.761 205.539 405.063 230.458 406.053C249.43 406.806 268.035 410.553 285.84 417.169C314.228 427.717 336.544 457.926 366.788 456.71C393.479 455.638 414.311 431.348 431.948 411.298C449.415 391.442 463.906 367.572 468.174 341.458C472.344 315.94 464.339 289.936 455.769 265.527C448.329 244.338 424.676 230.456 421.398 208.244C417.086 179.028 452.383 144.928 434.498 121.417C417.395 98.9346 377.48 124.493 350.754 115.381C328.725 107.87 318.493 75.3052 295.266 73.9458C271.573 72.559 255.498 99.0196 233.768 108.533C215.12 116.698 193.985 116.969 175.856 126.225Z" fill="#8111FF" fill-opacity="0.05"/>
<path d="M427.448 388.87H450.803C451.512 388.87 452.132 388.279 452.132 387.571V387.423C452.132 386.714 451.512 386.124 450.744 386.124H429.102C415.992 386.124 402.883 386.124 389.803 386.124H369.725C369.017 386.124 368.397 386.714 368.397 387.423V387.571C368.397 388.279 368.987 388.87 369.725 388.87H398.218L390.364 403.278C384.783 413.553 379.203 423.799 373.593 434.074L364.352 451.021C364.027 451.612 364.293 452.38 364.913 452.734L365.031 452.793C365.651 453.118 366.448 452.941 366.743 452.38L401.318 388.87H424.348L458.922 452.38C459.218 452.941 460.015 453.147 460.635 452.793L460.753 452.734C461.373 452.38 461.639 451.612 461.314 451.021L452.072 434.074C446.492 423.799 440.912 413.553 435.302 403.278L427.448 388.87ZM452.043 377.299V360.132C452.043 347.039 452.043 333.976 452.043 320.913V305.312C452.043 302.866 450.06 300.883 447.614 300.883H399.428C396.982 300.883 394.999 302.866 394.999 305.312V377.35C394.999 379.796 396.982 381.779 399.428 381.779C399.43 381.779 399.431 381.779 399.433 381.779L447.619 381.728C450.063 381.726 452.043 379.744 452.043 377.299Z" fill="#D8DEED"/>
<path d="M357.126 205.575H284.788C281.527 205.575 278.883 208.219 278.883 211.48V290.904C278.883 294.166 281.527 296.81 284.788 296.81H357.126C360.387 296.81 363.031 294.166 363.031 290.904V211.48C363.031 208.219 360.387 205.575 357.126 205.575Z" fill="#E1E5F0"/>
<path d="M291.336 265.761H350.625C351.469 265.761 352.153 266.446 352.153 267.29C352.153 268.134 351.469 268.819 350.625 268.819H291.336C290.492 268.819 289.807 268.134 289.807 267.29C289.807 266.446 290.492 265.761 291.336 265.761ZM291.336 275.697H350.625C351.469 275.697 352.153 276.382 352.153 277.226C352.153 278.07 351.469 278.755 350.625 278.755H291.336C290.492 278.755 289.807 278.07 289.807 277.226C289.807 276.382 290.492 275.697 291.336 275.697ZM299.368 270.729H342.592C343.437 270.729 344.121 271.414 344.121 272.258C344.121 273.102 343.437 273.787 342.592 273.787H299.368C298.524 273.787 297.84 273.102 297.84 272.258C297.84 271.414 298.524 270.729 299.368 270.729ZM303.193 280.665H338.768C339.612 280.665 340.296 281.35 340.296 282.194C340.296 283.038 339.612 283.722 338.768 283.722H303.193C302.349 283.722 301.664 283.038 301.664 282.194C301.664 281.35 302.349 280.665 303.193 280.665Z" fill="#F2F6FB"/>
<path d="M320.789 237.431C326.493 237.431 331.116 232.811 331.116 227.113C331.116 221.414 326.493 216.795 320.789 216.795C315.086 216.795 310.462 221.414 310.462 227.113C310.462 232.811 315.086 237.431 320.789 237.431Z" fill="#8111FF"/>
<path d="M320.785 227.01C319.743 227.01 318.899 226.177 318.899 225.151C318.899 224.124 319.743 223.292 320.785 223.292C321.827 223.292 322.671 224.124 322.671 225.151C322.671 226.177 321.827 227.01 320.785 227.01ZM320.785 227.939C322.673 227.939 324.204 229.448 324.204 231.309H317.366C317.366 229.448 318.897 227.939 320.785 227.939Z" fill="#F2F6FB"/>
<path d="M331.957 246.22H309.622C308.778 246.22 308.093 246.905 308.093 247.749C308.093 248.593 308.778 249.278 309.622 249.278H331.957C332.801 249.278 333.485 248.593 333.485 247.749C333.485 246.905 332.801 246.22 331.957 246.22Z" fill="#F2F6FB"/>
<path d="M336.385 241.252H305.193C304.349 241.252 303.664 241.937 303.664 242.781C303.664 243.625 304.349 244.31 305.193 244.31H336.385C337.23 244.31 337.914 243.625 337.914 242.781C337.914 241.937 337.23 241.252 336.385 241.252Z" fill="#F2F6FB"/>
<path d="M340.385 451.524H387.301C388.039 451.524 388.63 450.934 388.63 450.195C388.63 449.457 388.039 448.867 387.301 448.867H340.385C339.647 448.867 339.056 449.457 339.056 450.195C339.056 450.934 339.647 451.524 340.385 451.524ZM426.748 451.524C427.486 451.524 428.076 451.013 428.076 450.4V449.991C428.076 449.378 427.456 448.867 426.748 448.867H396.484C395.746 448.867 395.155 449.378 395.155 449.991V450.4C395.155 451.013 395.775 451.524 396.484 451.524H426.748Z" fill="#8111FF"/>
<path d="M339.943 448.963C340.097 448.901 340.266 448.867 340.444 448.867H387.36C387.549 448.867 387.728 448.905 387.89 448.975C387.929 448.841 387.95 448.699 387.95 448.551L386.947 430.561L366.633 430.265C366.308 430.265 366.013 430.355 365.747 430.565C362.381 434.216 359.163 436.251 356.83 437.448C355.029 438.376 349.006 440.95 346.29 442.207C345.454 442.585 344.218 443.264 342.58 444.244C342.191 444.477 341.84 444.768 341.539 445.108C340.691 446.066 340.158 446.925 339.942 447.683C339.883 447.863 339.883 448.013 339.853 448.192C339.824 448.342 339.853 448.491 339.853 448.641V448.671C339.874 448.773 339.904 448.87 339.943 448.963ZM395.909 449.003C396.097 448.916 396.313 448.867 396.542 448.867H426.367L419.425 430.561L398.314 433.513L395.909 449.003Z" fill="#474961"/>
<path d="M388.927 378.903C389.778 379.326 390.573 379.721 391.311 380.089L391.464 382.425C391.641 385.492 391.848 388.185 392.084 390.559C392.261 392.426 394.535 413.574 395.362 421.334C395.539 423.095 396.808 424.588 398.55 425.068C401.178 425.815 402.861 426.241 409.682 426.481C410.125 426.508 410.567 426.481 410.981 426.455C417.595 425.921 420.901 424.961 421.64 424.641C422.584 424.241 423.086 424.055 423.588 423.601C425.36 422.054 425.242 419.601 425.271 418.694C425.421 412.916 425.822 397.356 425.944 383.969C426.122 383.969 426.302 383.97 426.482 383.971C428.162 383.971 429.778 383.262 431.268 382.022C433.17 380.428 439.857 375.155 440.271 364.061C440.56 356.343 439.216 350.48 436.24 346.473C436.24 346.443 432.535 340.597 430.284 340.597H397.135C394.832 340.676 384.546 340.943 366.279 341.397L366.29 341.468C366.188 341.465 366.086 341.463 365.984 341.461C358.514 341.324 352.461 347.28 352.638 354.553C352.638 354.608 352.638 354.635 352.638 354.69C353.11 377.251 358.632 409.39 359.016 420.259C359.045 420.671 359.163 421.576 359.783 422.537C361.702 425.474 366.19 424.815 376.672 425.062C385.589 425.282 389.191 425.94 391.021 423.525C392.025 422.208 391.996 420.698 391.966 420.012C391.236 406.242 390.173 392.342 388.927 378.903Z" fill="#1B212C"/>
<path opacity="0.176986" d="M388.99 378.844C389.842 379.268 390.637 379.663 391.375 380.031L390.021 359.344C389.992 358.144 389.844 350.89 395.72 346.277C400.001 342.943 405.198 342.73 408.652 342.596C413.967 342.383 418.1 343.77 418.897 344.036C419.901 344.383 420.403 344.57 420.905 344.81C426.633 347.583 426.19 360.918 426.131 363.345C426.072 366.411 426.043 371.185 426.043 376.732C426.043 378.989 426.03 381.396 426.007 383.879C426.165 383.88 426.323 383.88 426.482 383.881C428.162 383.881 429.778 383.172 431.268 381.932C433.17 380.337 439.857 375.065 440.271 363.971C440.56 356.253 439.216 350.39 436.24 346.383C436.24 346.353 432.535 340.507 430.284 340.507H397.135C394.891 340.584 384.821 340.887 366.925 341.415C369.106 341.463 371.27 341.512 373.457 341.56C380.101 341.725 385.622 346.638 386.331 353.06C387.269 361.343 388.169 369.994 388.99 378.844Z" fill="#444444"/>
<path d="M388.795 306.496C384.455 303.248 373.235 294.42 373.235 294.42C369.574 297.727 378.373 303.661 378.373 303.661" fill="#482D1F"/>
<path d="M368.763 293.165C370.965 289.486 370.334 284.646 367.028 281.669C363.271 278.287 357.484 278.59 354.101 282.347C350.719 286.104 351.022 291.891 354.779 295.273C358.007 298.18 362.735 298.365 366.148 295.975L376.635 305.417C376.877 305.636 377.251 305.616 377.469 305.374L379.247 303.399C379.465 303.157 379.446 302.783 379.203 302.565L368.763 293.165ZM365.511 292.62C363.22 295.165 359.299 295.371 356.754 293.079C354.21 290.788 354.004 286.867 356.295 284.323C358.587 281.778 362.507 281.572 365.052 283.864C367.597 286.155 367.802 290.075 365.511 292.62Z" fill="#474961"/>
<path d="M395.266 296.812C394.823 297.972 394.464 299.164 394.189 300.387C392.556 307.659 389.887 311.942 391.725 315.423C392.811 317.476 394.895 318.092 396.512 318.265L397.622 332.143C398.063 335.901 398.357 337.992 398.505 338.416C398.477 341.889 402.841 341.006 410.966 341.006C420.419 341.006 433.03 342.278 433.782 338.78C434.459 335.627 434.297 329.014 433.294 318.941C436.579 318.081 438.996 316.595 439.612 315.393C441.346 312.053 439.356 306.655 437.139 300.597C434.467 293.334 433.017 289.762 429.748 286.81C427.041 284.371 424.082 283.529 421.59 284C419.578 283.191 417.368 282.832 415.084 283.033L408.613 283.604C401.72 284.161 396.38 289.927 395.266 296.812Z" fill="#8111FF"/>
<path opacity="0.176986" d="M395.063 297.243C394.683 298.287 394.37 299.356 394.124 300.45C392.491 307.722 389.822 312.004 391.66 315.485C392.732 317.514 394.779 318.14 396.387 318.321L396.317 317.44L396.296 317.145L395.013 301.341L394.976 300.811C394.875 299.605 394.908 298.41 395.063 297.243Z" fill="#444444"/>
<path d="M417.871 283.157C417.36 281.442 416.625 278.607 415.666 274.653L415.582 272.989C415.641 272.664 415.696 272.654 415.991 272.565C416.759 272.359 417.171 271.86 417.703 271.27C418.677 270.148 418.943 268.494 418.471 266.989C417.88 265.542 416.345 264.449 414.928 264.567C414.396 264.627 413.894 264.833 413.422 265.128L413.392 265.158C413.245 265.306 413.038 265.335 412.831 265.365C412.329 265.365 411.916 265.01 411.886 264.508L411.621 256.802C411.621 256.3 411.237 255.946 410.735 255.946C409.642 255.946 408.579 255.887 407.487 255.651C407.339 255.651 407.221 255.621 407.103 255.621C406.04 255.503 400.342 255.149 397.271 259.371C397.005 259.784 396.74 260.198 396.533 260.611C396.002 261.674 395.765 262.855 395.854 264.095L396.179 269.469C396.238 270 396.297 270.532 396.415 271.093C397.832 277.736 400.844 282.342 403.383 282.49C404.682 282.519 405.981 282.371 407.251 281.988C407.409 281.909 407.309 281.97 409.083 281.253L409.445 283.207C405.92 283.781 403.959 284.903 403.743 285.013C404.371 285.706 404.459 285.939 405.001 286.378C411.066 291.278 420.91 284.825 422.152 283.999C420.638 283.609 419.211 283.336 417.871 283.157ZM391.97 323.841L391.497 327.234L368.053 331.659C367.36 331.54 366.691 331.474 366.046 331.455C363.826 331.363 361.915 331.794 360.62 332.132C357.382 331.978 354.176 331.794 350.97 331.64C348.349 331.024 342.491 330.101 342.306 333.794C342.306 333.794 344.834 334.471 348.256 335.363C349.057 335.572 349.907 335.793 350.786 336.022C355.324 337.589 361.262 340.82 364.682 341.916L399.71 340.694C399.181 340.044 398.787 339.308 398.552 338.479C398.404 338.055 398.109 335.964 397.669 332.206L397.245 326.914C403.643 330.551 409.584 333.594 415.068 336.044C418.392 337.528 422.454 338.692 425.714 339.806C433.31 341.352 434.744 338.617 435.612 337.72C436.621 336.676 439.984 333.711 438.469 316.691C435.717 318.759 429.142 320.772 422.58 318.989C420.884 318.528 419.369 318.093 418.034 317.683L418.141 318.71L383.068 303.989C382.984 303.924 382.892 303.866 382.794 303.817L372.667 299.004C371.899 298.65 370.954 298.974 370.57 299.742L370.216 300.421C369.856 301.168 370.145 302.019 370.815 302.439C370.102 302.289 369.395 302.625 369.094 303.303L368.74 303.982C368.438 304.609 368.592 305.308 369.045 305.765C368.659 305.882 368.313 306.144 368.101 306.532L367.711 307.192C367.286 307.968 367.592 308.9 368.339 309.324L373.626 312.184C380.085 316.518 386.2 320.404 391.97 323.841ZM366.489 424.898V430.266L386.947 430.561L386.821 425.26C384.558 425.409 381.346 425.174 376.678 425.059C372.333 424.956 369.018 425.009 366.489 424.898ZM398.893 425.16L398.314 433.513L419.425 430.561L418.604 425.448C416.854 425.799 414.347 426.18 410.987 426.451C410.573 426.478 410.13 426.505 409.687 426.478C403.163 426.248 401.34 425.848 398.893 425.16Z" fill="#BF865F"/>
<path d="M416.474 277.832C416.816 279.353 417.119 280.612 417.329 281.251C417.796 281.251 418.264 281.251 418.734 281.251C419.44 281.251 421.991 280.983 424.374 280.838C424.374 280.838 424.551 280.838 424.698 280.808C425.466 280.69 426.204 280.572 426.942 280.188C426.942 280.188 427.179 280.1 427.385 279.923C431.548 276.498 432.464 271.596 430.692 268.85C429.423 266.931 426.942 266.193 426.588 266.075C426.116 265.927 425.643 265.868 425.23 265.839C425.069 265.355 424.907 264.846 424.746 264.336C424.703 262.612 424.32 260.322 422.809 258.428C422.189 257.631 421.362 257.04 420.476 256.597C418.114 255.416 416.313 256.007 411.648 255.889C410.703 255.889 407.442 255.473 407.324 255.473C402.514 255.169 399.151 256.498 397.234 259.461C398.655 259.245 399.808 259.245 400.694 259.461C406.422 260.878 408.105 270.799 410.733 270.386C410.758 270.383 410.784 270.378 410.813 270.372L410.792 270.356L412.061 266.872C412.357 266.164 412.859 265.603 413.449 265.13C413.922 264.835 414.424 264.628 414.955 264.569C416.372 264.451 417.908 265.544 418.498 266.99C418.594 267.238 418.666 267.491 418.714 267.746C418.878 268.999 418.555 270.268 417.76 271.183C417.715 271.232 417.67 271.281 417.623 271.329C417.621 271.332 417.619 271.335 417.617 271.338C416.998 271.976 416.194 272.414 415.315 272.588C415.68 274.547 416.259 277.104 416.474 277.832ZM400.399 267.817C400.989 267.965 401.964 268.112 402.761 267.906C404.149 267.61 402.849 266.784 401.58 266.725C400.989 266.695 400.517 266.931 400.222 267.167C400.015 267.374 400.104 267.758 400.399 267.817ZM395.412 267.818C396.018 267.972 396.953 268.157 397.793 267.935C399.217 267.603 397.899 266.77 396.651 266.731C395.996 266.7 395.573 266.944 395.267 267.178C395.018 267.378 395.11 267.755 395.412 267.818Z" fill="#482D1F"/>
<path opacity="0.2" d="M392.482 323.937C392.338 323.853 392.193 323.768 392.048 323.683L391.552 327.177L368.112 331.573C367.419 331.453 366.749 331.387 366.103 331.368C363.883 331.276 361.971 331.707 360.677 332.045C357.439 331.891 354.233 331.707 351.026 331.553C348.406 330.937 342.548 330.014 342.363 333.707C342.363 333.707 344.891 334.384 348.313 335.277C349.114 335.485 349.964 335.707 350.843 335.935C355.381 337.502 361.319 340.733 364.739 341.829L399.767 340.607C399.238 339.957 398.843 339.221 398.609 338.392C398.46 337.968 398.166 335.877 397.726 332.12L397.329 327.159L397.301 327.046L397.32 327.042L397.302 326.827L392.482 323.937Z" fill="#8C2A00"/>
<path d="M329.058 322.893C328.79 323.799 329.29 324.732 330.196 325L370.767 337.466C371.674 337.734 372.607 337.235 372.875 336.329C373.143 335.422 372.644 334.489 371.738 334.221L331.166 321.755C330.289 321.488 329.326 321.986 329.058 322.893Z" fill="#474961"/>
<path d="M409.152 281.13L411.466 280.095L409.587 283.544L409.152 281.13Z" fill="#482D1F"/>
<path d="M397.564 271.419C397.83 271.065 397.742 270.268 397.653 269.736C397.624 269.352 397.269 269.116 396.944 269.116C396.738 269.146 396.472 269.264 396.413 269.677C396.206 270.652 397.21 272.01 397.564 271.419ZM402.436 271.449C402.731 271.094 402.613 270.268 402.525 269.766C402.495 269.382 402.141 269.146 401.816 269.146C401.609 269.175 401.344 269.293 401.285 269.707C401.078 270.681 402.052 272.039 402.436 271.449Z" fill="#482D1F"/>
<path d="M398.079 270.928L397.815 269.209C397.79 269.048 397.901 268.897 398.062 268.872C398.223 268.848 398.374 268.958 398.398 269.12L398.665 270.857L398.668 270.894L398.752 274.022C398.764 274.057 398.792 274.08 398.831 274.083C399.188 274.037 399.648 273.994 400.212 273.954C400.374 273.942 400.516 274.064 400.527 274.227C400.539 274.39 400.417 274.531 400.254 274.543C399.689 274.583 399.232 274.626 398.885 274.671L398.852 274.673C398.508 274.679 398.228 274.439 398.167 274.114L398.163 274.068L398.079 270.928Z" fill="#482D1F"/>
<path d="M400.458 276.94C400.665 276.911 401.196 276.793 401.314 276.468C401.314 276.409 401.373 276.32 401.344 276.261C401.255 276.114 400.34 276.114 400.34 276.114C399.129 276.143 398.834 276.084 398.745 276.232C398.716 276.32 398.716 276.439 398.923 276.704C399.188 277.206 400.163 277.029 400.458 276.94Z" fill="#482D1F"/>
<path d="M418.346 317.291L416.729 302.365C416.703 302.121 416.879 301.903 417.122 301.877C417.365 301.85 417.584 302.026 417.61 302.269L419.226 317.195C419.253 317.438 419.077 317.657 418.834 317.683C418.591 317.709 418.372 317.534 418.346 317.291Z" fill="#482D1F"/>
<path d="M192.029 386.137V386.192C192.029 386.901 192.649 387.491 193.357 387.491H215.649L207.795 401.9C202.185 412.175 196.605 422.42 191.025 432.695L181.783 449.643C181.458 450.233 181.724 451.001 182.344 451.355L182.462 451.414C183.082 451.769 183.879 451.562 184.175 451.001L218.749 387.491H241.779L276.354 451.001C276.649 451.562 277.446 451.739 278.066 451.414L278.184 451.355C278.804 451.001 279.07 450.233 278.745 449.643L269.504 432.695C263.894 422.42 258.314 412.175 252.733 401.9L244.879 387.491H274.435C275.173 387.491 275.763 386.901 275.763 386.192V386.044C275.763 385.336 275.143 384.745 274.435 384.745H254.357C241.277 384.745 228.168 384.745 215.059 384.745H194.635L192.147 364.609C190.434 350.909 188.751 337.179 187.039 323.45L184.234 300.774C184.145 299.977 183.466 299.387 182.728 299.475L182.58 299.505C181.872 299.593 181.37 300.331 181.458 301.069L191.999 385.985C192.007 386.037 192.017 386.088 192.029 386.137Z" fill="#D8DEED"/>
<path d="M286.227 448.866H245.27C244.523 448.866 243.925 449.457 243.925 450.195C243.925 450.933 244.523 451.524 245.27 451.524H292.773H326.597C327.335 451.524 327.925 450.933 327.925 450.195C327.925 449.457 327.335 448.866 326.597 448.866H286.227Z" fill="#8111FF" fill-opacity="0.5"/>
<path d="M326.994 448.895C327.054 448.776 327.1 448.648 327.128 448.512V448.482C327.128 448.335 327.158 448.187 327.128 448.04C327.099 447.862 327.099 447.715 327.04 447.538C326.656 446.209 325.622 445.087 324.943 444.467C324.855 444.378 324.796 444.349 324.707 444.29C323.408 443.493 322.079 442.754 320.692 442.134C317.975 440.894 311.952 438.355 310.151 437.44C307.818 436.259 304.6 434.251 301.234 430.649C300.968 430.442 300.673 430.354 300.348 430.354L280.064 430.472C279.208 430.472 278.529 431.18 278.588 432.066L278.779 439.099C277.92 438.693 277.047 438.244 276.064 437.676C274.668 436.879 272.707 435.58 270.509 433.631C269.291 432.568 268.043 431.505 266.825 430.442L248.437 430.206L244.596 449.118C244.818 448.96 245.091 448.866 245.388 448.866H286.345H326.715C326.811 448.866 326.904 448.876 326.994 448.895Z" fill="#474961"/>
<path opacity="0.176986" d="M292.464 448.866H326.67C326.746 448.731 326.803 448.583 326.836 448.423V448.394C326.836 448.246 326.866 448.099 326.836 447.951C326.807 447.774 326.807 447.626 326.748 447.449C326.364 446.12 325.331 444.998 324.651 444.378C324.563 444.29 324.504 444.26 324.415 444.201C323.116 443.404 321.787 442.666 320.4 442.046C317.683 440.806 311.66 438.267 309.859 437.351C307.527 436.17 304.308 434.163 300.942 430.56C300.677 430.354 300.381 430.265 300.057 430.265L279.772 430.383C278.916 430.383 278.525 431.005 278.584 431.891L278.783 439.251C280.814 440.191 282.844 440.945 286.15 442.518C287.567 443.197 288.925 443.965 290.254 444.821C290.904 445.412 292.026 446.622 292.38 448.04C292.439 448.276 292.439 448.512 292.468 448.719C292.468 448.768 292.467 448.818 292.464 448.866Z" fill="#444444"/>
<path d="M282.673 434.465C282.775 434.477 282.877 434.483 282.981 434.483L302.154 434.277H303.704C305.227 434.277 306.514 433.102 306.593 431.362C306.777 427.852 307.013 423.231 307.302 417.891C308.09 404.419 308.51 400.129 308.983 389.747C309.062 388.007 309.141 386.447 309.193 384.977C309.403 377.986 309.955 371.445 311.032 362.894C311.636 358.153 311.925 355.213 311.951 352.723C311.977 350.413 311.373 348.132 310.218 346.242C309.64 345.312 308.983 344.502 308.195 343.812C306.173 342.042 303.468 340.541 301.314 340.691C295.732 340.718 290.149 340.721 284.567 340.741C283.398 340.464 282.094 340.327 280.654 340.33L277.855 340.359C277.871 340.326 266.085 340.263 242.496 340.172C235.189 334.436 227.115 332.031 218.274 332.957C214.746 333.326 211.549 334.333 208.683 335.978C205.52 337.768 202.757 340.331 200.396 343.666C198.941 345.188 194.571 352.136 195.438 362.718C195.606 364.667 195.97 369.007 198.322 373.141C200.785 377.451 203.808 380.611 208.875 382.412C213.354 384.006 218.589 384.567 224.019 383.947C231.671 382.49 240.52 381.28 250.567 380.315C247.854 387.74 246.097 392.408 245.294 394.317C244.09 397.152 240.823 409.389 239.595 418.764C238.995 423.349 239.205 427.403 240.224 430.926C240.846 433.075 242.814 434.553 245.051 434.55L270.18 434.524L281.461 434.465H282.673Z" fill="#757575"/>
<path opacity="0.176986" d="M284.16 340.742C286.65 341.274 288.551 342.418 289.861 344.176C292.689 347.969 291.874 351.616 291.874 353.86V354.008C291.846 356.458 291.539 359.352 290.923 364.017C289.775 372.432 289.187 378.839 288.963 385.748C288.907 387.165 288.823 388.73 288.739 390.442C288.263 400.629 287.787 404.851 286.948 418.138C286.612 423.393 286.36 427.911 286.192 431.395C286.108 433.107 284.736 434.465 283.113 434.465H282.665C282.769 434.48 282.874 434.487 282.981 434.487L302.154 434.277H303.704C305.227 434.277 306.593 433.016 306.593 431.077C306.777 427.578 307.013 422.972 307.302 417.648C308.09 404.219 308.51 399.941 308.983 389.593C309.062 387.858 309.141 386.303 309.193 384.837C309.403 377.868 309.955 371.348 311.032 362.824C311.636 358.098 311.925 355.167 311.951 352.685C311.977 350.382 311.373 348.109 310.218 346.224C309.64 345.297 308.983 344.49 308.195 343.802C306.173 342.037 303.468 340.542 301.314 340.691C295.596 340.718 289.878 340.721 284.16 340.742Z" fill="#444444"/>
<path d="M238.38 286.346C240.948 288.35 243.023 291.433 243.412 292.564C246.636 301.941 250.519 301.57 250.829 303.601C251.293 306.64 247.735 307.01 247.735 307.01C246.083 307.168 244.827 307.289 243.967 307.372L243.762 315.759L243.743 316.055L243.4 330.751L243.322 333.619C243.331 333.855 243.308 334.063 243.287 334.3C243.267 334.566 243.246 334.803 243.225 335.07C243.161 335.752 243.036 336.406 242.852 337.063C242.773 337.331 242.723 337.599 242.614 337.869C218.044 338.727 205.684 337.011 205.534 332.723L206.147 307.126L202.42 307C202.42 307 198.37 306.727 198.833 303.67C199.142 301.627 203.583 301.793 207.057 292.267C207.534 290.959 210.45 287.012 213.895 284.98C214.004 284.916 214.114 284.854 214.224 284.793C216.576 283.465 219.305 282.734 222.197 282.803L228.998 282.979C232.563 283.05 235.811 284.3 238.38 286.346Z" fill="#8111FF" fill-opacity="0.5"/>
<path opacity="0.176986" d="M241.577 289.591C242.552 290.835 243.231 291.982 243.437 292.581C246.661 301.959 250.519 301.57 250.829 303.601C251.293 306.64 247.778 307 247.778 307L244.063 307.36L244.261 299.244L244.272 298.712C244.365 295.331 243.36 292.178 241.577 289.591Z" fill="#444444"/>
<path d="M224.774 270.639C224.72 270.589 224.668 270.538 224.616 270.484C223.68 269.499 223.133 267.932 223.649 266.418C224.129 264.96 225.56 263.778 226.979 263.838C227.778 263.863 229.923 264.354 229.909 263.642L229.753 256.111C229.744 255.637 230.113 255.231 230.589 255.222C231.633 255.183 232.656 255.054 233.756 254.755C233.876 254.738 233.997 254.721 234.118 254.704C235.114 254.542 240.709 253.856 243.915 257.801C244.207 258.128 244.463 258.51 244.714 258.95C245.29 259.957 245.584 261.112 245.578 262.295L245.557 267.559C245.531 268.089 245.505 268.619 245.42 269.143C244.403 275.693 241.688 280.32 239.225 280.594C238.922 280.651 237.338 280.752 235.454 280.318C235.282 280.27 235.419 280.343 232.962 279.48L232.556 283.475C231.384 283.169 230.155 282.995 228.887 282.97L223.814 282.839L224.455 276.762L224.733 274.129L224.774 270.639ZM243.456 327.569L243.705 316.978L243.731 315.983L243.746 315.756L243.864 310.896L243.957 307.38L246.358 307.149L254.643 329.697C255.417 329.843 256.314 330.026 257.363 330.249C259.053 330.24 260.451 330.279 261.559 330.365C266.044 330.716 269.898 330.862 274.41 333.543C282.635 338.431 283.277 340.682 276.334 340.295L262.173 340.213C261.996 340.277 261.82 340.319 261.644 340.334C261.644 340.334 240.949 340.152 199.559 339.788C197.894 339.773 196.331 338.986 195.328 337.657C194.846 337.017 194.496 335.848 194.278 334.148C193.602 330.561 195.534 325.424 199.204 315.445C200.371 312.281 201.477 309.405 202.517 306.849L225.396 307.715C223.631 312.099 220.518 322.527 219.636 324.125C219.634 324.126 219.632 324.127 219.63 324.128C226.218 325.015 234.112 326.116 243.456 327.569Z" fill="#F2A98A"/>
<path d="M232.744 281.668L230 278.189L232.972 279.479L232.744 281.668Z" fill="#482D1F"/>
<path d="M230.379 266.004C230.258 265.785 229.795 265.019 228.951 264.426C228.869 264.358 228.227 263.964 227.428 263.94C226.01 263.88 224.579 265.065 224.098 266.529C223.582 268.048 224.1 269.617 225.035 270.606C225.757 271.369 226.634 271.671 227.171 271.801C227.165 272.804 227.186 273.894 227.233 275.07C224.943 274.92 222.926 273.922 221.18 272.076C220.458 271.317 218.541 269.216 217.944 265.858C217.876 265.431 217.74 264.615 217.728 263.604C213.184 263.679 209.51 261.65 208.159 258.77C206.9 256.059 207.774 252.813 207.898 252.353C209.144 247.728 213.341 247.781 213.7 247.772C213.7 247.772 219.75 245.67 224.532 255.347C224.535 255.353 224.538 255.359 224.541 255.365C225.912 255.258 227.575 255.355 230.108 255.202C231.034 255.15 232.384 254.924 234.043 254.683C234.16 254.695 235.578 254.551 235.698 254.534C236.297 254.534 238.304 254.345 240.9 255.507C243.495 256.669 244.453 258.417 244.414 258.49C244.34 258.631 243.015 259.23 242.224 259.414C240.003 259.923 238.074 259.631 236.889 259.328C236.577 260.038 236.135 260.852 235.546 261.651C233.842 264.025 231.694 265.254 230.354 265.856C230.362 265.905 230.371 265.954 230.379 266.004Z" fill="#482D1F"/>
<path d="M243.627 267.276C243.661 266.872 243.983 266.572 244.388 266.574C244.636 266.557 244.866 266.726 244.989 267.15C245.249 268.183 244.266 269.734 243.818 269.117C243.542 268.734 243.603 267.834 243.627 267.276ZM237.106 267.14C237.14 266.736 237.462 266.436 237.867 266.438C238.115 266.421 238.345 266.59 238.468 267.014C238.728 268.047 237.745 269.598 237.297 268.981C237.021 268.599 237.082 267.698 237.106 267.14Z" fill="#482D1F"/>
<path d="M242.112 267.592L242.577 270.429C242.603 270.79 242.352 271.141 242.008 271.165C241.805 271.196 241.675 271.205 241.15 271.232C240.915 271.244 240.754 271.253 240.565 271.266C240.402 271.278 240.261 271.155 240.249 270.992C240.238 270.83 240.361 270.689 240.523 270.677C240.717 270.664 240.881 270.654 241.119 270.642C241.623 270.616 241.746 270.608 241.945 270.579C241.958 270.577 241.993 270.528 241.991 270.498L241.529 267.687C241.503 267.526 241.612 267.374 241.773 267.348C241.934 267.322 242.085 267.431 242.112 267.592Z" fill="#482D1F"/>
<path d="M240.251 273.075C240.05 273.024 239.557 272.832 239.479 272.514C239.474 272.449 239.439 272.355 239.465 272.32C239.566 272.152 239.94 272.255 240.452 272.316C241.362 272.415 242.119 272.362 242.119 272.362C242.119 272.362 241.905 272.927 241.776 273.098C241.494 273.506 240.569 273.182 240.251 273.075Z" fill="#482D1F"/>
<path d="M232.678 265.908C233.206 264.393 234.594 263.261 236.295 263.142C238.573 262.983 240.548 264.7 240.707 266.977C240.709 267.01 240.711 267.043 240.713 267.076C240.75 267.069 240.789 267.066 240.828 267.069L241.66 267.127C241.842 265.145 243.438 263.531 245.488 263.387C247.765 263.228 249.74 264.945 249.9 267.222C250.059 269.5 248.342 271.475 246.064 271.634C243.86 271.788 241.939 270.184 241.673 268.016L240.767 267.953C240.731 267.95 240.697 267.943 240.664 267.933C240.363 269.783 238.823 271.253 236.872 271.389C234.595 271.548 232.619 269.831 232.46 267.554C232.442 267.288 232.448 267.026 232.479 266.771L230.329 266.243C230.092 266.185 229.946 265.945 230.005 265.708C230.063 265.47 230.303 265.325 230.54 265.383L232.678 265.908ZM242.531 267.647C242.532 267.677 242.534 267.707 242.536 267.737C242.661 269.527 244.213 270.876 246.003 270.751C247.792 270.626 249.141 269.074 249.016 267.284C248.891 265.495 247.339 264.146 245.55 264.271C243.829 264.391 242.515 265.831 242.528 267.532C242.533 267.565 242.535 267.598 242.532 267.632C242.532 267.637 242.532 267.642 242.531 267.647ZM236.81 270.506C238.6 270.38 239.949 268.828 239.824 267.039C239.698 265.25 238.146 263.901 236.357 264.026C234.568 264.151 233.219 265.703 233.344 267.492C233.469 269.282 235.021 270.631 236.81 270.506Z" fill="#482D1F"/>
<path d="M216.309 326.645C216.094 326.762 215.825 326.683 215.708 326.468C215.591 326.253 215.67 325.984 215.885 325.867L219.575 323.853C219.79 323.736 220.059 323.815 220.176 324.029C220.294 324.244 220.214 324.513 220 324.63L216.309 326.645ZM225.687 308.031C225.591 308.256 225.331 308.361 225.106 308.265C224.881 308.17 224.776 307.91 224.871 307.685L228.826 298.364C228.921 298.139 229.181 298.034 229.406 298.13C229.631 298.225 229.736 298.485 229.641 298.71L225.687 308.031Z" fill="#482D1F"/>
<path opacity="0.2" d="M243.452 327.655L243.723 316.082L243.742 315.786L243.947 307.376L246.35 307.143L254.618 329.751L243.452 327.655Z" fill="#8C2A00"/>
<path d="M251.005 380.554L259.57 371.567C259.738 371.39 259.732 371.109 259.555 370.941C259.377 370.772 259.097 370.779 258.928 370.956L250.364 379.943C250.195 380.12 250.202 380.4 250.379 380.569C250.556 380.738 250.836 380.731 251.005 380.554Z" fill="#482D1F"/>
<path d="M436.55 339.639H200.049C198.908 339.639 197.983 340.654 197.983 341.905C197.983 343.157 198.908 344.171 200.049 344.171H436.55C437.692 344.171 438.617 343.157 438.617 341.905C438.617 340.654 437.692 339.639 436.55 339.639Z" fill="#D8DEED"/>
<path d="M449.128 155.381H349.862C347.514 155.381 345.611 157.284 345.611 159.632V233.803C345.611 236.15 347.514 238.053 349.862 238.053H449.128C451.476 238.053 453.38 236.15 453.38 233.803V159.632C453.38 157.284 451.476 155.381 449.128 155.381Z" fill="#F2F6FB"/>
<path d="M353.05 183.176H391.143C391.73 183.176 392.205 183.651 392.205 184.238V186.114C392.205 186.701 391.73 187.177 391.143 187.177H353.05C352.463 187.177 351.988 186.701 351.988 186.114V184.238C351.988 183.651 352.463 183.176 353.05 183.176ZM353.05 189.678H396.17C396.757 189.678 397.233 190.154 397.233 190.741V192.617C397.233 193.204 396.757 193.679 396.17 193.679H353.05C352.463 193.679 351.988 193.204 351.988 192.617V190.741C351.988 190.154 352.463 189.678 353.05 189.678ZM353.05 202.683H401.197C401.784 202.683 402.26 203.158 402.26 203.745V205.622C402.26 206.208 401.784 206.684 401.197 206.684H353.05C352.463 206.684 351.988 206.208 351.988 205.622V203.745C351.988 203.158 352.463 202.683 353.05 202.683ZM353.05 209.185H386.115C386.702 209.185 387.178 209.661 387.178 210.248V212.124C387.178 212.711 386.702 213.187 386.115 213.187H353.05C352.463 213.187 351.988 212.711 351.988 212.124V210.248C351.988 209.661 352.463 209.185 353.05 209.185ZM353.05 215.687H396.17C396.757 215.687 397.233 216.163 397.233 216.75V218.626C397.233 219.213 396.757 219.689 396.17 219.689H353.05C352.463 219.689 351.988 219.213 351.988 218.626V216.75C351.988 216.163 352.463 215.687 353.05 215.687ZM353.05 222.19H401.197C401.784 222.19 402.26 222.666 402.26 223.252V225.129C402.26 225.716 401.784 226.191 401.197 226.191H353.05C352.463 226.191 351.988 225.716 351.988 225.129V223.252C351.988 222.666 352.463 222.19 353.05 222.19Z" fill="#E1E5F0"/>
<path d="M401.197 176.846H353.05C352.463 176.846 351.988 177.322 351.988 177.909V179.507C351.988 180.094 352.463 180.569 353.05 180.569H401.197C401.784 180.569 402.26 180.094 402.26 179.507V177.909C402.26 177.322 401.784 176.846 401.197 176.846Z" fill="#D8DEED"/>
<path d="M415.239 183.176H448.49C449.077 183.176 449.553 183.651 449.553 184.238V186.169C449.553 186.756 449.077 187.231 448.49 187.231H415.239C414.652 187.231 414.176 186.756 414.176 186.169V184.238C414.176 183.651 414.652 183.176 415.239 183.176ZM415.239 189.766H438.383C438.97 189.766 439.446 190.242 439.446 190.829V192.76C439.446 193.346 438.97 193.822 438.383 193.822H415.239C414.652 193.822 414.176 193.346 414.176 192.76V190.829C414.176 190.242 414.652 189.766 415.239 189.766ZM415.239 196.357H443.437C444.024 196.357 444.499 196.833 444.499 197.42V199.35C444.499 199.937 444.024 200.413 443.437 200.413H415.239C414.652 200.413 414.176 199.937 414.176 199.35V197.42C414.176 196.833 414.652 196.357 415.239 196.357ZM415.239 202.948H433.329C433.916 202.948 434.392 203.424 434.392 204.011V205.941C434.392 206.528 433.916 207.004 433.329 207.004H415.239C414.652 207.004 414.176 206.528 414.176 205.941V204.011C414.176 203.424 414.652 202.948 415.239 202.948Z" fill="#E1E5F0"/>
<path d="M345.611 159.633C345.611 157.285 347.516 155.381 349.86 155.381H449.13C451.477 155.381 453.38 157.285 453.38 159.633V164.732H345.611V159.633Z" fill="#E1E5F0"/>
<path d="M288.122 148H173.391C172.623 148 172 148.622 172 149.389V236.664C172 237.431 172.623 238.053 173.391 238.053H288.122C288.89 238.053 289.512 237.431 289.512 236.664V149.389C289.512 148.622 288.89 148 288.122 148Z" fill="#F2F6FB"/>
<path d="M198.047 194.434C203.808 194.434 208.479 189.792 208.479 184.065C208.479 178.339 203.808 173.697 198.047 173.697C192.285 173.697 187.615 178.339 187.615 184.065C187.615 189.792 192.285 194.434 198.047 194.434Z" fill="#D8DEED"/>
<path d="M198.041 183.918C196.546 183.918 195.333 182.729 195.333 181.263C195.333 179.797 196.546 178.608 198.041 178.608C199.536 178.608 200.749 179.797 200.749 181.263C200.749 182.729 199.536 183.918 198.041 183.918ZM198.041 185.245C200.751 185.245 202.949 187.4 202.949 190.057H193.133C193.133 187.4 195.331 185.245 198.041 185.245Z" fill="#F2F6FB"/>
<path d="M188.813 197.163H207.28C208.245 197.163 209.028 197.944 209.028 198.908V199.783C209.028 200.747 208.245 201.528 207.28 201.528H188.813C187.848 201.528 187.066 200.747 187.066 199.783V198.908C187.066 197.944 187.848 197.163 188.813 197.163ZM191.558 204.257H204.535C205.5 204.257 206.282 205.038 206.282 206.002V206.877C206.282 207.841 205.5 208.623 204.535 208.623H191.558C190.593 208.623 189.811 207.841 189.811 206.877V206.002C189.811 205.038 190.593 204.257 191.558 204.257Z" fill="#E1E5F0"/>
<path d="M190.89 215.854H205.203C205.994 215.854 206.682 216.015 207.249 216.318C207.816 216.621 208.26 217.065 208.563 217.631C208.866 218.197 209.028 218.884 209.028 219.674C209.028 220.464 208.866 221.152 208.563 221.718C208.26 222.284 207.816 222.728 207.249 223.031C206.682 223.333 205.994 223.494 205.203 223.494H190.89C190.099 223.494 189.411 223.333 188.844 223.031C188.278 222.728 187.833 222.284 187.53 221.718C187.227 221.152 187.066 220.464 187.066 219.675C187.066 218.884 187.227 218.197 187.53 217.631C187.833 217.065 188.278 216.621 188.844 216.318C189.411 216.015 190.099 215.854 190.89 215.854ZM223.571 215.854H237.884C238.675 215.854 239.363 216.015 239.93 216.318C240.496 216.621 240.941 217.065 241.244 217.631C241.547 218.197 241.708 218.884 241.708 219.674C241.708 220.464 241.547 221.152 241.244 221.718C240.941 222.284 240.496 222.728 239.93 223.031C239.363 223.333 238.675 223.494 237.884 223.494H223.571C222.78 223.494 222.092 223.333 221.525 223.031C220.959 222.728 220.514 222.284 220.211 221.718C219.908 221.152 219.747 220.464 219.747 219.675C219.747 218.884 219.908 218.197 220.211 217.631C220.514 217.065 220.959 216.621 221.525 216.318C222.092 216.015 222.78 215.854 223.571 215.854ZM256.484 215.854H270.797C271.587 215.854 272.276 216.015 272.843 216.318C273.409 216.621 273.854 217.065 274.157 217.631C274.46 218.197 274.621 218.884 274.621 219.674C274.621 220.464 274.46 221.152 274.157 221.718C273.854 222.284 273.409 222.728 272.843 223.031C272.276 223.333 271.587 223.494 270.797 223.494H256.484C255.693 223.494 255.004 223.333 254.438 223.031C253.871 222.728 253.427 222.284 253.124 221.718C252.821 221.152 252.659 220.464 252.659 219.675C252.659 218.884 252.821 218.197 253.124 217.631C253.427 217.065 253.871 216.621 254.438 216.318C255.004 216.015 255.693 215.854 256.484 215.854Z" fill="#8111FF"/>
<path d="M230.728 194.434C236.489 194.434 241.16 189.792 241.16 184.065C241.16 178.339 236.489 173.697 230.728 173.697C224.966 173.697 220.296 178.339 220.296 184.065C220.296 189.792 224.966 194.434 230.728 194.434Z" fill="#D8DEED"/>
<path d="M230.722 183.918C229.227 183.918 228.014 182.729 228.014 181.263C228.014 179.797 229.227 178.608 230.722 178.608C232.217 178.608 233.43 179.797 233.43 181.263C233.43 182.729 232.217 183.918 230.722 183.918ZM230.722 185.245C233.432 185.245 235.629 187.4 235.629 190.057H225.814C225.814 187.4 228.012 185.245 230.722 185.245Z" fill="#F2F6FB"/>
<path d="M221.494 197.163H239.961C240.926 197.163 241.708 197.944 241.708 198.908V199.783C241.708 200.747 240.926 201.528 239.961 201.528H221.494C220.529 201.528 219.747 200.747 219.747 199.783V198.908C219.747 197.944 220.529 197.163 221.494 197.163ZM221.494 204.257H239.961C240.926 204.257 241.708 205.038 241.708 206.002V206.877C241.708 207.841 240.926 208.623 239.961 208.623H221.494C220.529 208.623 219.747 207.841 219.747 206.877V206.002C219.747 205.038 220.529 204.257 221.494 204.257Z" fill="#E1E5F0"/>
<path d="M263.64 194.434C269.402 194.434 274.072 189.792 274.072 184.065C274.072 178.339 269.402 173.697 263.64 173.697C257.879 173.697 253.208 178.339 253.208 184.065C253.208 189.792 257.879 194.434 263.64 194.434Z" fill="#D8DEED"/>
<path d="M263.634 183.918C262.139 183.918 260.927 182.729 260.927 181.263C260.927 179.797 262.139 178.608 263.634 178.608C265.13 178.608 266.342 179.797 266.342 181.263C266.342 182.729 265.13 183.918 263.634 183.918ZM263.634 185.245C266.345 185.245 268.542 187.4 268.542 190.057H258.727C258.727 187.4 260.924 185.245 263.634 185.245Z" fill="#F2F6FB"/>
<path d="M257.152 197.163H270.128C271.093 197.163 271.876 197.944 271.876 198.908V199.783C271.876 200.747 271.093 201.528 270.128 201.528H257.152C256.187 201.528 255.404 200.747 255.404 199.783V198.908C255.404 197.944 256.187 197.163 257.152 197.163ZM254.407 204.257H272.873C273.839 204.257 274.621 205.038 274.621 206.002V206.877C274.621 207.841 273.839 208.623 272.873 208.623H254.407C253.441 208.623 252.659 207.841 252.659 206.877V206.002C252.659 205.038 253.441 204.257 254.407 204.257Z" fill="#E1E5F0"/>
<path d="M172 152.631C172 150.073 174.077 148 176.634 148H284.878C287.438 148 289.512 150.074 289.512 152.631V158.186H172V152.631Z" fill="#D8DEED"/>
<path d="M178.838 155.408C180.054 155.408 181.04 154.423 181.04 153.209C181.04 151.994 180.054 151.01 178.838 151.01C177.622 151.01 176.636 151.994 176.636 153.209C176.636 154.423 177.622 155.408 178.838 155.408Z" fill="#FF5645"/>
<path d="M186.023 155.408C187.239 155.408 188.224 154.423 188.224 153.209C188.224 151.994 187.239 151.01 186.023 151.01C184.807 151.01 183.821 151.994 183.821 153.209C183.821 154.423 184.807 155.408 186.023 155.408Z" fill="#FFCB3D"/>
<path d="M193.44 155.408C194.656 155.408 195.642 154.423 195.642 153.209C195.642 151.994 194.656 151.01 193.44 151.01C192.224 151.01 191.238 151.994 191.238 153.209C191.238 154.423 192.224 155.408 193.44 155.408Z" fill="#3ABF7C"/>
</svg>
