<svg width="391" height="384" viewBox="0 0 391 384" fill="none" xmlns="http://www.w3.org/2000/svg">
<path fill-rule="evenodd" clip-rule="evenodd" d="M96.856 331.016C77.492 321.13 60.823 307.331 44.845 292.586C26.35 275.519 2.79303 260.765 -5.15997 236.877C-13.035 213.223 -0.606668 187.839 1.70303 163.003C4.14853 136.707 -5.31517 107.001 8.98423 84.788C23.391 62.407 51.639 51.311 77.532 45.205C101.811 39.48 126.539 52.178 151.458 51.188C170.43 50.435 189.035 46.688 206.84 40.072C235.228 29.523 257.544 -0.684968 287.788 0.531032C314.479 1.60303 335.311 25.893 352.948 45.943C370.415 65.799 384.906 89.669 389.174 115.783C393.344 141.301 385.339 167.305 376.769 191.714C369.329 212.903 345.676 226.785 342.398 248.997C338.086 278.213 373.383 312.313 355.498 335.823C338.395 358.306 298.48 332.748 271.754 341.86C249.725 349.371 239.493 381.936 216.266 383.295C192.573 384.682 176.498 358.221 154.768 348.707C136.12 340.543 114.985 340.272 96.856 331.016Z" fill="#8111FF" fill-opacity="0.05"/>
</svg>
