<svg width="576" height="568" viewBox="0 0 576 568" fill="none" xmlns="http://www.w3.org/2000/svg">
<path fill-rule="evenodd" clip-rule="evenodd" d="M175.856 441.016C156.492 431.13 139.823 417.331 123.845 402.586C105.35 385.519 81.793 370.765 73.84 346.877C65.965 323.223 78.3933 297.839 80.703 273.003C83.1485 246.707 73.6848 217.001 87.9842 194.788C102.391 172.407 130.639 161.311 156.532 155.205C180.811 149.48 205.539 162.178 230.458 161.188C249.43 160.435 268.035 156.688 285.84 150.072C314.228 139.523 336.544 109.315 366.788 110.531C393.479 111.603 414.311 135.893 431.948 155.943C449.415 175.799 463.906 199.669 468.174 225.783C472.344 251.301 464.339 277.305 455.769 301.714C448.329 322.903 424.676 336.785 421.398 358.997C417.086 388.213 452.383 422.313 434.498 445.823C417.395 468.306 377.48 442.748 350.754 451.86C328.725 459.371 318.493 491.936 295.266 493.295C271.573 494.682 255.498 468.221 233.768 458.707C215.12 450.543 193.985 450.272 175.856 441.016Z" fill="#8111FF" fill-opacity="0.05"/>
<path d="M355.365 382.276H377.138C377.799 382.276 378.377 381.726 378.377 381.066V380.929C378.377 380.269 377.799 379.719 377.083 379.719H356.907C344.686 379.719 332.465 379.719 320.272 379.719H301.555C300.894 379.719 300.316 380.269 300.316 380.929V381.066C300.316 381.726 300.866 382.276 301.555 382.276H328.117L320.794 395.695C315.592 405.264 310.39 414.806 305.16 424.375L296.545 440.158C296.242 440.708 296.49 441.423 297.068 441.753L297.178 441.808C297.756 442.111 298.499 441.946 298.775 441.423L331.006 382.276H352.476L384.707 441.423C384.983 441.946 385.726 442.138 386.304 441.808L386.414 441.753C386.992 441.423 387.24 440.708 386.937 440.158L378.322 424.375C373.119 414.806 367.917 405.264 362.687 395.695L355.365 382.276ZM378.294 371.5V355.512C378.294 343.319 378.294 331.153 378.294 318.988V304.458C378.294 302.18 376.446 300.333 374.165 300.333H329.245C326.964 300.333 325.116 302.18 325.116 304.458V371.548C325.116 373.826 326.964 375.672 329.245 375.672C329.246 375.672 329.248 375.672 329.249 375.672L374.17 375.625C376.448 375.623 378.294 373.777 378.294 371.5Z" fill="#D8DEED"/>
<path d="M275.634 438.151H320.499C321.183 438.151 321.738 438.705 321.738 439.388C321.738 440.071 321.183 440.625 320.499 440.625H275.634C274.95 440.625 274.395 440.071 274.395 439.388C274.395 438.705 274.95 438.151 275.634 438.151ZM326.004 438.151H354.355C355.039 438.151 355.594 438.705 355.594 439.388C355.594 440.071 355.039 440.625 354.355 440.625H326.004C325.32 440.625 324.766 440.071 324.766 439.388C324.766 438.705 325.32 438.151 326.004 438.151Z" fill="#8111FF" fill-opacity="0.2"/>
<path d="M354.06 438.151H326.043L328.289 423.13H348.256L354.06 438.151ZM321.276 438.423C321.064 438.253 320.794 438.151 320.501 438.151H275.635C275.583 438.151 275.533 438.154 275.483 438.16C275.467 438.033 275.459 437.882 275.463 437.701C275.494 437.509 275.497 437.29 275.556 437.071C275.91 435.757 276.338 434.884 277.59 434.108C278.842 433.333 280.121 432.64 281.453 432.031C286.366 429.724 288.045 429.753 291.275 427.637C292.612 426.752 293.841 425.729 294.989 424.621C295.755 423.883 297.409 422.683 299.952 421.022L319.662 421.083L321.276 438.423Z" fill="#474961"/>
<path d="M353.829 373.516C353.783 386.97 353.328 404.844 353.172 410.992C353.144 411.848 353.254 414.166 351.603 415.626C351.135 416.055 350.667 416.231 349.786 416.609C349.098 416.911 346.015 417.818 339.85 418.321C339.464 418.347 339.051 418.372 338.638 418.347C332.28 418.12 330.711 417.717 328.262 417.012C326.638 416.558 325.454 415.148 325.289 413.486C324.518 406.156 322.399 386.183 322.234 384.42C322.013 382.179 321.821 379.635 321.656 376.738L321.568 375.382L313.951 372.331C317.132 384.709 320.218 397.529 322.977 410.274C323.114 410.899 323.362 412.304 322.646 413.632C321.325 416.156 317.885 416.026 309.655 417.015C299.966 418.186 295.92 419.409 293.718 416.911C292.974 416.104 292.727 415.271 292.644 414.881C290.635 404.757 280.671 375.376 276.79 354.296C276.79 354.244 276.762 354.218 276.762 354.166C275.524 347.373 280.175 340.972 287.084 340.113C289.369 339.826 291.433 339.551 293.718 339.264C294.41 339.182 295.1 339.158 295.784 339.189L329.888 338.588C350.115 338.41 347.33 336.023 353.654 338.981C357.871 340.953 360.742 346.566 362.267 355.822C362.813 362.859 360.001 368.757 353.829 373.516Z" fill="#8111FF"/>
<path opacity="0.176986" d="M353.863 373.489C353.865 372.787 353.867 372.096 353.867 371.419C353.867 366.181 353.894 361.672 353.949 358.776C354.004 356.484 354.417 343.89 349.077 341.271C348.609 341.044 348.141 340.868 347.205 340.541C346.462 340.289 342.609 338.979 337.654 339.181C334.434 339.307 329.59 339.508 325.598 342.656C320.093 347.014 320.231 353.89 320.286 354.998L321.603 375.397L313.99 372.347C311.869 364.094 309.706 356.038 307.57 348.332C306.11 343.087 301.231 339.457 295.879 339.188L329.887 338.588C350.114 338.41 347.329 336.023 353.654 338.981C357.871 340.953 360.742 346.566 362.267 355.822C362.812 362.846 360.011 368.735 353.863 373.489Z" fill="#444444"/>
<path d="M324.855 287.304C325.186 287.159 325.525 287.029 325.871 286.917L331.745 284.923C332.085 284.86 332.424 284.805 332.761 284.758C333.224 284.218 334.167 283.76 335.802 283.25C341.609 281.406 349.02 284.472 351.66 291.343C353.96 297.331 357.016 304.095 356.732 304.184C356.671 304.202 355.337 305.172 353.51 305.773C356.153 315.91 357.577 322.696 357.782 326.131C358.19 332.972 355.926 337.557 348.254 338.139C340.582 338.72 329.905 339.538 328.65 337.27C327.843 335.811 324.051 326.805 317.275 310.252C314.741 311.086 313.418 311.513 313.305 311.532C312.952 311.595 311.75 307.569 310.967 301.203C310.068 293.898 314.427 287.806 321.651 286.56C322.845 286.349 323.913 286.597 324.855 287.304Z" fill="#8111FF" fill-opacity="0.2"/>
<path opacity="0.176986" d="M324.872 287.317C317.687 290.346 314.12 300.719 316.513 308.39C316.777 309.019 317.038 309.637 317.294 310.246C314.748 311.084 313.418 311.512 313.305 311.532C312.952 311.595 311.75 307.569 310.967 301.203C310.068 293.898 314.427 287.806 321.651 286.56C322.852 286.348 323.926 286.6 324.872 287.317Z" fill="#444444"/>
<path d="M313.012 288.171C313.012 288.171 312.489 290.261 315.27 289.683C318.05 289.106 318.848 288.831 318.848 288.831L318.132 286.934L313.012 288.171Z" fill="#482D1F"/>
<path d="M328.73 286.701L333.849 310.994L335.066 304.399C341.481 305.677 346.701 306.315 350.728 306.315C350.749 306.315 350.771 306.315 350.792 306.315C349.885 309.842 347.736 325.146 344.391 331.067C340.163 338.553 337.695 339.375 331.452 338.763C330.813 338.7 330.21 338.585 329.641 338.418C329.914 338.509 330.195 338.585 330.485 338.646L298.185 339.151L298.182 339.16L298.084 339.152L297.95 339.154C297.89 339.155 297.831 339.147 297.776 339.129L284.48 338.136C282.42 337.982 280.526 336.946 279.287 335.294L277.548 332.976C277.217 332.534 277.002 332.017 276.923 331.471C276.661 329.667 277.913 327.993 279.718 327.732L283.978 327.115C286.63 326.731 289.324 326.736 291.975 327.13L300.208 328.353C306.398 326.376 314.658 323.779 316.72 323.332L314.159 311.254L317.186 310.046C318.136 312.251 319.031 314.323 319.869 316.26C318.919 307.055 319.026 296.891 317.884 287.861L315.022 287.923C313.315 288.611 309.737 289.766 309.352 287.319C309.352 287.319 314.086 285.366 317.417 283.936L317.664 283.716C317.885 283.524 318.077 283.414 318.352 283.331C318.407 283.304 318.463 283.304 318.518 283.304L318.7 283.277C318.205 283.315 317.857 283.306 317.736 283.293C315.434 283.19 312.612 279.048 311.254 273.011C311.129 272.525 311.086 272.032 311.015 271.542L310.668 266.631C310.572 265.535 310.78 264.441 311.247 263.461C311.292 263.347 311.34 263.26 311.387 263.173C311.555 262.882 311.723 262.592 311.896 262.356C312.56 261.415 313.382 260.708 314.248 260.19C316.31 259.127 318.718 258.861 320.076 258.908C320.271 258.919 320.881 258.948 321.741 258.984C322.553 259.106 323.33 259.148 324.128 259.106C324.569 259.095 324.932 259.45 324.97 259.888L325.31 266.925C325.312 266.977 325.326 267.05 325.35 267.145C328.122 265.999 330.106 266.653 331.303 269.106C333.099 272.785 331.473 271.989 330.675 272.97C330.099 273.655 329.383 273.994 328.901 274.174C328.811 274.193 328.719 274.246 328.639 274.319L330.794 274.34L331.176 275.852L331.316 277.772L332.733 284.797C332.733 284.797 330.735 285.911 328.73 286.701ZM323.916 282.521L323.754 281.731C323.686 281.76 323.617 281.789 323.547 281.819C321.256 282.792 321.389 282.725 321.229 282.794C320.886 282.901 320.551 282.987 320.234 283.054L322.701 282.699L323.916 282.521ZM346.427 423.21H328.339L328.728 417.135C330.951 417.765 332.696 418.134 338.673 418.347C339.086 418.372 339.499 418.347 339.884 418.322C342.826 418.081 345.066 417.749 346.679 417.435L348.254 423.131L346.427 423.21ZM318.873 415.879L319.661 421.083H299.847L301.154 418.134C303.371 417.876 306.155 417.442 309.689 417.015C313.87 416.512 316.814 416.299 318.873 415.879Z" fill="#DB9E75"/>
<path d="M325.598 282.311L324.557 282.457L323.976 282.542C323.956 282.537 323.936 282.531 323.916 282.525L323.753 281.73L326.708 280.457C326.31 281.373 325.94 281.991 325.598 282.311Z" fill="#482D1F"/>
<path d="M312.998 272.417C313.096 272.905 313.275 273.69 313.087 274.065C312.781 274.672 311.706 273.441 311.789 272.495C311.838 272.104 312.015 271.923 312.235 271.904C312.589 271.845 312.912 272.066 312.998 272.417ZM318.848 271.381C318.946 271.87 319.125 272.654 318.937 273.03C318.631 273.636 317.556 272.405 317.639 271.459C317.688 271.069 317.865 270.887 318.085 270.868C318.439 270.81 318.762 271.03 318.848 271.381Z" fill="#482D1F"/>
<path d="M314.348 272.357L314.341 275.118C314.369 275.457 314.65 275.751 314.973 275.723C315.164 275.721 315.285 275.711 315.773 275.659C315.991 275.636 316.14 275.621 316.316 275.605C316.468 275.592 316.58 275.459 316.567 275.307C316.553 275.156 316.42 275.044 316.268 275.057C316.088 275.073 315.935 275.088 315.714 275.112C315.247 275.162 315.133 275.172 314.946 275.174C314.935 275.174 314.893 275.13 314.89 275.095L314.898 272.359C314.899 272.207 314.776 272.084 314.624 272.083C314.472 272.083 314.348 272.206 314.348 272.357Z" fill="#482D1F"/>
<path d="M316.867 277.159C317.054 277.087 317.503 276.854 317.534 276.575C317.529 276.521 317.55 276.436 317.52 276.411C317.398 276.284 317.051 276.424 316.565 276.55C315.699 276.763 314.959 276.828 314.959 276.828C314.959 276.828 315.247 277.273 315.396 277.398C315.726 277.7 316.575 277.295 316.867 277.159Z" fill="#482D1F"/>
<path d="M323.517 269.348L324.429 269.038C324.95 268.861 325.216 269.642 324.695 269.819L323.783 270.129L323.095 270.362C323.173 270.618 323.225 270.886 323.25 271.162C323.438 273.311 321.847 275.205 319.697 275.393C317.826 275.556 316.147 274.374 315.619 272.65L315.137 272.725L314.739 272.788C314.82 274.857 313.261 276.645 311.174 276.828C309.024 277.015 307.128 275.426 306.94 273.278C306.752 271.13 308.342 269.236 310.493 269.048C312.421 268.879 314.156 270.143 314.621 271.972L315.009 271.911L315.137 272.725C314.664 272.376 314.662 272.364 314.661 272.352L314.229 272.033L314.621 271.972C314.64 272.048 314.658 272.125 314.672 272.203C314.708 272.063 314.816 271.941 315.009 271.911L315.462 271.839C315.276 269.693 316.866 267.801 319.015 267.613C320.598 267.475 322.043 268.299 322.771 269.601L323.517 269.348ZM314.358 272.848C314.13 272.884 313.917 272.727 313.885 272.499C313.853 272.276 314.006 272.068 314.229 272.033L315.009 271.911L315.462 271.839C315.462 271.841 315.462 271.842 315.462 271.843C315.487 272.122 315.54 272.392 315.619 272.65L315.137 272.725L314.358 272.848ZM315.137 272.725C314.94 272.756 314.797 272.669 314.722 272.541L315.137 272.725ZM319.625 274.571C321.321 274.423 322.575 272.929 322.427 271.234C322.279 269.54 320.783 268.287 319.087 268.435C317.391 268.583 316.136 270.077 316.285 271.771C316.433 273.466 317.928 274.719 319.625 274.571ZM310.565 269.87C308.869 270.018 307.614 271.512 307.762 273.206C307.911 274.901 309.406 276.154 311.102 276.006C312.798 275.857 314.053 274.364 313.904 272.669C313.899 272.612 313.893 272.555 313.885 272.499C313.654 270.886 312.197 269.727 310.565 269.87Z" fill="#482D1F"/>
<path opacity="0.2" d="M330.469 338.646L298.169 339.151L298.166 339.16L298.068 339.152L297.934 339.154C297.874 339.155 297.816 339.147 297.76 339.129L284.464 338.136C282.404 337.982 280.51 336.946 279.271 335.294L277.533 332.976C277.201 332.534 276.986 332.017 276.907 331.471C276.645 329.667 277.897 327.993 279.702 327.732L283.962 327.115C286.614 326.731 289.308 326.736 291.959 327.13L300.193 328.353C306.382 326.376 314.642 323.779 316.704 323.332L314.143 311.254L317.17 310.046C318.176 312.38 319.119 314.564 319.999 316.598C320.153 317.808 320.33 319.012 320.539 320.21C322.571 331.013 324.927 337.469 330.469 338.646Z" fill="#8C2A00"/>
<path d="M333.564 311.139C333.499 310.92 333.623 310.691 333.842 310.626C334.061 310.561 334.29 310.686 334.355 310.904L337.08 320.088C337.145 320.307 337.02 320.536 336.802 320.601C336.583 320.666 336.353 320.541 336.288 320.323L333.564 311.139ZM350.809 306.652C350.581 306.65 350.398 306.464 350.399 306.236C350.401 306.008 350.587 305.825 350.815 305.827C351.964 305.835 353.043 305.668 354.052 305.325C354.268 305.252 354.502 305.367 354.576 305.583C354.649 305.799 354.534 306.033 354.318 306.106C353.219 306.479 352.049 306.661 350.809 306.652Z" fill="#482D1F"/>
<path d="M327.962 274.074C328.381 273.953 329.619 273.681 330.379 272.747C331.179 271.794 331.573 270.297 330.982 268.913C330.451 267.579 329.037 266.571 327.723 266.714C326.985 266.806 326.413 267.215 326.335 267.277C325.431 267.991 325.069 268.906 325.069 268.906L324.85 269.544C324.741 269.402 324.637 269.268 324.537 269.145C322.431 267.176 321.214 265.81 319.081 263.844C318.008 264.214 311.12 266.663 310.602 266.432C310.602 263.638 311.625 262.739 311.798 262.503C312.461 261.562 313.432 260.648 314.298 260.131C316.36 259.067 318.768 258.802 320.126 258.849C320.321 258.859 320.931 258.889 321.791 258.924C322.04 258.93 322.289 258.936 322.593 258.937C323.311 258.929 323.864 258.936 324.196 258.935C328.387 258.844 329.967 258.264 332.149 259.205C332.277 259.264 332.456 259.349 332.668 259.465C332.812 259.084 332.982 258.73 333.15 258.403C337.765 249.47 343.37 251.492 343.37 251.525C343.37 251.558 347.617 251.558 348.703 255.885C348.811 256.315 349.573 259.353 348.356 261.857C346.722 265.133 341.852 267.151 336.31 265.774C336.378 266.732 336.312 267.517 336.284 267.925C335.981 271.098 334.25 273.099 333.744 273.944C333.069 275.07 332.235 276.204 331.242 277.344C330.004 276.601 329.056 275.734 328.398 274.742C328.256 274.524 328.11 274.301 327.962 274.074Z" fill="#482D1F"/>
<path d="M225.476 332.011L228.123 321.341H208.253C206.188 321.341 204.482 319.774 204.482 317.876V287.656C204.454 285.732 206.133 284.164 208.225 284.164H268.698C270.762 284.164 272.469 285.732 272.469 287.629V317.876C272.469 319.774 270.762 321.341 268.698 321.341H244.482L243.39 332.011H250.559C251.66 332.011 252.513 332.89 252.513 333.963C252.513 335.063 251.632 335.915 250.559 335.915H219.869C218.768 335.915 217.914 335.035 217.914 333.963C217.859 332.89 218.768 332.011 219.869 332.011H225.476Z" fill="#474961"/>
<path fill-rule="evenodd" clip-rule="evenodd" d="M245.303 313.564L245.384 332.038H243.411L245.303 313.564Z" fill="white"/>
<path d="M274.32 332.21C277.314 329.288 283.426 326.997 293.525 332.77C295.065 333.622 294.503 336.299 292.796 336.294L275.201 336.175C273.878 336.184 273.322 333.193 274.32 332.21Z" fill="#474961"/>
<path d="M257.963 270.196H173.847C170.544 270.196 167.846 267.753 167.846 264.762V214.585C167.846 211.594 170.544 209.151 173.847 209.151H257.963C261.266 209.151 263.963 211.594 263.963 214.585V264.737C263.963 267.753 261.266 270.196 257.963 270.196Z" fill="#F2F6FB"/>
<path d="M167.874 208.822C167.874 205.784 170.339 203.322 173.379 203.322H258.43C261.471 203.322 263.936 205.786 263.936 208.822V215.145H167.874V208.822Z" fill="#E1E5F0"/>
<path d="M182.668 237.419H193.265C194.139 237.419 194.848 238.126 194.848 239C194.848 239.873 194.139 240.581 193.265 240.581H182.668C181.794 240.581 181.085 239.873 181.085 239C181.085 238.126 181.794 237.419 182.668 237.419ZM182.668 255.017H193.265C194.139 255.017 194.848 255.725 194.848 256.598C194.848 257.471 194.139 258.179 193.265 258.179H182.668C181.794 258.179 181.085 257.471 181.085 256.598C181.085 255.725 181.794 255.017 182.668 255.017ZM198.908 237.419H209.505C210.379 237.419 211.088 238.126 211.088 239C211.088 239.873 210.379 240.581 209.505 240.581H198.908C198.034 240.581 197.325 239.873 197.325 239C197.325 238.126 198.034 237.419 198.908 237.419ZM198.908 255.017H209.505C210.379 255.017 211.088 255.725 211.088 256.598C211.088 257.471 210.379 258.179 209.505 258.179H198.908C198.034 258.179 197.325 257.471 197.325 256.598C197.325 255.725 198.034 255.017 198.908 255.017ZM215.148 237.419H225.745C226.619 237.419 227.327 238.126 227.327 239C227.327 239.873 226.619 240.581 225.745 240.581H215.148C214.274 240.581 213.565 239.873 213.565 239C213.565 238.126 214.274 237.419 215.148 237.419ZM215.148 255.017H225.745C226.619 255.017 227.327 255.725 227.327 256.598C227.327 257.471 226.619 258.179 225.745 258.179H215.148C214.274 258.179 213.565 257.471 213.565 256.598C213.565 255.725 214.274 255.017 215.148 255.017ZM182.668 228.619H202.348C203.223 228.619 203.931 229.327 203.931 230.2C203.931 231.074 203.223 231.782 202.348 231.782H182.668C181.794 231.782 181.085 231.074 181.085 230.2C181.085 229.327 181.794 228.619 182.668 228.619ZM227.259 228.619H249.416C250.29 228.619 250.999 229.327 250.999 230.2C250.999 231.074 250.29 231.782 249.416 231.782H227.259C226.385 231.782 225.676 231.074 225.676 230.2C225.676 229.327 226.385 228.619 227.259 228.619ZM227.259 246.218H249.416C250.29 246.218 250.999 246.926 250.999 247.799C250.999 248.672 250.29 249.38 249.416 249.38H227.259C226.385 249.38 225.676 248.672 225.676 247.799C225.676 246.926 226.385 246.218 227.259 246.218ZM207.991 246.218H211.982C212.856 246.218 213.565 246.926 213.565 247.799C213.565 248.672 212.856 249.38 211.982 249.38H207.991C207.117 249.38 206.408 248.672 206.408 247.799C206.408 246.926 207.117 246.218 207.991 246.218ZM217.625 228.619H221.616C222.49 228.619 223.199 229.327 223.199 230.2C223.199 231.074 222.49 231.782 221.616 231.782H217.625C216.751 231.782 216.042 231.074 216.042 230.2C216.042 229.327 216.751 228.619 217.625 228.619ZM231.387 237.419H249.416C250.29 237.419 250.999 238.126 250.999 239C250.999 239.873 250.29 240.581 249.416 240.581H231.387C230.513 240.581 229.805 239.873 229.805 239C229.805 238.126 230.513 237.419 231.387 237.419Z" fill="#E1E5F0"/>
<path d="M182.668 246.218H202.348C203.223 246.218 203.931 246.926 203.931 247.799C203.931 248.672 203.223 249.38 202.348 249.38H182.668C181.794 249.38 181.085 248.672 181.085 247.799C181.085 246.926 181.794 246.218 182.668 246.218ZM217.625 246.218H221.616C222.49 246.218 223.199 246.926 223.199 247.799C223.199 248.672 222.49 249.38 221.616 249.38H217.625C216.751 249.38 216.042 248.672 216.042 247.799C216.042 246.926 216.751 246.218 217.625 246.218Z" fill="#8111FF"/>
<path d="M207.991 228.619H211.982C212.856 228.619 213.565 229.327 213.565 230.2C213.565 231.074 212.856 231.782 211.982 231.782H207.991C207.117 231.782 206.408 231.074 206.408 230.2C206.408 229.327 207.117 228.619 207.991 228.619ZM231.387 255.017H249.416C250.29 255.017 250.999 255.725 250.999 256.598C250.999 257.471 250.29 258.179 249.416 258.179H231.387C230.513 258.179 229.805 257.471 229.805 256.598C229.805 255.725 230.513 255.017 231.387 255.017Z" fill="#8111FF" fill-opacity="0.5"/>
<path d="M181.911 194.797H147.505C144.465 194.797 142 197.26 142 200.297V217.62C142 220.658 144.465 223.12 147.505 223.12H181.911C184.952 223.12 187.416 220.658 187.416 217.62V200.297C187.416 197.26 184.952 194.797 181.911 194.797Z" fill="#8111FF"/>
<path fill-rule="evenodd" clip-rule="evenodd" d="M157.754 201.635C158.23 202.226 158.137 203.092 157.544 203.568L149.971 209.655L157.8 213.94C158.467 214.305 158.711 215.14 158.346 215.806C157.98 216.472 157.144 216.716 156.477 216.351L146.844 211.079C146.441 210.858 146.174 210.451 146.134 209.994C146.094 209.537 146.284 209.09 146.642 208.802L155.819 201.426C156.411 200.95 157.277 201.043 157.754 201.635Z" fill="white"/>
<path fill-rule="evenodd" clip-rule="evenodd" d="M170.302 201.74C170.72 201.106 171.574 200.931 172.209 201.348L181.842 207.686C182.225 207.938 182.457 208.364 182.462 208.822C182.466 209.28 182.242 209.71 181.864 209.969L172.653 216.279C172.027 216.709 171.17 216.549 170.74 215.923C170.31 215.297 170.47 214.441 171.097 214.012L178.618 208.858L170.695 203.645C170.06 203.227 169.884 202.375 170.302 201.74Z" fill="white"/>
<path fill-rule="evenodd" clip-rule="evenodd" d="M166.591 198.509C167.332 198.677 167.796 199.414 167.628 200.154L163.435 218.581C163.267 219.321 162.529 219.785 161.788 219.617C161.047 219.448 160.583 218.712 160.751 217.971L164.944 199.545C165.112 198.804 165.85 198.341 166.591 198.509Z" fill="white"/>
<path d="M382.517 164H281.115C278.772 164 276.872 165.899 276.872 168.241V242.251C276.872 244.594 278.772 246.493 281.115 246.493H382.517C384.86 246.493 386.76 244.594 386.76 242.251V168.241C386.76 165.899 384.86 164 382.517 164Z" fill="#F2F6FB"/>
<path d="M293.394 240.075C287.901 240.075 283.448 235.577 283.448 230.03C283.448 224.482 287.901 219.985 293.394 219.985C298.888 219.985 303.341 224.482 303.341 230.03C303.341 235.577 298.888 240.075 293.394 240.075ZM293.416 229.988C294.15 229.988 294.745 229.394 294.745 228.663C294.745 227.931 294.15 227.338 293.416 227.338C292.682 227.338 292.087 227.931 292.087 228.663C292.087 229.394 292.682 229.988 293.416 229.988ZM293.416 230.65C292.086 230.65 291.008 231.725 291.008 233.051H295.825C295.825 231.725 294.746 230.65 293.416 230.65Z" fill="#D8DEED"/>
<path d="M283.449 181.815C283.449 181.345 283.827 180.965 284.297 180.965H354.521C354.99 180.965 355.37 181.345 355.37 181.815V212.191C355.37 212.661 354.991 213.041 354.521 213.041H284.297C283.828 213.041 283.449 212.661 283.449 212.191V181.815ZM310.051 228.159H365.788C366.655 228.159 367.358 228.861 367.358 229.728V230.575C367.358 231.442 366.655 232.145 365.788 232.145H310.051C309.184 232.145 308.481 231.442 308.481 230.575V229.728C308.481 228.861 309.184 228.159 310.051 228.159ZM310.051 234.636H375.767C376.635 234.636 377.337 235.339 377.337 236.205V237.052C377.337 237.919 376.635 238.622 375.767 238.622H310.051C309.184 238.622 308.481 237.919 308.481 237.052V236.205C308.481 235.339 309.184 234.636 310.051 234.636ZM310.051 221.681H351.817C352.684 221.681 353.387 222.384 353.387 223.251V224.098C353.387 224.965 352.684 225.667 351.817 225.667H310.051C309.184 225.667 308.481 224.965 308.481 224.098V223.251C308.481 222.384 309.184 221.681 310.051 221.681ZM276.872 168.242C276.872 165.899 278.772 164 281.117 164H382.728C385.072 164 386.972 165.899 386.972 168.242V173.331H276.872V168.242Z" fill="#E1E5F0"/>
<path d="M363.868 206.024H376.838C377.566 206.024 378.196 206.172 378.714 206.449C379.233 206.727 379.64 207.133 379.917 207.652C380.195 208.17 380.342 208.799 380.342 209.527V209.538C380.342 210.266 380.195 210.895 379.917 211.414C379.64 211.932 379.233 212.339 378.714 212.616C378.196 212.893 377.566 213.041 376.838 213.041H363.868C363.14 213.041 362.511 212.893 361.992 212.616C361.474 212.339 361.067 211.932 360.789 211.414C360.512 210.895 360.364 210.266 360.364 209.538V209.527C360.364 208.799 360.512 208.17 360.789 207.652C361.067 207.133 361.474 206.727 361.992 206.449C362.511 206.172 363.14 206.024 363.868 206.024Z" fill="#8111FF"/>
<path d="M283.131 170.786C284.244 170.786 285.146 169.884 285.146 168.771C285.146 167.659 284.244 166.757 283.131 166.757C282.018 166.757 281.115 167.659 281.115 168.771C281.115 169.884 282.018 170.786 283.131 170.786Z" fill="#FF5645"/>
<path d="M289.707 170.786C290.82 170.786 291.722 169.884 291.722 168.771C291.722 167.659 290.82 166.757 289.707 166.757C288.594 166.757 287.692 167.659 287.692 168.771C287.692 169.884 288.594 170.786 289.707 170.786Z" fill="#FFCB3D"/>
<path d="M296.495 170.786C297.608 170.786 298.51 169.884 298.51 168.771C298.51 167.659 297.608 166.757 296.495 166.757C295.382 166.757 294.48 167.659 294.48 168.771C294.48 169.884 295.382 170.786 296.495 170.786Z" fill="#3ABF7C"/>
<path d="M192.371 400.474V396.634V339.984H354.63C355.694 339.984 356.557 339.122 356.557 338.059C356.557 336.996 355.694 336.135 354.63 336.135H190.857C190.567 336.135 190.291 336.199 190.044 336.313C189.172 336.497 188.517 337.271 188.517 338.197V438.563C188.517 439.626 189.38 440.488 190.444 440.488C191.508 440.488 192.371 439.626 192.371 438.563V400.474Z" fill="#D8DEED"/>
</svg>
