<svg width="413" height="392" viewBox="0 0 413 392" fill="none" xmlns="http://www.w3.org/2000/svg">
<path fill-rule="evenodd" clip-rule="evenodd" d="M213.213 388.763C234.696 392.108 256.29 390.702 277.878 388.126C302.867 385.145 330.601 387.005 351.05 372.317C371.298 357.773 389 375.5 406 364.5C431.856 347.77 373.679 301.191 406 241.01C414.851 224.53 413.838 188.691 396.444 168.563C380.133 149.69 388.106 93.9119 368.5 78.5C330.745 96.5 305.248 104.388 294.704 88.589C277.892 63.3996 277.526 25.8444 252.313 9.09593C230.062 -5.68466 198.946 1.77841 172.902 7.67916C147.111 13.5228 121.376 24.3625 102.608 43.0152C84.2686 61.2414 75.5057 87 68.1372 111.798C61.7409 133.325 72.7614 158.439 62.3938 178.355C48.7575 204.55 0.170074 211.478 0.873777 241.01C1.54672 269.251 48.8659 271.949 65.1733 295.001C78.6151 314.002 67.8107 346.381 85.8293 361.1C104.209 376.115 132.745 364.105 155.927 369.139C175.82 373.459 193.1 385.631 213.213 388.763Z" fill="#8111FF" fill-opacity="0.05"/>
<path d="M354.448 300.87H377.803C378.512 300.87 379.132 300.279 379.132 299.571V299.423C379.132 298.714 378.512 298.124 377.744 298.124H356.102C342.992 298.124 329.883 298.124 316.803 298.124H296.725C296.017 298.124 295.397 298.714 295.397 299.423V299.571C295.397 300.279 295.987 300.87 296.725 300.87H325.218L317.364 315.278C311.783 325.553 306.203 335.799 300.593 346.074L291.352 363.021C291.027 363.612 291.293 364.38 291.913 364.734L292.031 364.793C292.651 365.118 293.448 364.941 293.743 364.38L328.318 300.87H351.348L385.922 364.38C386.218 364.941 387.015 365.147 387.635 364.793L387.753 364.734C388.373 364.38 388.639 363.612 388.314 363.021L379.072 346.074C373.492 335.799 367.912 325.553 362.302 315.278L354.448 300.87ZM379.043 289.299V272.132C379.043 259.039 379.043 245.976 379.043 232.913V217.312C379.043 214.866 377.06 212.883 374.614 212.883H326.428C323.982 212.883 321.999 214.866 321.999 217.312V289.35C321.999 291.796 323.982 293.779 326.428 293.779C326.43 293.779 326.431 293.779 326.433 293.779L374.619 293.728C377.063 293.726 379.043 291.744 379.043 289.299Z" fill="#D8DEED"/>
<path d="M284.126 117.575H211.788C208.527 117.575 205.883 120.219 205.883 123.48V202.904C205.883 206.166 208.527 208.81 211.788 208.81H284.126C287.387 208.81 290.031 206.166 290.031 202.904V123.48C290.031 120.219 287.387 117.575 284.126 117.575Z" fill="#E1E5F0"/>
<path d="M218.336 177.762H277.625C278.469 177.762 279.153 178.446 279.153 179.29C279.153 180.135 278.469 180.819 277.625 180.819H218.336C217.492 180.819 216.807 180.135 216.807 179.29C216.807 178.446 217.492 177.762 218.336 177.762ZM218.336 187.698H277.625C278.469 187.698 279.153 188.382 279.153 189.226C279.153 190.07 278.469 190.755 277.625 190.755H218.336C217.492 190.755 216.807 190.07 216.807 189.226C216.807 188.382 217.492 187.698 218.336 187.698ZM226.368 182.73H269.592C270.437 182.73 271.121 183.414 271.121 184.258C271.121 185.102 270.437 185.787 269.592 185.787H226.368C225.524 185.787 224.84 185.102 224.84 184.258C224.84 183.414 225.524 182.73 226.368 182.73ZM230.193 192.666H265.768C266.612 192.666 267.296 193.35 267.296 194.194C267.296 195.038 266.612 195.723 265.768 195.723H230.193C229.349 195.723 228.665 195.038 228.665 194.194C228.665 193.35 229.349 192.666 230.193 192.666Z" fill="#F2F6FB"/>
<path d="M247.789 149.431C253.493 149.431 258.116 144.811 258.116 139.113C258.116 133.414 253.493 128.795 247.789 128.795C242.086 128.795 237.462 133.414 237.462 139.113C237.462 144.811 242.086 149.431 247.789 149.431Z" fill="#8111FF"/>
<path d="M247.785 139.01C246.743 139.01 245.899 138.177 245.899 137.151C245.899 136.124 246.743 135.292 247.785 135.292C248.827 135.292 249.671 136.124 249.671 137.151C249.671 138.177 248.827 139.01 247.785 139.01ZM247.785 139.939C249.673 139.939 251.204 141.448 251.204 143.309H244.366C244.366 141.448 245.897 139.939 247.785 139.939Z" fill="#F2F6FB"/>
<path d="M258.957 158.221H236.622C235.777 158.221 235.093 158.905 235.093 159.749C235.093 160.594 235.777 161.278 236.622 161.278H258.957C259.801 161.278 260.485 160.594 260.485 159.749C260.485 158.905 259.801 158.221 258.957 158.221Z" fill="#F2F6FB"/>
<path d="M263.385 153.252H232.193C231.349 153.252 230.664 153.937 230.664 154.781C230.664 155.625 231.349 156.31 232.193 156.31H263.385C264.23 156.31 264.914 155.625 264.914 154.781C264.914 153.937 264.23 153.252 263.385 153.252Z" fill="#F2F6FB"/>
<path d="M267.385 363.524H314.301C315.039 363.524 315.63 362.934 315.63 362.195C315.63 361.457 315.039 360.867 314.301 360.867H267.385C266.647 360.867 266.056 361.457 266.056 362.195C266.056 362.934 266.647 363.524 267.385 363.524ZM353.747 363.524C354.486 363.524 355.076 363.013 355.076 362.4V361.991C355.076 361.378 354.456 360.867 353.747 360.867H323.484C322.746 360.867 322.155 361.378 322.155 361.991V362.4C322.155 363.013 322.775 363.524 323.484 363.524H353.747Z" fill="#8111FF"/>
<path d="M266.943 360.963C267.097 360.901 267.266 360.867 267.444 360.867H314.36C314.549 360.867 314.728 360.905 314.89 360.975C314.929 360.841 314.951 360.699 314.951 360.551L313.947 342.561L293.633 342.266C293.308 342.266 293.013 342.355 292.747 342.565C289.381 346.216 286.163 348.251 283.83 349.448C282.029 350.376 276.006 352.95 273.29 354.207C272.454 354.585 271.218 355.264 269.58 356.244C269.191 356.477 268.84 356.769 268.54 357.108C267.691 358.066 267.158 358.925 266.942 359.684C266.883 359.863 266.883 360.013 266.853 360.192C266.824 360.342 266.853 360.492 266.853 360.641V360.671C266.874 360.773 266.905 360.87 266.943 360.963ZM322.909 361.003C323.097 360.916 323.313 360.867 323.543 360.867H353.367L346.425 342.561L325.314 345.513L322.909 361.003Z" fill="#474961"/>
<path d="M315.927 290.903C316.778 291.326 317.573 291.722 318.311 292.089L318.464 294.425C318.641 297.492 318.848 300.185 319.084 302.559C319.261 304.426 321.535 325.574 322.362 333.335C322.539 335.095 323.808 336.588 325.55 337.068C328.178 337.815 329.861 338.242 336.682 338.482C337.125 338.508 337.567 338.482 337.981 338.455C344.595 337.922 347.901 336.962 348.64 336.642C349.584 336.242 350.086 336.055 350.588 335.602C352.36 334.055 352.242 331.601 352.271 330.694C352.421 324.916 352.822 309.356 352.944 295.969C353.122 295.97 353.302 295.97 353.482 295.971C355.162 295.971 356.778 295.262 358.268 294.022C360.17 292.428 366.857 287.155 367.271 276.061C367.56 268.343 366.216 262.481 363.24 258.473C363.24 258.444 359.535 252.598 357.284 252.598H324.135C321.832 252.676 311.546 252.943 293.279 253.397L293.29 253.468C293.188 253.466 293.086 253.463 292.984 253.461C285.514 253.324 279.461 259.28 279.638 266.553C279.638 266.608 279.638 266.635 279.638 266.69C280.11 289.251 285.632 321.39 286.016 332.259C286.045 332.671 286.163 333.577 286.783 334.537C288.702 337.474 293.19 336.815 303.672 337.062C312.589 337.282 316.191 337.941 318.021 335.525C319.025 334.208 318.996 332.698 318.966 332.012C318.236 318.242 317.173 304.343 315.927 290.903Z" fill="#1B212C"/>
<path opacity="0.176986" d="M315.99 290.844C316.842 291.268 317.637 291.663 318.375 292.031L317.021 271.344C316.992 270.144 316.844 262.89 322.72 258.277C327.001 254.943 332.198 254.73 335.652 254.596C340.967 254.383 345.1 255.77 345.897 256.036C346.901 256.383 347.403 256.57 347.905 256.81C353.633 259.583 353.19 272.918 353.131 275.345C353.072 278.411 353.043 283.185 353.043 288.732C353.043 290.989 353.03 293.396 353.007 295.879C353.165 295.88 353.323 295.88 353.482 295.881C355.162 295.881 356.778 295.172 358.268 293.932C360.17 292.337 366.857 287.065 367.271 275.971C367.56 268.253 366.216 262.39 363.24 258.383C363.24 258.353 359.535 252.507 357.284 252.507H324.135C321.891 252.584 311.821 252.887 293.925 253.415C296.106 253.463 298.27 253.512 300.457 253.56C307.101 253.725 312.622 258.638 313.331 265.06C314.269 273.343 315.169 281.994 315.99 290.844Z" fill="#444444"/>
<path d="M315.795 218.496C311.455 215.248 300.235 206.42 300.235 206.42C296.574 209.727 305.373 215.661 305.373 215.661" fill="#482D1F"/>
<path d="M295.763 205.165C297.965 201.486 297.334 196.646 294.028 193.669C290.271 190.287 284.484 190.59 281.101 194.347C277.719 198.104 278.022 203.891 281.779 207.273C285.007 210.18 289.735 210.365 293.148 207.975L303.635 217.417C303.877 217.636 304.251 217.616 304.469 217.374L306.247 215.399C306.465 215.157 306.446 214.783 306.203 214.565L295.763 205.165ZM292.511 204.62C290.22 207.165 286.299 207.371 283.754 205.079C281.21 202.788 281.004 198.867 283.295 196.323C285.587 193.778 289.507 193.572 292.052 195.864C294.597 198.155 294.802 202.075 292.511 204.62Z" fill="#474961"/>
<path d="M322.266 208.812C321.823 209.972 321.464 211.164 321.189 212.387C319.556 219.66 316.887 223.942 318.725 227.423C319.811 229.477 321.895 230.093 323.512 230.265L324.622 244.144C325.063 247.901 325.357 249.992 325.505 250.416C325.477 253.89 329.841 253.006 337.966 253.006C347.419 253.006 360.03 254.278 360.782 250.78C361.459 247.627 361.297 241.014 360.294 230.941C363.579 230.081 365.996 228.596 366.612 227.393C368.346 224.053 366.356 218.655 364.139 212.597C361.467 205.335 360.017 201.762 356.748 198.81C354.041 196.372 351.082 195.53 348.59 196C346.578 195.191 344.368 194.832 342.084 195.033L335.613 195.604C328.72 196.161 323.38 201.927 322.266 208.812Z" fill="#8111FF"/>
<path opacity="0.176986" d="M322.063 209.243C321.683 210.287 321.37 211.355 321.124 212.449C319.491 219.722 316.822 224.004 318.66 227.485C319.732 229.514 321.78 230.139 323.387 230.321L323.317 229.439L323.296 229.145L322.013 213.341L321.976 212.81C321.875 211.605 321.909 210.409 322.063 209.243Z" fill="#444444"/>
<path d="M344.871 195.157C344.36 193.442 343.625 190.607 342.666 186.653L342.582 184.989C342.641 184.664 342.696 184.654 342.991 184.565C343.759 184.359 344.172 183.86 344.703 183.27C345.677 182.148 345.943 180.494 345.471 178.989C344.88 177.542 343.345 176.449 341.928 176.567C341.396 176.627 340.894 176.833 340.422 177.128L340.392 177.158C340.245 177.306 340.038 177.335 339.831 177.365C339.329 177.365 338.916 177.01 338.886 176.508L338.621 168.802C338.621 168.3 338.237 167.946 337.735 167.946C336.642 167.946 335.58 167.887 334.487 167.651C334.339 167.651 334.221 167.621 334.103 167.621C333.04 167.503 327.342 167.149 324.271 171.371C324.005 171.784 323.74 172.198 323.533 172.611C323.002 173.674 322.765 174.855 322.854 176.095L323.179 181.469C323.238 182 323.297 182.532 323.415 183.093C324.832 189.736 327.844 194.342 330.383 194.49C331.682 194.519 332.981 194.371 334.251 193.988C334.409 193.909 334.309 193.97 336.083 193.253L336.445 195.207C332.92 195.781 330.959 196.903 330.743 197.013C331.372 197.706 331.459 197.939 332.001 198.378C338.066 203.278 347.91 196.825 349.152 195.999C347.639 195.609 346.211 195.336 344.871 195.157ZM318.971 235.841L318.497 239.234L295.053 243.659C294.36 243.54 293.691 243.474 293.046 243.455C290.826 243.363 288.915 243.794 287.62 244.132C284.382 243.978 281.176 243.794 277.97 243.64C275.349 243.024 269.491 242.101 269.306 245.794C269.306 245.794 271.834 246.471 275.256 247.363C276.057 247.572 276.907 247.793 277.786 248.022C282.325 249.589 288.262 252.82 291.682 253.916L326.71 252.694C326.181 252.044 325.787 251.308 325.552 250.479C325.404 250.055 325.109 247.964 324.669 244.206L324.246 238.914C330.643 242.551 336.584 245.594 342.068 248.044C345.392 249.528 349.454 250.692 352.714 251.806C360.31 253.352 361.744 250.617 362.612 249.72C363.621 248.676 366.984 245.711 365.469 228.691C362.717 230.759 356.142 232.772 349.58 230.989C347.884 230.528 346.369 230.093 345.034 229.683L345.141 230.71L310.068 215.989C309.984 215.924 309.893 215.866 309.794 215.817L299.667 211.004C298.899 210.65 297.954 210.974 297.57 211.742L297.216 212.421C296.856 213.168 297.145 214.019 297.815 214.439C297.102 214.289 296.395 214.625 296.094 215.303L295.74 215.982C295.438 216.609 295.592 217.308 296.045 217.765C295.659 217.882 295.313 218.144 295.101 218.532L294.711 219.192C294.286 219.968 294.592 220.9 295.339 221.324L300.626 224.184C307.085 228.518 313.2 232.404 318.971 235.841ZM293.489 336.898V342.266L313.947 342.561L313.821 337.26C311.558 337.409 308.346 337.174 303.678 337.059C299.333 336.956 296.018 337.009 293.489 336.898ZM325.894 337.16L325.314 345.513L346.425 342.561L345.604 337.448C343.854 337.799 341.347 338.18 337.987 338.451C337.573 338.478 337.13 338.505 336.687 338.478C330.163 338.248 328.34 337.848 325.894 337.16Z" fill="#BF865F"/>
<path d="M343.474 189.832C343.816 191.353 344.119 192.612 344.329 193.251C344.796 193.251 345.264 193.251 345.734 193.251C346.44 193.251 348.991 192.983 351.374 192.838C351.374 192.838 351.551 192.838 351.698 192.808C352.466 192.69 353.204 192.572 353.942 192.188C353.942 192.188 354.179 192.1 354.385 191.923C358.548 188.498 359.464 183.596 357.692 180.85C356.423 178.931 353.942 178.193 353.588 178.075C353.116 177.927 352.643 177.868 352.23 177.839C352.069 177.355 351.907 176.846 351.746 176.336C351.703 174.612 351.32 172.322 349.809 170.428C349.189 169.631 348.362 169.04 347.476 168.597C345.114 167.416 343.313 168.007 338.648 167.889C337.703 167.889 334.442 167.473 334.324 167.473C329.514 167.169 326.151 168.498 324.234 171.461C325.655 171.245 326.808 171.245 327.694 171.461C333.422 172.878 335.105 182.799 337.733 182.386C337.758 182.383 337.784 182.378 337.813 182.372L337.792 182.356L339.061 178.872C339.357 178.164 339.859 177.603 340.449 177.13C340.922 176.835 341.424 176.628 341.955 176.569C343.372 176.451 344.908 177.544 345.498 178.99C345.594 179.238 345.666 179.491 345.714 179.746C345.878 180.999 345.555 182.268 344.76 183.183C344.715 183.232 344.67 183.281 344.623 183.329C344.621 183.332 344.619 183.335 344.617 183.338C343.998 183.976 343.194 184.414 342.315 184.588C342.68 186.547 343.259 189.104 343.474 189.832ZM327.399 179.817C327.989 179.965 328.964 180.112 329.761 179.906C331.149 179.61 329.849 178.784 328.58 178.725C327.989 178.695 327.517 178.931 327.222 179.167C327.015 179.374 327.104 179.758 327.399 179.817ZM322.412 179.818C323.018 179.972 323.953 180.157 324.793 179.935C326.217 179.603 324.899 178.77 323.651 178.731C322.996 178.7 322.573 178.944 322.267 179.178C322.018 179.378 322.11 179.755 322.412 179.818Z" fill="#482D1F"/>
<path opacity="0.2" d="M319.482 235.938C319.338 235.853 319.193 235.769 319.048 235.684L318.552 239.177L295.112 243.573C294.419 243.453 293.749 243.388 293.103 243.369C290.883 243.276 288.971 243.707 287.677 244.046C284.439 243.892 281.233 243.707 278.026 243.553C275.406 242.938 269.548 242.014 269.363 245.707C269.363 245.707 271.891 246.384 275.313 247.277C276.114 247.486 276.964 247.707 277.843 247.935C282.381 249.502 288.319 252.733 291.739 253.829L326.767 252.607C326.238 251.958 325.844 251.222 325.609 250.392C325.461 249.968 325.166 247.878 324.726 244.12L324.329 239.159L324.301 239.046L324.32 239.042L324.302 238.827L319.482 235.938Z" fill="#8C2A00"/>
<path d="M256.058 234.893C255.79 235.799 256.29 236.732 257.196 237L297.767 249.466C298.674 249.734 299.607 249.235 299.875 248.329C300.143 247.422 299.644 246.489 298.737 246.221L258.166 233.755C257.289 233.488 256.326 233.986 256.058 234.893Z" fill="#474961"/>
<path d="M336.152 193.13L338.466 192.095L336.587 195.544L336.152 193.13Z" fill="#482D1F"/>
<path d="M324.564 183.419C324.83 183.065 324.742 182.268 324.653 181.736C324.624 181.352 324.269 181.116 323.944 181.116C323.738 181.146 323.472 181.264 323.413 181.677C323.206 182.652 324.21 184.01 324.564 183.419ZM329.436 183.449C329.731 183.094 329.613 182.268 329.525 181.766C329.495 181.382 329.141 181.146 328.816 181.146C328.61 181.175 328.344 181.293 328.285 181.707C328.078 182.681 329.052 184.039 329.436 183.449Z" fill="#482D1F"/>
<path d="M325.079 182.928L324.815 181.209C324.79 181.048 324.901 180.897 325.062 180.872C325.223 180.848 325.374 180.958 325.398 181.119L325.665 182.857L325.668 182.894L325.752 186.022C325.764 186.057 325.792 186.079 325.831 186.082C326.188 186.037 326.648 185.994 327.212 185.954C327.374 185.942 327.516 186.064 327.527 186.227C327.539 186.389 327.417 186.531 327.254 186.543C326.689 186.583 326.232 186.626 325.885 186.671L325.852 186.673C325.508 186.679 325.228 186.439 325.168 186.114L325.163 186.068L325.079 182.928Z" fill="#482D1F"/>
<path d="M327.458 188.94C327.665 188.911 328.196 188.793 328.314 188.468C328.314 188.409 328.373 188.32 328.344 188.261C328.255 188.114 327.34 188.114 327.34 188.114C326.129 188.143 325.834 188.084 325.745 188.232C325.716 188.32 325.716 188.439 325.923 188.704C326.188 189.206 327.163 189.029 327.458 188.94Z" fill="#482D1F"/>
<path d="M345.346 229.291L343.729 214.365C343.703 214.121 343.879 213.903 344.122 213.877C344.365 213.85 344.583 214.026 344.61 214.269L346.226 229.195C346.253 229.438 346.077 229.657 345.834 229.683C345.591 229.709 345.372 229.534 345.346 229.291Z" fill="#482D1F"/>
<path d="M119.028 298.137V298.192C119.028 298.901 119.648 299.491 120.357 299.491H142.649L134.795 313.9C129.185 324.175 123.605 334.42 118.025 344.695L108.783 361.643C108.458 362.233 108.724 363.001 109.344 363.355L109.462 363.414C110.082 363.769 110.879 363.562 111.175 363.001L145.749 299.491H168.779L203.354 363.001C203.649 363.562 204.446 363.739 205.066 363.414L205.184 363.355C205.804 363.001 206.07 362.233 205.745 361.643L196.504 344.695C190.894 334.42 185.314 324.175 179.733 313.9L171.879 299.491H201.435C202.173 299.491 202.763 298.901 202.763 298.192V298.044C202.763 297.336 202.143 296.745 201.435 296.745H181.357C168.277 296.745 155.168 296.745 142.058 296.745H121.635L119.147 276.609C117.434 262.909 115.751 249.179 114.039 235.45L111.234 212.774C111.145 211.977 110.466 211.387 109.728 211.475L109.58 211.505C108.872 211.593 108.37 212.331 108.458 213.069L118.999 297.985C119.007 298.037 119.016 298.088 119.028 298.137Z" fill="#D8DEED"/>
<path d="M213.227 360.866H172.27C171.523 360.866 170.925 361.457 170.925 362.195C170.925 362.933 171.523 363.524 172.27 363.524H219.773H253.597C254.335 363.524 254.925 362.933 254.925 362.195C254.925 361.457 254.335 360.866 253.597 360.866H213.227Z" fill="#8111FF" fill-opacity="0.5"/>
<path d="M253.994 360.895C254.054 360.776 254.1 360.648 254.128 360.512V360.482C254.128 360.335 254.158 360.187 254.128 360.04C254.099 359.862 254.099 359.715 254.04 359.538C253.656 358.209 252.622 357.087 251.943 356.467C251.855 356.378 251.796 356.349 251.707 356.29C250.408 355.493 249.079 354.754 247.692 354.134C244.975 352.894 238.952 350.355 237.151 349.44C234.818 348.259 231.6 346.251 228.234 342.649C227.968 342.442 227.673 342.354 227.348 342.354L207.064 342.472C206.208 342.472 205.529 343.18 205.588 344.066L205.779 351.099C204.92 350.693 204.047 350.244 203.064 349.676C201.668 348.879 199.707 347.58 197.509 345.631C196.291 344.568 195.043 343.505 193.825 342.442L175.437 342.206L171.596 361.118C171.818 360.96 172.091 360.866 172.388 360.866H213.345H253.715C253.811 360.866 253.904 360.876 253.994 360.895Z" fill="#474961"/>
<path opacity="0.176986" d="M219.465 360.866H253.67C253.746 360.731 253.803 360.583 253.836 360.423V360.394C253.836 360.246 253.866 360.099 253.836 359.951C253.807 359.774 253.807 359.626 253.748 359.449C253.364 358.12 252.331 356.998 251.652 356.378C251.563 356.29 251.504 356.26 251.415 356.201C250.116 355.404 248.788 354.666 247.4 354.046C244.683 352.806 238.66 350.267 236.859 349.351C234.527 348.17 231.308 346.163 227.942 342.56C227.677 342.354 227.381 342.265 227.057 342.265L206.772 342.383C205.916 342.383 205.525 343.005 205.584 343.891L205.783 351.251C207.815 352.191 209.844 352.945 213.15 354.518C214.567 355.197 215.925 355.965 217.254 356.821C217.904 357.412 219.026 358.622 219.38 360.04C219.439 360.276 219.439 360.512 219.469 360.719C219.469 360.768 219.467 360.818 219.464 360.866H219.465Z" fill="#444444"/>
<path d="M209.673 346.465C209.775 346.477 209.877 346.483 209.981 346.483L229.154 346.277H230.704C232.227 346.277 233.514 345.102 233.593 343.362C233.777 339.852 234.013 335.231 234.302 329.891C235.09 316.419 235.51 312.129 235.983 301.747C236.062 300.007 236.141 298.447 236.193 296.977C236.403 289.986 236.955 283.445 238.032 274.894C238.636 270.153 238.925 267.213 238.951 264.723C238.977 262.413 238.373 260.132 237.218 258.242C236.64 257.312 235.983 256.502 235.195 255.812C233.173 254.042 230.468 252.541 228.314 252.691C222.732 252.718 217.15 252.721 211.567 252.741C210.398 252.464 209.094 252.327 207.654 252.33L204.855 252.359C204.871 252.326 193.085 252.263 169.496 252.172C162.189 246.436 154.115 244.031 145.274 244.957C141.746 245.326 138.549 246.333 135.683 247.978C132.52 249.768 129.757 252.331 127.396 255.666C125.941 257.188 121.571 264.136 122.439 274.718C122.606 276.667 122.97 281.007 125.322 285.141C127.785 289.451 130.808 292.611 135.875 294.412C140.354 296.006 145.589 296.567 151.019 295.947C158.671 294.49 167.52 293.28 177.568 292.315C174.854 299.74 173.097 304.408 172.294 306.317C171.09 309.152 167.823 321.389 166.595 330.764C165.995 335.349 166.205 339.403 167.224 342.926C167.846 345.075 169.814 346.553 172.051 346.55L197.18 346.524L208.461 346.465H209.673Z" fill="#757575"/>
<path opacity="0.176986" d="M211.16 252.743C213.65 253.274 215.551 254.419 216.861 256.176C219.689 259.969 218.874 263.616 218.874 265.86V266.008C218.846 268.459 218.539 271.352 217.923 276.017C216.775 284.432 216.187 290.839 215.963 297.748C215.907 299.165 215.823 300.73 215.739 302.443C215.263 312.629 214.788 316.851 213.948 330.138C213.612 335.393 213.36 339.911 213.192 343.395C213.108 345.107 211.736 346.466 210.113 346.466H209.665C209.769 346.48 209.874 346.487 209.981 346.487L229.154 346.278H230.704C232.227 346.278 233.593 345.016 233.593 343.077C233.777 339.578 234.013 334.972 234.302 329.648C235.09 316.219 235.51 311.942 235.983 301.593C236.062 299.858 236.141 298.303 236.193 296.838C236.403 289.869 236.955 283.348 238.032 274.824C238.636 270.099 238.925 267.168 238.951 264.685C238.977 262.382 238.373 260.109 237.218 258.225C236.64 257.298 235.983 256.49 235.195 255.802C233.173 254.037 230.468 252.542 228.314 252.691C222.596 252.718 216.878 252.721 211.16 252.743Z" fill="#444444"/>
<path d="M165.38 198.346C167.948 200.35 170.023 203.433 170.412 204.564C173.636 213.941 177.519 213.57 177.829 215.601C178.293 218.64 174.735 219.01 174.735 219.01C173.083 219.168 171.827 219.289 170.967 219.372L170.762 227.759L170.743 228.055L170.4 242.751L170.322 245.619C170.331 245.855 170.308 246.063 170.287 246.3C170.267 246.566 170.246 246.803 170.225 247.07C170.161 247.752 170.036 248.406 169.852 249.063C169.773 249.331 169.723 249.599 169.614 249.869C145.044 250.727 132.684 249.011 132.534 244.723L133.147 219.126L129.42 219C129.42 219 125.37 218.727 125.833 215.67C126.142 213.627 130.583 213.793 134.057 204.267C134.534 202.959 137.45 199.012 140.895 196.98C141.004 196.916 141.114 196.854 141.224 196.793C143.576 195.465 146.305 194.734 149.197 194.803L155.998 194.979C159.563 195.05 162.811 196.3 165.38 198.346Z" fill="#8111FF" fill-opacity="0.5"/>
<path opacity="0.176986" d="M168.577 201.591C169.552 202.836 170.231 203.983 170.437 204.582C173.661 213.959 177.519 213.57 177.829 215.601C178.293 218.64 174.778 219 174.778 219L171.063 219.36L171.261 211.244L171.272 210.712C171.365 207.331 170.36 204.178 168.577 201.591Z" fill="#444444"/>
<path d="M151.774 182.639C151.72 182.59 151.668 182.538 151.616 182.484C150.68 181.499 150.133 179.933 150.649 178.419C151.129 176.96 152.56 175.779 153.979 175.838C154.778 175.863 156.923 176.354 156.909 175.642L156.753 168.111C156.744 167.637 157.113 167.232 157.589 167.222C158.633 167.184 159.656 167.054 160.756 166.755C160.876 166.738 160.997 166.721 161.118 166.704C162.114 166.542 167.709 165.856 170.915 169.802C171.207 170.128 171.463 170.51 171.714 170.95C172.29 171.958 172.584 173.113 172.578 174.295L172.557 179.56C172.531 180.089 172.505 180.619 172.42 181.143C171.403 187.693 168.688 192.32 166.225 192.595C165.922 192.652 164.338 192.752 162.454 192.318C162.282 192.271 162.419 192.343 159.962 191.48L159.557 195.475C158.384 195.169 157.155 194.995 155.887 194.97L150.814 194.839L151.455 188.763L151.733 186.129L151.774 182.639ZM170.456 239.569L170.705 228.978L170.731 227.984L170.746 227.756L170.864 222.897L170.957 219.38L173.358 219.149L181.643 241.697C182.417 241.843 183.314 242.026 184.363 242.249C186.053 242.24 187.451 242.279 188.559 242.365C193.044 242.716 196.898 242.862 201.41 245.544C209.636 250.432 210.277 252.682 203.334 252.295L189.173 252.213C188.996 252.278 188.82 252.319 188.644 252.335C188.644 252.335 167.949 252.152 126.559 251.788C124.894 251.773 123.331 250.986 122.328 249.657C121.846 249.017 121.496 247.848 121.278 246.148C120.602 242.561 122.534 237.424 126.204 227.445C127.371 224.281 128.477 221.405 129.517 218.849L152.396 219.715C150.631 224.099 147.518 234.527 146.636 236.125C146.634 236.126 146.632 236.127 146.63 236.128C153.218 237.016 161.112 238.116 170.456 239.569Z" fill="#F2A98A"/>
<path d="M159.744 193.668L157 190.189L159.972 191.479L159.744 193.668Z" fill="#482D1F"/>
<path d="M157.379 178.004C157.258 177.785 156.795 177.019 155.951 176.426C155.869 176.358 155.227 175.964 154.428 175.94C153.01 175.88 151.579 177.065 151.098 178.529C150.582 180.048 151.1 181.617 152.035 182.606C152.758 183.369 153.634 183.671 154.171 183.801C154.165 184.804 154.186 185.894 154.233 187.07C151.943 186.92 149.926 185.922 148.18 184.076C147.458 183.317 145.541 181.216 144.944 177.858C144.876 177.431 144.74 176.615 144.728 175.604C140.184 175.679 136.51 173.65 135.159 170.77C133.9 168.059 134.774 164.813 134.898 164.353C136.144 159.728 140.341 159.781 140.7 159.772C140.7 159.772 146.75 157.67 151.532 167.347C151.535 167.353 151.538 167.359 151.541 167.365C152.912 167.258 154.575 167.355 157.108 167.202C158.034 167.15 159.384 166.924 161.043 166.683C161.16 166.695 162.578 166.551 162.698 166.534C163.297 166.534 165.304 166.345 167.9 167.507C170.495 168.669 171.453 170.417 171.414 170.49C171.34 170.631 170.015 171.23 169.224 171.414C167.003 171.923 165.074 171.631 163.889 171.328C163.577 172.038 163.135 172.852 162.546 173.651C160.842 176.025 158.694 177.254 157.354 177.856C157.362 177.905 157.371 177.954 157.379 178.004Z" fill="#482D1F"/>
<path d="M170.627 179.276C170.661 178.872 170.983 178.572 171.388 178.574C171.636 178.557 171.866 178.726 171.99 179.15C172.249 180.183 171.266 181.734 170.818 181.117C170.542 180.734 170.603 179.834 170.627 179.276ZM164.106 179.14C164.14 178.736 164.462 178.436 164.867 178.438C165.115 178.421 165.345 178.59 165.468 179.014C165.728 180.047 164.745 181.598 164.297 180.981C164.021 180.599 164.082 179.698 164.106 179.14Z" fill="#482D1F"/>
<path d="M169.112 179.592L169.577 182.429C169.603 182.79 169.352 183.141 169.008 183.165C168.805 183.195 168.675 183.205 168.15 183.231C167.915 183.244 167.754 183.253 167.564 183.266C167.402 183.277 167.261 183.155 167.249 182.992C167.238 182.829 167.361 182.688 167.523 182.677C167.717 182.663 167.881 182.654 168.119 182.642C168.623 182.616 168.746 182.607 168.945 182.578C168.958 182.577 168.993 182.528 168.991 182.497L168.529 179.687C168.503 179.526 168.612 179.374 168.773 179.348C168.934 179.322 169.085 179.431 169.112 179.592Z" fill="#482D1F"/>
<path d="M167.251 185.075C167.05 185.024 166.557 184.832 166.479 184.514C166.474 184.449 166.439 184.355 166.465 184.32C166.566 184.152 166.94 184.255 167.452 184.316C168.362 184.415 169.119 184.362 169.119 184.362C169.119 184.362 168.905 184.927 168.776 185.098C168.494 185.506 167.569 185.182 167.251 185.075Z" fill="#482D1F"/>
<path d="M159.678 177.908C160.206 176.393 161.594 175.261 163.295 175.142C165.573 174.983 167.548 176.7 167.707 178.977C167.709 179.01 167.711 179.043 167.713 179.076C167.75 179.069 167.789 179.066 167.828 179.069L168.66 179.127C168.842 177.145 170.438 175.531 172.488 175.387C174.765 175.228 176.74 176.945 176.9 179.222C177.059 181.5 175.342 183.475 173.064 183.634C170.86 183.788 168.939 182.184 168.673 180.016L167.767 179.953C167.731 179.95 167.697 179.943 167.664 179.933C167.363 181.783 165.823 183.253 163.872 183.389C161.595 183.548 159.619 181.831 159.46 179.554C159.442 179.288 159.448 179.026 159.479 178.771L157.329 178.243C157.092 178.185 156.946 177.945 157.005 177.708C157.063 177.47 157.303 177.325 157.54 177.383L159.678 177.908ZM169.531 179.647C169.532 179.677 169.534 179.707 169.536 179.737C169.661 181.527 171.213 182.876 173.003 182.751C174.792 182.626 176.141 181.074 176.016 179.284C175.891 177.495 174.339 176.146 172.55 176.271C170.829 176.391 169.515 177.831 169.528 179.532C169.533 179.565 169.535 179.598 169.532 179.632C169.532 179.637 169.532 179.642 169.531 179.647ZM163.81 182.506C165.6 182.38 166.949 180.828 166.824 179.039C166.698 177.25 165.146 175.901 163.357 176.026C161.568 176.151 160.219 177.703 160.344 179.492C160.469 181.282 162.021 182.631 163.81 182.506Z" fill="#482D1F"/>
<path d="M143.309 238.645C143.094 238.762 142.825 238.683 142.708 238.468C142.591 238.253 142.67 237.984 142.885 237.867L146.575 235.853C146.79 235.736 147.059 235.815 147.176 236.029C147.294 236.244 147.215 236.513 147 236.63L143.309 238.645ZM152.687 220.031C152.591 220.256 152.331 220.361 152.106 220.265C151.881 220.17 151.776 219.91 151.871 219.685L155.826 210.364C155.921 210.139 156.181 210.034 156.406 210.13C156.631 210.225 156.737 210.485 156.641 210.71L152.687 220.031Z" fill="#482D1F"/>
<path opacity="0.2" d="M170.452 239.655L170.723 228.083L170.742 227.786L170.947 219.376L173.35 219.144L181.618 241.752L170.452 239.655Z" fill="#8C2A00"/>
<path d="M178.005 292.554L186.57 283.567C186.738 283.39 186.732 283.109 186.554 282.941C186.377 282.772 186.097 282.779 185.928 282.956L177.364 291.943C177.195 292.12 177.202 292.4 177.379 292.569C177.556 292.738 177.836 292.731 178.005 292.554Z" fill="#482D1F"/>
<path d="M363.55 251.64H127.05C125.908 251.64 124.983 252.654 124.983 253.905C124.983 255.157 125.908 256.171 127.05 256.171H363.55C364.692 256.171 365.617 255.157 365.617 253.905C365.617 252.654 364.692 251.64 363.55 251.64Z" fill="#D8DEED"/>
<path d="M376.128 67.3813H276.862C274.514 67.3813 272.611 69.2844 272.611 71.6318V145.803C272.611 148.15 274.514 150.053 276.862 150.053H376.128C378.476 150.053 380.38 148.15 380.38 145.803V71.6318C380.38 69.2844 378.476 67.3813 376.128 67.3813Z" fill="#F2F6FB"/>
<path d="M280.05 95.1758H318.143C318.73 95.1758 319.206 95.6515 319.206 96.2384V98.1146C319.206 98.7015 318.73 99.1772 318.143 99.1772H280.05C279.463 99.1772 278.988 98.7015 278.988 98.1146V96.2384C278.988 95.6515 279.463 95.1758 280.05 95.1758ZM280.05 101.678H323.17C323.757 101.678 324.233 102.154 324.233 102.741V104.617C324.233 105.204 323.757 105.68 323.17 105.68H280.05C279.463 105.68 278.988 105.204 278.988 104.617V102.741C278.988 102.154 279.463 101.678 280.05 101.678ZM280.05 114.683H328.197C328.784 114.683 329.26 115.159 329.26 115.746V117.622C329.26 118.209 328.784 118.684 328.197 118.684H280.05C279.463 118.684 278.988 118.209 278.988 117.622V115.746C278.988 115.159 279.463 114.683 280.05 114.683ZM280.05 121.185H313.115C313.702 121.185 314.178 121.661 314.178 122.248V124.124C314.178 124.711 313.702 125.187 313.115 125.187H280.05C279.463 125.187 278.988 124.711 278.988 124.124V122.248C278.988 121.661 279.463 121.185 280.05 121.185ZM280.05 127.688H323.17C323.757 127.688 324.233 128.163 324.233 128.75V130.627C324.233 131.213 323.757 131.689 323.17 131.689H280.05C279.463 131.689 278.988 131.213 278.988 130.627V128.75C278.988 128.163 279.463 127.688 280.05 127.688ZM280.05 134.19H328.197C328.784 134.19 329.26 134.666 329.26 135.253V137.129C329.26 137.716 328.784 138.192 328.197 138.192H280.05C279.463 138.192 278.988 137.716 278.988 137.129V135.253C278.988 134.666 279.463 134.19 280.05 134.19Z" fill="#E1E5F0"/>
<path d="M328.197 88.8462H280.05C279.463 88.8462 278.988 89.3219 278.988 89.9088V91.5067C278.988 92.0936 279.463 92.5694 280.05 92.5694H328.197C328.784 92.5694 329.26 92.0936 329.26 91.5067V89.9088C329.26 89.3219 328.784 88.8462 328.197 88.8462Z" fill="#D8DEED"/>
<path d="M342.239 95.1758H375.491C376.078 95.1758 376.553 95.6515 376.553 96.2384V98.169C376.553 98.7559 376.078 99.2317 375.491 99.2317H342.239C341.652 99.2317 341.176 98.7559 341.176 98.169V96.2384C341.176 95.6515 341.652 95.1758 342.239 95.1758ZM342.239 101.767H365.383C365.97 101.767 366.446 102.242 366.446 102.829V104.76C366.446 105.347 365.97 105.822 365.383 105.822H342.239C341.652 105.822 341.176 105.347 341.176 104.76V102.829C341.176 102.242 341.652 101.767 342.239 101.767ZM342.239 108.357H370.437C371.024 108.357 371.5 108.833 371.5 109.42V111.351C371.5 111.938 371.024 112.413 370.437 112.413H342.239C341.652 112.413 341.176 111.938 341.176 111.351V109.42C341.176 108.833 341.652 108.357 342.239 108.357ZM342.239 114.948H360.329C360.916 114.948 361.392 115.424 361.392 116.011V117.941C361.392 118.528 360.916 119.004 360.329 119.004H342.239C341.652 119.004 341.176 118.528 341.176 117.941V116.011C341.176 115.424 341.652 114.948 342.239 114.948Z" fill="#E1E5F0"/>
<path d="M272.611 71.6328C272.611 69.2848 274.516 67.3813 276.86 67.3813H376.13C378.477 67.3813 380.38 69.2849 380.38 71.6328V76.7324H272.611V71.6328Z" fill="#E1E5F0"/>
<path d="M215.122 60H100.391C99.6226 60 99 60.6219 99 61.389V148.664C99 149.431 99.6226 150.053 100.391 150.053H215.122C215.89 150.053 216.512 149.431 216.512 148.664V61.389C216.512 60.6219 215.89 60 215.122 60Z" fill="#F2F6FB"/>
<path d="M125.047 106.434C130.808 106.434 135.479 101.792 135.479 96.0651C135.479 90.3385 130.808 85.6963 125.047 85.6963C119.285 85.6963 114.615 90.3385 114.615 96.0651C114.615 101.792 119.285 106.434 125.047 106.434Z" fill="#D8DEED"/>
<path d="M125.041 95.9177C123.546 95.9177 122.333 94.729 122.333 93.2628C122.333 91.7965 123.546 90.6079 125.041 90.6079C126.536 90.6079 127.749 91.7965 127.749 93.2628C127.749 94.729 126.536 95.9177 125.041 95.9177ZM125.041 97.2451C127.751 97.2451 129.949 99.3995 129.949 102.057H120.133C120.133 99.3995 122.331 97.2451 125.041 97.2451Z" fill="#F2F6FB"/>
<path d="M115.813 109.163H134.28C135.245 109.163 136.028 109.944 136.028 110.908V111.783C136.028 112.747 135.245 113.528 134.28 113.528H115.813C114.848 113.528 114.066 112.747 114.066 111.783V110.908C114.066 109.944 114.848 109.163 115.813 109.163ZM118.558 116.257H131.535C132.5 116.257 133.282 117.038 133.282 118.002V118.877C133.282 119.841 132.5 120.623 131.535 120.623H118.558C117.593 120.623 116.811 119.841 116.811 118.877V118.002C116.811 117.038 117.593 116.257 118.558 116.257Z" fill="#E1E5F0"/>
<path d="M117.89 127.854H132.203C132.994 127.854 133.682 128.015 134.249 128.318C134.815 128.62 135.26 129.065 135.563 129.63C135.866 130.196 136.028 130.884 136.028 131.674C136.028 132.464 135.866 133.152 135.563 133.718C135.26 134.284 134.815 134.728 134.249 135.03C133.682 135.333 132.994 135.494 132.203 135.494H117.89C117.099 135.494 116.411 135.333 115.844 135.03C115.278 134.728 114.833 134.284 114.53 133.718C114.227 133.152 114.066 132.464 114.066 131.674C114.066 130.884 114.227 130.196 114.53 129.63C114.833 129.065 115.278 128.62 115.844 128.318C116.411 128.015 117.099 127.854 117.89 127.854ZM150.571 127.854H164.884C165.675 127.854 166.363 128.015 166.93 128.318C167.496 128.62 167.941 129.065 168.244 129.63C168.547 130.196 168.708 130.884 168.708 131.674C168.708 132.464 168.547 133.152 168.244 133.718C167.941 134.284 167.496 134.728 166.93 135.03C166.363 135.333 165.675 135.494 164.884 135.494H150.571C149.78 135.494 149.092 135.333 148.525 135.03C147.959 134.728 147.514 134.284 147.211 133.718C146.908 133.152 146.747 132.464 146.747 131.674C146.747 130.884 146.908 130.196 147.211 129.63C147.514 129.065 147.959 128.62 148.525 128.318C149.092 128.015 149.78 127.854 150.571 127.854ZM183.484 127.854H197.797C198.587 127.854 199.276 128.015 199.842 128.318C200.409 128.62 200.854 129.065 201.157 129.63C201.46 130.196 201.621 130.884 201.621 131.674C201.621 132.464 201.46 133.152 201.157 133.718C200.854 134.284 200.409 134.728 199.842 135.03C199.276 135.333 198.587 135.494 197.797 135.494H183.484C182.693 135.494 182.004 135.333 181.438 135.03C180.871 134.728 180.427 134.284 180.124 133.718C179.821 133.152 179.659 132.464 179.659 131.674C179.659 130.884 179.821 130.196 180.124 129.63C180.427 129.065 180.871 128.62 181.438 128.318C182.004 128.015 182.693 127.854 183.484 127.854Z" fill="#8111FF"/>
<path d="M157.728 106.434C163.489 106.434 168.159 101.792 168.159 96.0651C168.159 90.3385 163.489 85.6963 157.728 85.6963C151.966 85.6963 147.296 90.3385 147.296 96.0651C147.296 101.792 151.966 106.434 157.728 106.434Z" fill="#D8DEED"/>
<path d="M157.722 95.9177C156.226 95.9177 155.014 94.729 155.014 93.2628C155.014 91.7965 156.226 90.6079 157.722 90.6079C159.217 90.6079 160.429 91.7965 160.429 93.2628C160.429 94.729 159.217 95.9177 157.722 95.9177ZM157.722 97.2451C160.432 97.2451 162.629 99.3995 162.629 102.057H152.814C152.814 99.3995 155.011 97.2451 157.722 97.2451Z" fill="#F2F6FB"/>
<path d="M148.494 109.163H166.961C167.926 109.163 168.708 109.944 168.708 110.908V111.783C168.708 112.747 167.926 113.528 166.961 113.528H148.494C147.529 113.528 146.747 112.747 146.747 111.783V110.908C146.747 109.944 147.529 109.163 148.494 109.163ZM148.494 116.257H166.961C167.926 116.257 168.708 117.038 168.708 118.002V118.877C168.708 119.841 167.926 120.623 166.961 120.623H148.494C147.529 120.623 146.747 119.841 146.747 118.877V118.002C146.747 117.038 147.529 116.257 148.494 116.257Z" fill="#E1E5F0"/>
<path d="M190.64 106.434C196.401 106.434 201.072 101.792 201.072 96.0651C201.072 90.3385 196.401 85.6963 190.64 85.6963C184.879 85.6963 180.208 90.3385 180.208 96.0651C180.208 101.792 184.879 106.434 190.64 106.434Z" fill="#D8DEED"/>
<path d="M190.634 95.9177C189.139 95.9177 187.927 94.729 187.927 93.2628C187.927 91.7965 189.139 90.6079 190.634 90.6079C192.13 90.6079 193.342 91.7965 193.342 93.2628C193.342 94.729 192.13 95.9177 190.634 95.9177ZM190.634 97.2451C193.345 97.2451 195.542 99.3995 195.542 102.057H185.727C185.727 99.3995 187.924 97.2451 190.634 97.2451Z" fill="#F2F6FB"/>
<path d="M184.152 109.163H197.128C198.093 109.163 198.876 109.944 198.876 110.908V111.783C198.876 112.747 198.093 113.528 197.128 113.528H184.152C183.187 113.528 182.404 112.747 182.404 111.783V110.908C182.404 109.944 183.187 109.163 184.152 109.163ZM181.407 116.257H199.873C200.839 116.257 201.621 117.038 201.621 118.002V118.877C201.621 119.841 200.839 120.623 199.873 120.623H181.407C180.441 120.623 179.659 119.841 179.659 118.877V118.002C179.659 117.038 180.441 116.257 181.407 116.257Z" fill="#E1E5F0"/>
<path d="M99 64.631C99 62.0734 101.077 60 103.634 60H211.878C214.438 60 216.512 62.0736 216.512 64.631V70.186H99V64.631Z" fill="#D8DEED"/>
<path d="M105.838 67.4078C107.054 67.4078 108.04 66.4231 108.04 65.2085C108.04 63.9939 107.054 63.0093 105.838 63.0093C104.622 63.0093 103.636 63.9939 103.636 65.2085C103.636 66.4231 104.622 67.4078 105.838 67.4078Z" fill="#FF5645"/>
<path d="M113.023 67.4078C114.239 67.4078 115.225 66.4231 115.225 65.2085C115.225 63.9939 114.239 63.0093 113.023 63.0093C111.807 63.0093 110.821 63.9939 110.821 65.2085C110.821 66.4231 111.807 67.4078 113.023 67.4078Z" fill="#FFCB3D"/>
<path d="M120.44 67.4078C121.656 67.4078 122.642 66.4231 122.642 65.2085C122.642 63.9939 121.656 63.0093 120.44 63.0093C119.224 63.0093 118.238 63.9939 118.238 65.2085C118.238 66.4231 119.224 67.4078 120.44 67.4078Z" fill="#3ABF7C"/>
</svg>
