<svg width="576" height="568" viewBox="0 0 576 568" fill="none" xmlns="http://www.w3.org/2000/svg">
<path fill-rule="evenodd" clip-rule="evenodd" d="M399.76 126.225C419.124 136.111 435.792 149.91 451.77 164.655C470.265 181.722 493.822 196.476 501.775 220.364C509.65 244.018 497.222 269.402 494.912 294.238C492.467 320.534 501.93 350.24 487.631 372.453C473.224 394.834 444.976 405.93 419.083 412.036C394.805 417.761 370.076 405.063 345.157 406.053C326.186 406.806 307.58 410.553 289.775 417.169C261.388 427.717 239.072 457.926 208.827 456.71C182.136 455.638 161.305 431.348 143.667 411.298C126.2 391.442 111.709 367.572 107.441 341.458C103.272 315.94 111.276 289.936 119.847 265.527C127.287 244.338 150.939 230.456 154.217 208.244C158.529 179.028 123.232 144.928 141.117 121.417C158.221 98.9346 198.135 124.493 224.861 115.381C246.89 107.87 257.123 75.3052 280.349 73.9458C304.042 72.559 320.117 99.0196 341.848 108.533C360.495 116.698 381.63 116.969 399.76 126.225Z" fill="#8111FF" fill-opacity="0.05"/>
<path d="M432.496 167.308H271.63C270.799 167.308 270.126 167.981 270.126 168.811V354.985C270.126 355.816 270.799 356.489 271.63 356.489H432.496C433.327 356.489 434 355.816 434 354.985V168.811C434 167.981 433.327 167.308 432.496 167.308Z" fill="#F2F6FB"/>
<path d="M302.42 187.353V188.857H283.408C283.268 188.857 283.156 188.968 283.156 189.107H281.653C281.653 188.138 282.438 187.353 283.408 187.353H302.42ZM325.973 187.353V188.857H305.426V187.353H325.973ZM349.527 187.353V188.857H328.98V187.353H349.527ZM373.081 187.353V188.857H352.534V187.353H373.081ZM396.634 187.353V188.857H376.087V187.353H396.634ZM420.188 187.353V188.857H399.641V187.353H420.188ZM422.724 210.345H421.221V189.798H422.724V210.345ZM415.048 228.196V226.693H420.968C421.109 226.693 421.221 226.581 421.221 226.443V213.352H422.724V226.443C422.724 227.412 421.939 228.196 420.968 228.196H415.048ZM391.494 228.196V226.693H412.041V228.196H391.494ZM367.941 228.196V226.693H388.488V228.196H367.941ZM344.387 228.196V226.693H364.934V228.196H344.387ZM320.833 228.196V226.693H341.38V228.196H320.833ZM297.28 228.196V226.693H317.826V228.196H297.28ZM281.653 218.296H283.156V226.443C283.156 226.581 283.269 226.693 283.408 226.693H294.273V228.196H283.408C282.439 228.196 281.653 227.412 281.653 226.443V218.296ZM281.653 194.742H283.156V215.289H281.653V194.742ZM281.653 189.107H283.156V191.735H281.653V189.107Z" fill="#D8DEED"/>
<path d="M270.126 170.065C270.126 167.297 272.369 165.052 275.137 165.052H428.989C431.756 165.052 434 167.297 434 170.065V176.078H270.126V170.065Z" fill="#D8DEED"/>
<path d="M277.518 173.071C278.833 173.071 279.899 172.005 279.899 170.69C279.899 169.376 278.833 168.31 277.518 168.31C276.203 168.31 275.138 169.376 275.138 170.69C275.138 172.005 276.203 173.071 277.518 173.071Z" fill="#FF5645"/>
<path d="M285.286 173.071C286.6 173.071 287.666 172.005 287.666 170.69C287.666 169.376 286.6 168.31 285.286 168.31C283.971 168.31 282.905 169.376 282.905 170.69C282.905 172.005 283.971 173.071 285.286 173.071Z" fill="#FFCB3D"/>
<path d="M293.304 173.071C294.619 173.071 295.684 172.005 295.684 170.69C295.684 169.376 294.619 168.31 293.304 168.31C291.989 168.31 290.924 169.376 290.924 170.69C290.924 172.005 291.989 173.071 293.304 173.071Z" fill="#3ABF7C"/>
<path d="M281.675 238.969C281.675 238.417 282.122 237.969 282.678 237.969H420.742C421.296 237.969 421.745 238.416 421.745 238.969V281.388C421.745 281.94 421.298 282.388 420.742 282.388H282.678C282.124 282.388 281.675 281.941 281.675 281.388V238.969ZM282.154 290.338H335.525C335.802 290.338 336.027 290.563 336.027 290.839V296.853C336.027 297.13 335.802 297.354 335.525 297.354H282.154C281.877 297.354 281.653 297.13 281.653 296.853V290.839C281.653 290.563 281.877 290.338 282.154 290.338ZM282.154 301.864H319.99C320.267 301.864 320.491 302.089 320.491 302.366V308.379C320.491 308.656 320.267 308.88 319.99 308.88H282.154C281.877 308.88 281.653 308.656 281.653 308.379V302.366C281.653 302.089 281.877 301.864 282.154 301.864ZM282.154 313.641H327.758C328.034 313.641 328.259 313.866 328.259 314.142V320.156C328.259 320.433 328.034 320.657 327.758 320.657H282.154C281.877 320.657 281.653 320.433 281.653 320.156V314.142C281.653 313.866 281.877 313.641 282.154 313.641ZM282.154 325.168H312.222C312.499 325.168 312.723 325.392 312.723 325.669V331.682C312.723 331.959 312.499 332.184 312.222 332.184H282.154C281.877 332.184 281.653 331.959 281.653 331.682V325.669C281.653 325.392 281.877 325.168 282.154 325.168ZM352.063 301.864H407.189C407.466 301.864 407.69 302.089 407.69 302.366V308.379C407.69 308.656 407.466 308.88 407.189 308.88H352.063C351.786 308.88 351.562 308.656 351.562 308.379V302.366C351.562 302.089 351.786 301.864 352.063 301.864ZM352.063 313.641H414.205C414.482 313.641 414.706 313.866 414.706 314.142V320.156C414.706 320.433 414.482 320.657 414.205 320.657H352.063C351.786 320.657 351.562 320.433 351.562 320.156V314.142C351.562 313.866 351.786 313.641 352.063 313.641ZM352.063 325.168H421.221C421.498 325.168 421.722 325.392 421.722 325.669V331.682C421.722 331.959 421.498 332.184 421.221 332.184H352.063C351.786 332.184 351.562 331.959 351.562 331.682V325.669C351.562 325.392 351.786 325.168 352.063 325.168ZM352.063 336.694H400.173C400.45 336.694 400.674 336.918 400.674 337.195V343.209C400.674 343.485 400.45 343.71 400.173 343.71H352.063C351.786 343.71 351.562 343.485 351.562 343.209V337.195C351.562 336.918 351.786 336.694 352.063 336.694ZM352.086 290.384H421.244C421.52 290.384 421.745 290.608 421.745 290.885V296.99C421.745 297.266 421.52 297.491 421.244 297.491H352.086C351.809 297.491 351.585 297.266 351.585 296.99V290.885C351.585 290.608 351.809 290.384 352.086 290.384Z" fill="#E1E5F0"/>
<path fill-rule="evenodd" clip-rule="evenodd" d="M353.334 269.017L352.296 269.029L352.303 269.017H339.598C339.32 269.017 339.213 268.826 339.359 268.592L348.359 254.141C348.505 253.906 348.749 253.905 348.9 254.135L355.388 264.053L357.883 260.04C358.029 259.805 358.274 259.797 358.431 260.025L364.172 268.363C364.328 268.59 364.233 268.781 363.954 268.79L358.664 268.953L358.438 268.956L358.475 269.017C358.475 269.017 358.25 269.017 357.971 269.017H353.334ZM358.353 256.362C357.208 256.362 356.281 255.427 356.281 254.273C356.281 253.118 357.208 252.183 358.353 252.183C359.497 252.183 360.425 253.118 360.425 254.273C360.425 255.427 359.497 256.362 358.353 256.362Z" fill="white"/>
<path d="M141.458 384.803H167.016C167.639 384.803 168.144 385.308 168.144 385.931C168.144 386.554 167.639 387.059 167.016 387.059H141.458C140.835 387.059 140.331 386.554 140.331 385.931C140.331 385.308 140.835 384.803 141.458 384.803ZM220.639 384.803H263.236C263.858 384.803 264.363 385.308 264.363 385.931C264.363 386.554 263.858 387.059 263.236 387.059H220.639C220.016 387.059 219.511 386.554 219.511 385.931C219.511 385.308 220.016 384.803 220.639 384.803Z" fill="#8111FF" fill-opacity="0.2"/>
<path d="M263.365 384.811C263.322 384.806 263.279 384.803 263.236 384.803H220.639C220.565 384.803 220.494 384.81 220.424 384.824L222.437 368.769H241.28L245.765 372.077C246.793 373.104 247.92 374.031 249.123 374.858C252.055 376.813 253.583 376.788 258.043 378.942C259.246 379.519 260.399 380.145 261.551 380.872C262.102 381.373 263.08 382.375 263.38 383.578C263.43 383.779 263.43 383.979 263.456 384.154C263.456 384.388 263.421 384.608 263.365 384.811ZM167.338 384.85C167.236 384.82 167.128 384.803 167.016 384.803H141.458C141.392 384.803 141.326 384.809 141.263 384.82L147.316 369.283L165.257 371.714L167.338 384.85Z" fill="#474961"/>
<path d="M159.152 302.425C159.044 302.401 158.936 302.378 158.828 302.354C164.617 268.598 169.03 248.369 172.067 241.667C175.104 234.965 178.684 230.219 182.806 227.429C186.74 222.947 193.677 223.197 203.274 222.916C203.518 222.904 203.795 222.907 204.039 222.895C213.961 222.728 212.311 223.107 214.931 223.917C227.502 227.275 237.93 248.48 246.216 287.534L248.849 300.325C248.812 300.221 248.773 300.117 248.733 300.016C248.805 300.346 248.84 300.682 248.838 301.022C249.103 306.487 244.861 310.77 236.113 313.872C230.768 315.766 220.308 320.981 203.11 322.626C195.809 323.324 182.184 323.173 162.235 322.172C158.938 316.634 157.527 312.201 158.003 308.873C158.263 307.049 158.646 304.899 159.152 302.425Z" fill="#8111FF"/>
<path opacity="0.176986" d="M159.138 302.49C188.445 308.847 210.1 308.356 224.103 301.018C237.834 293.822 246.038 293.465 248.717 299.946C248.8 300.299 248.84 300.658 248.838 301.022C249.103 306.487 244.861 310.771 236.113 313.872C230.768 315.767 220.308 320.981 203.11 322.626C195.809 323.325 182.184 323.173 162.235 322.172C158.938 316.634 157.527 312.201 158.003 308.873C158.261 307.065 158.639 304.938 159.138 302.49Z" fill="#444444"/>
<path d="M185.817 203.483C183.011 203.051 180.761 202.59 179.065 202.101C177.676 201.906 175.552 201.354 174.719 199.719C173.505 197.372 175.727 194.167 178.207 190.569C181.191 186.256 183.02 184.701 185.896 182.667C190.793 179.203 193.817 179.069 196.01 181.297C196.231 181.521 196.451 181.893 196.67 182.41C197.295 182.319 197.935 182.277 198.586 182.286L204.098 182.386C211.089 182.461 216.652 188.45 216.552 195.692V196.143L216.401 210.099L216.266 216.635C216.173 221.134 212.499 224.733 207.999 224.733H193.942C193.912 224.733 193.881 224.733 193.85 224.732C189.284 224.682 185.623 220.939 185.674 216.372L185.817 203.483Z" fill="#8111FF" fill-opacity="0.2"/>
<path d="M300.172 210.128L111 200.213C109.618 200.141 108.439 201.203 108.367 202.585L105.167 263.64C105.094 265.022 106.156 266.201 107.538 266.274L296.71 276.188C298.092 276.26 299.271 275.199 299.344 273.817L302.543 212.761C302.616 211.379 301.554 210.2 300.172 210.128Z" fill="#D8DEED"/>
<path d="M236.619 225.866L118.511 219.677C117.959 219.648 117.487 220.072 117.458 220.625L116.829 232.636C116.8 233.189 117.224 233.661 117.777 233.689L235.885 239.879C236.437 239.908 236.909 239.484 236.938 238.931L237.567 226.92C237.596 226.367 237.172 225.895 236.619 225.866Z" fill="white"/>
<path d="M206.088 178.92L205.761 183.082C205.745 183.287 205.605 183.462 205.409 183.522C204.314 183.86 203.25 183.983 202.216 183.89C201.153 183.795 199.589 183.414 197.523 182.746C197.279 182.667 197.133 182.415 197.188 182.164L198.848 174.441L198.946 174.469C198.034 172.628 197.457 171.598 197.214 171.379C196.29 170.494 195.559 165.028 199.68 165.357C200.133 165.36 200.575 165.49 201 165.697L201.028 165.719C201.166 165.831 201.343 165.838 201.52 165.844C201.943 165.8 202.261 165.464 202.241 165.038L201.782 158.51C201.737 158.086 202.03 157.753 202.453 157.709C203.376 157.612 204.267 157.468 205.168 157.171C205.293 157.158 205.39 157.123 205.49 157.112C206.376 156.918 211.155 156.114 214.121 159.405C214.382 159.73 214.643 160.056 214.854 160.386C215.397 161.236 215.701 162.212 215.736 163.267L215.939 167.831C215.936 168.285 215.933 168.738 215.883 169.222C215.276 174.955 213.143 179.11 211.013 179.46C209.919 179.6 208.81 179.59 207.704 179.379C207.564 179.326 207.654 179.37 206.088 178.92ZM184.289 306.437L165.257 371.714L147.316 369.284L158.829 302.355L158.886 302.358C158.882 302.383 158.877 302.408 158.873 302.433C168.101 304.444 176.573 305.779 184.289 306.437ZM217.778 303.695C220.037 302.937 222.145 302.044 224.104 301.017C237.59 293.95 245.746 293.479 248.57 299.607C250.185 304.755 250.647 309.453 249.956 313.7C247.881 326.451 244.989 344.807 241.28 368.77H222.437L222.763 314.973L217.778 303.695ZM175.665 200.768C176.676 201.597 178.106 201.936 179.134 202.081C182.252 202.98 187.247 203.783 194.119 204.489L190.556 218.435L213.126 226.505C213.236 226.529 213.763 226.739 214.707 227.137C224.493 229.924 231.012 232.451 234.264 234.716C236.785 236.473 236.273 238.772 232.727 241.614C229.905 243.875 226.12 244.529 222.702 243.346L208.115 238.294C208.116 238.277 208.117 238.259 208.118 238.241C189.835 236.248 178.829 232.318 175.099 226.451C171.659 221.038 171.847 212.477 175.665 200.768ZM232.12 206.596C238.152 200.391 243.673 199.393 248.682 203.602C253.692 207.81 248.171 208.809 232.12 206.596Z" fill="#ED9474"/>
<path d="M191.899 168.686C191.139 168.987 190.388 169.103 189.645 169.033C184.731 168.574 181.4 164.257 180.085 160.037C178.769 155.816 181.081 153.651 184.778 151.29C188.476 148.929 192.709 150.612 196.238 152.438C198.3 153.504 199.51 155.355 199.868 157.989C200.426 157.938 201.042 157.875 201.73 157.785C202.528 157.701 203.417 157.484 204.897 157.177C205.021 157.164 205.722 156.991 205.822 156.981C206.709 156.787 211.182 156.136 214.148 159.427C214.131 159.505 213.364 159.427 211.119 160.918C208.563 162.615 206.044 170.055 203.789 169.939C203.764 169.939 203.714 169.963 203.637 170.014L203.737 169.919L202.356 167.091C202.044 166.52 201.57 166.091 201.03 165.744C200.605 165.537 200.163 165.407 199.71 165.404C198.503 165.43 197.304 166.489 196.934 167.762C196.589 169.033 196.957 170.38 197.929 171.235C198.543 171.801 199.335 172.146 200.173 172.209L201.192 172.082C201.15 172.119 201.109 172.156 201.067 172.194C199.329 174.934 198.461 176.304 198.461 176.304C198.461 176.304 197.709 176.102 196.204 175.697C194.355 175.057 192.92 172.72 191.899 168.686ZM212.286 166.879C211.8 167.056 211.016 167.265 210.3 167.163C209.103 167.037 210.126 166.224 211.192 166.062C211.688 165.985 212.107 166.142 212.378 166.315C212.57 166.471 212.53 166.803 212.286 166.879ZM216.512 166.334C216.032 166.561 215.28 166.842 214.547 166.818C213.307 166.772 214.27 165.864 215.304 165.63C215.844 165.497 216.236 165.633 216.529 165.778C216.769 165.904 216.753 166.233 216.512 166.334Z" fill="#482D1F"/>
<path d="M210.889 170.125C210.608 169.852 210.634 169.144 210.664 168.712C210.655 168.386 210.933 168.155 211.208 168.126C211.385 168.133 211.619 168.209 211.706 168.553C211.967 169.357 211.265 170.589 210.889 170.125ZM214.998 169.668C214.767 169.39 214.743 168.687 214.774 168.255C214.765 167.929 215.043 167.698 215.317 167.669C215.494 167.676 215.729 167.752 215.815 168.096C216.076 168.9 215.349 170.135 214.998 169.668Z" fill="#482D1F"/>
<path d="M214.548 167.809C214.552 167.671 214.443 167.555 214.305 167.551C214.167 167.547 214.051 167.656 214.047 167.794L214.002 169.285L214.003 169.317L214.256 171.96C214.25 171.991 214.228 172.013 214.196 172.019C213.895 172.018 213.509 172.018 213.036 172.019C212.898 172.02 212.786 172.132 212.786 172.271C212.787 172.409 212.899 172.521 213.038 172.52C213.518 172.519 213.91 172.519 214.211 172.52L214.239 172.519C214.53 172.489 214.741 172.257 214.758 171.977L214.757 171.938L214.503 169.285L214.548 167.809Z" fill="#482D1F"/>
<path d="M213.045 174.585C212.868 174.578 212.409 174.526 212.281 174.262C212.275 174.212 212.218 174.143 212.237 174.09C212.299 173.958 213.072 173.877 213.072 173.877C214.096 173.794 214.34 173.718 214.428 173.835C214.46 173.907 214.471 174.007 214.32 174.249C214.14 174.696 213.325 174.606 213.045 174.585Z" fill="#482D1F"/>
<path d="M252.44 226.696L286.857 228.499C288.53 228.587 289.128 228.793 289.722 229.152C290.317 229.512 290.772 230.017 291.067 230.646C291.362 231.274 291.504 231.89 291.417 233.563L291.187 237.953C291.099 239.626 290.893 240.223 290.534 240.818C290.174 241.412 289.669 241.867 289.04 242.162C288.412 242.457 287.796 242.6 286.123 242.512L251.706 240.709C250.033 240.621 249.435 240.415 248.841 240.056C248.246 239.696 247.791 239.191 247.496 238.562C247.201 237.934 247.059 237.318 247.146 235.645L247.376 231.255C247.464 229.582 247.67 228.985 248.029 228.39C248.389 227.796 248.894 227.341 249.523 227.046C250.151 226.75 250.767 226.608 252.44 226.696Z" fill="#8111FF"/>
<path d="M215.916 250.824L143.6 247.034C143.324 247.019 143.088 247.232 143.074 247.508L142.706 254.514C142.692 254.791 142.904 255.027 143.181 255.041L215.497 258.831C215.773 258.845 216.009 258.633 216.023 258.357L216.39 251.35C216.405 251.074 216.193 250.838 215.916 250.824Z" fill="#F2F6FB"/>
<path d="M262.731 253.456L221.694 251.305C221.417 251.291 221.182 251.503 221.167 251.78L220.8 258.786C220.785 259.062 220.998 259.298 221.274 259.313L262.312 261.463C262.588 261.478 262.824 261.265 262.838 260.989L263.205 253.983C263.22 253.706 263.008 253.47 262.731 253.456Z" fill="#F2F6FB"/>
<path d="M230.603 242.393C230.795 242.471 231.014 242.378 231.092 242.185C231.17 241.993 231.077 241.774 230.884 241.696C229.675 241.209 228.723 240.859 226.595 240.105C224.477 239.355 223.533 239.008 222.337 238.526C222.144 238.448 221.925 238.541 221.848 238.734C221.77 238.926 221.863 239.145 222.056 239.223C223.265 239.711 224.216 240.06 226.344 240.814C228.462 241.564 229.407 241.911 230.603 242.393ZM234.345 239.706C234.542 239.771 234.755 239.665 234.821 239.468C234.886 239.271 234.78 239.058 234.583 238.993C233.234 238.543 232.196 238.171 229.891 237.325C227.579 236.476 226.536 236.102 225.178 235.649C224.981 235.584 224.768 235.69 224.702 235.887C224.637 236.084 224.743 236.297 224.94 236.363C226.289 236.812 227.327 237.184 229.632 238.03C231.944 238.879 232.987 239.253 234.345 239.706Z" fill="#482D1F"/>
<path d="M197.563 203.774C199.453 198.619 200.551 194.922 200.858 192.666C200.886 192.46 200.742 192.271 200.536 192.243C200.331 192.215 200.141 192.359 200.113 192.565C199.815 194.752 198.73 198.408 196.858 203.515C196.786 203.71 196.886 203.926 197.081 203.997C197.276 204.069 197.492 203.969 197.563 203.774Z" fill="#482D1F"/>
</svg>
