<svg width="420" height="364" viewBox="0 0 420 364" fill="none" xmlns="http://www.w3.org/2000/svg">
<path fill-rule="evenodd" clip-rule="evenodd" d="M212.276 360.911C191.277 364.083 170.155 362.846 149.035 360.523C124.588 357.834 97.4716 359.648 77.4283 346.078C57.5818 332.641 52.7859 306.805 40.3084 286.912C27.0976 265.851 2.51004 248.743 1.01938 224.262C-0.482513 199.596 15.4549 175.828 32.4035 157.09C48.296 139.52 33.3738 88.3675 52.4999 74.0001C67.0612 63.0618 117.908 79.7351 128.171 65.037C144.534 41.6026 148.256 24.2403 172.861 8.61458C194.575 -5.17515 225.029 1.65458 250.516 7.05002C275.757 12.3933 300.958 22.3742 319.37 39.6292C337.361 56.4898 346.011 80.3722 353.294 103.368C359.616 123.329 348.916 146.675 359.117 165.129C372.533 189.401 420.071 195.68 419.474 223.095C418.904 249.311 372.636 251.964 356.76 273.413C343.674 291.092 354.34 321.114 336.765 334.834C318.837 348.828 290.893 337.77 268.238 342.516C248.797 346.588 231.936 357.941 212.276 360.911Z" fill="#8111FF" fill-opacity="0.05"/>
<path d="M278.366 268.276H300.138C300.799 268.276 301.377 267.726 301.377 267.066V266.928C301.377 266.268 300.799 265.718 300.083 265.718H279.907C267.686 265.718 255.465 265.718 243.272 265.718H224.555C223.894 265.718 223.316 266.268 223.316 266.928V267.066C223.316 267.726 223.867 268.276 224.555 268.276H251.117L243.795 281.694C238.592 291.264 233.39 300.805 228.16 310.374L219.545 326.158C219.242 326.708 219.49 327.423 220.068 327.753L220.178 327.808C220.756 328.11 221.499 327.945 221.775 327.423L254.006 268.276H275.476L307.708 327.423C307.983 327.945 308.726 328.138 309.304 327.808L309.414 327.753C309.992 327.423 310.24 326.708 309.937 326.158L301.322 310.374C296.12 300.805 290.917 291.264 285.688 281.694L278.366 268.276ZM301.294 257.5V241.512C301.294 229.318 301.294 217.153 301.294 204.987V190.458C301.294 188.18 299.446 186.333 297.166 186.333H252.245C249.965 186.333 248.116 188.18 248.116 190.458V257.547C248.116 259.825 249.965 261.672 252.245 261.672C252.246 261.672 252.248 261.672 252.249 261.672L297.17 261.625C299.448 261.622 301.294 259.776 301.294 257.5Z" fill="#D8DEED"/>
<path d="M198.634 324.15H243.499C244.183 324.15 244.738 324.704 244.738 325.388C244.738 326.071 244.183 326.625 243.499 326.625H198.634C197.95 326.625 197.395 326.071 197.395 325.388C197.395 324.704 197.95 324.15 198.634 324.15ZM249.004 324.15H277.355C278.039 324.15 278.594 324.704 278.594 325.388C278.594 326.071 278.039 326.625 277.355 326.625H249.004C248.32 326.625 247.766 326.071 247.766 325.388C247.766 324.704 248.32 324.15 249.004 324.15Z" fill="#8111FF" fill-opacity="0.2"/>
<path d="M277.06 324.15H249.043L251.289 309.13H271.256L277.06 324.15ZM244.276 324.423C244.064 324.252 243.794 324.15 243.501 324.15H198.635C198.583 324.15 198.533 324.153 198.483 324.159C198.467 324.032 198.459 323.882 198.463 323.701C198.494 323.509 198.497 323.289 198.556 323.07C198.91 321.756 199.338 320.884 200.59 320.108C201.842 319.332 203.121 318.639 204.453 318.03C209.366 315.723 211.045 315.752 214.275 313.636C215.612 312.752 216.841 311.728 217.989 310.621C218.755 309.882 220.409 308.683 222.952 307.022L242.662 307.082L244.276 324.423Z" fill="#474961"/>
<path d="M276.829 259.516C276.783 272.97 276.328 290.843 276.172 296.992C276.144 297.848 276.254 300.165 274.603 301.626C274.135 302.054 273.667 302.23 272.786 302.608C272.098 302.91 269.015 303.817 262.85 304.321C262.464 304.346 262.051 304.371 261.638 304.346C255.28 304.119 253.711 303.716 251.262 303.011C249.638 302.558 248.454 301.147 248.289 299.485C247.518 292.156 245.399 272.183 245.234 270.42C245.013 268.178 244.821 265.634 244.656 262.738L244.568 261.382L236.951 258.33C240.132 270.708 243.218 283.528 245.977 296.274C246.114 296.899 246.362 298.304 245.646 299.631C244.325 302.155 240.885 302.025 232.655 303.014C222.966 304.185 218.92 305.408 216.718 302.91C215.974 302.103 215.727 301.271 215.644 300.88C213.635 290.757 203.671 261.375 199.79 240.295C199.79 240.243 199.762 240.217 199.762 240.165C198.524 233.373 203.175 226.971 210.084 226.112C212.369 225.826 214.433 225.55 216.718 225.264C217.41 225.182 218.1 225.158 218.784 225.189L252.888 224.588C273.115 224.409 270.33 222.023 276.654 224.98C280.871 226.952 283.742 232.566 285.267 241.821C285.813 248.859 283.001 254.757 276.829 259.516Z" fill="#8111FF"/>
<path opacity="0.176986" d="M276.863 259.489C276.865 258.786 276.866 258.095 276.866 257.419C276.866 252.18 276.894 247.672 276.949 244.775C277.004 242.483 277.417 229.89 272.077 227.271C271.609 227.044 271.141 226.868 270.205 226.54C269.462 226.288 265.609 224.979 260.654 225.18C257.434 225.306 252.589 225.508 248.598 228.656C243.093 233.013 243.231 239.889 243.286 240.997L244.603 261.396L236.99 258.346C234.869 250.094 232.706 242.037 230.569 234.331C229.11 229.087 224.231 225.456 218.879 225.187L252.887 224.588C273.114 224.409 270.329 222.023 276.654 224.98C280.871 226.952 283.742 232.566 285.267 241.821C285.812 248.845 283.011 254.735 276.863 259.489Z" fill="#444444"/>
<path d="M247.854 173.303C248.186 173.158 248.524 173.029 248.87 172.916L254.744 170.923C255.085 170.86 255.424 170.804 255.761 170.757C256.224 170.217 257.167 169.76 258.802 169.249C264.609 167.405 272.02 170.472 274.66 177.343C276.96 183.331 280.016 190.094 279.731 190.183C279.671 190.202 278.337 191.172 276.51 191.772C279.152 201.909 280.576 208.695 280.781 212.13C281.19 218.972 278.926 223.557 271.254 224.138C263.582 224.719 252.904 225.538 251.65 223.269C250.843 221.811 247.051 212.805 240.274 196.252C237.741 197.085 236.418 197.512 236.305 197.532C235.952 197.594 234.749 193.569 233.967 187.203C233.068 179.898 237.427 173.806 244.651 172.56C245.845 172.349 246.913 172.596 247.854 173.303Z" fill="#8111FF" fill-opacity="0.2"/>
<path opacity="0.176986" d="M247.872 173.316C240.687 176.345 237.12 186.719 239.512 194.389C239.777 195.018 240.037 195.637 240.294 196.245C237.748 197.083 236.418 197.512 236.305 197.532C235.952 197.594 234.749 193.568 233.967 187.203C233.068 179.898 237.427 173.806 244.65 172.56C245.852 172.347 246.926 172.599 247.872 173.316Z" fill="#444444"/>
<path d="M236.012 174.171C236.012 174.171 235.489 176.26 238.269 175.683C241.049 175.105 241.848 174.83 241.848 174.83L241.132 172.933L236.012 174.171Z" fill="#482D1F"/>
<path d="M251.73 172.7L256.849 196.993L258.066 190.399C264.481 191.676 269.701 192.315 273.728 192.314C273.749 192.314 273.771 192.314 273.792 192.314C272.885 195.841 270.736 211.145 267.391 217.067C263.163 224.552 260.695 225.374 254.452 224.762C253.813 224.7 253.21 224.585 252.641 224.418C252.914 224.508 253.195 224.584 253.485 224.646L221.185 225.15L221.182 225.159L221.084 225.152L220.95 225.154C220.89 225.155 220.831 225.146 220.776 225.129L207.48 224.136C205.42 223.982 203.526 222.945 202.287 221.293L200.548 218.976C200.217 218.534 200.002 218.016 199.923 217.47C199.661 215.667 200.913 213.993 202.718 213.731L206.978 213.115C209.63 212.731 212.324 212.736 214.975 213.129L223.208 214.353C229.398 212.376 237.658 209.779 239.72 209.331L237.159 197.254L240.186 196.046C241.136 198.251 242.031 200.322 242.869 202.259C241.919 193.055 242.026 182.89 240.884 173.86L238.022 173.923C236.315 174.61 232.737 175.765 232.352 173.318C232.352 173.318 237.086 171.366 240.417 169.936L240.664 169.716C240.885 169.523 241.077 169.413 241.352 169.331C241.407 169.303 241.463 169.303 241.518 169.303L241.7 169.277C241.205 169.314 240.857 169.305 240.736 169.292C238.434 169.19 235.612 165.048 234.254 159.011C234.129 158.525 234.086 158.032 234.015 157.541L233.668 152.631C233.572 151.535 233.78 150.44 234.247 149.461C234.292 149.347 234.34 149.26 234.387 149.173C234.555 148.882 234.723 148.591 234.896 148.355C235.56 147.414 236.382 146.707 237.248 146.19C239.31 145.126 241.718 144.861 243.076 144.908C243.271 144.918 243.881 144.948 244.741 144.983C245.553 145.105 246.33 145.148 247.128 145.106C247.569 145.095 247.932 145.449 247.97 145.888L248.31 152.924C248.312 152.976 248.326 153.05 248.35 153.144C251.122 151.999 253.106 152.652 254.303 155.105C256.099 158.785 254.473 157.989 253.675 158.97C253.099 159.655 252.383 159.993 251.901 160.173C251.811 160.193 251.719 160.245 251.639 160.318L253.794 160.339L254.176 161.852L254.316 163.772L255.733 170.797C255.733 170.797 253.735 171.91 251.73 172.7ZM246.916 168.52L246.754 167.731C246.686 167.76 246.617 167.789 246.547 167.818C244.256 168.791 244.389 168.724 244.229 168.794C243.886 168.901 243.551 168.986 243.234 169.054L245.701 168.698L246.916 168.52ZM269.427 309.21H251.339L251.728 303.135C253.951 303.764 255.696 304.133 261.673 304.346C262.086 304.371 262.499 304.346 262.884 304.321C265.826 304.081 268.066 303.749 269.679 303.434L271.254 309.13L269.427 309.21ZM241.873 301.879L242.661 307.082H222.847L224.154 304.134C226.371 303.876 229.155 303.442 232.689 303.014C236.87 302.512 239.814 302.298 241.873 301.879Z" fill="#DB9E75"/>
<path d="M248.598 168.311L247.557 168.456L246.975 168.542C246.956 168.536 246.936 168.531 246.916 168.525L246.753 167.73L249.707 166.457C249.31 167.373 248.94 167.991 248.598 168.311Z" fill="#482D1F"/>
<path d="M235.998 158.416C236.096 158.905 236.275 159.69 236.087 160.065C235.781 160.671 234.706 159.44 234.789 158.495C234.838 158.104 235.015 157.923 235.235 157.904C235.589 157.845 235.912 158.065 235.998 158.416ZM241.848 157.381C241.946 157.869 242.125 158.654 241.937 159.029C241.631 159.636 240.556 158.405 240.639 157.459C240.688 157.068 240.865 156.887 241.084 156.868C241.439 156.809 241.762 157.029 241.848 157.381Z" fill="#482D1F"/>
<path d="M237.348 158.357L237.341 161.118C237.369 161.457 237.65 161.75 237.973 161.722C238.163 161.721 238.285 161.71 238.773 161.658C238.99 161.635 239.14 161.62 239.316 161.605C239.468 161.592 239.58 161.458 239.566 161.307C239.553 161.156 239.42 161.044 239.268 161.057C239.088 161.073 238.935 161.088 238.714 161.112C238.247 161.161 238.133 161.171 237.946 161.173C237.935 161.173 237.893 161.13 237.89 161.095L237.898 158.358C237.898 158.206 237.775 158.083 237.623 158.083C237.471 158.082 237.348 158.205 237.348 158.357Z" fill="#482D1F"/>
<path d="M239.867 163.158C240.054 163.086 240.503 162.854 240.534 162.575C240.529 162.52 240.549 162.436 240.52 162.411C240.398 162.283 240.051 162.424 239.565 162.549C238.699 162.763 237.959 162.828 237.959 162.828C237.959 162.828 238.247 163.272 238.396 163.397C238.726 163.7 239.575 163.294 239.867 163.158Z" fill="#482D1F"/>
<path d="M246.517 155.347L247.429 155.037C247.95 154.86 248.216 155.641 247.695 155.818L246.782 156.128L246.095 156.362C246.172 156.617 246.225 156.885 246.249 157.162C246.437 159.31 244.847 161.204 242.696 161.392C240.825 161.556 239.147 160.374 238.619 158.649L238.137 158.725L237.739 158.788C237.82 160.856 236.26 162.645 234.174 162.827C232.023 163.015 230.128 161.426 229.939 159.278C229.751 157.129 231.342 155.235 233.492 155.047C235.421 154.879 237.156 156.143 237.621 157.971L238.008 157.91L238.137 158.725C237.664 158.375 237.662 158.363 237.661 158.351L237.229 158.033L237.621 157.971C237.64 158.047 237.657 158.125 237.672 158.203C237.708 158.062 237.816 157.94 238.008 157.91L238.462 157.839C238.276 155.692 239.866 153.8 242.015 153.613C243.598 153.474 245.043 154.299 245.77 155.601L246.517 155.347ZM237.357 158.848C237.13 158.883 236.917 158.726 236.885 158.498C236.853 158.275 237.006 158.068 237.229 158.033L238.008 157.91L238.462 157.839C238.462 157.84 238.462 157.841 238.462 157.843C238.486 158.122 238.54 158.392 238.619 158.649L238.137 158.725L237.357 158.848ZM238.137 158.725C237.94 158.756 237.797 158.669 237.721 158.541L238.137 158.725ZM242.624 160.57C244.32 160.422 245.575 158.928 245.427 157.234C245.278 155.539 243.783 154.286 242.087 154.434C240.391 154.583 239.136 156.076 239.285 157.771C239.433 159.465 240.928 160.719 242.624 160.57ZM233.564 155.869C231.868 156.017 230.614 157.511 230.762 159.206C230.91 160.9 232.406 162.153 234.102 162.005C235.798 161.857 237.053 160.363 236.904 158.669C236.899 158.612 236.893 158.555 236.885 158.498C236.654 156.885 235.197 155.727 233.564 155.869Z" fill="#482D1F"/>
<path opacity="0.2" d="M253.469 224.646L221.169 225.15L221.166 225.159L221.068 225.152L220.934 225.154C220.874 225.155 220.815 225.146 220.76 225.129L207.464 224.136C205.404 223.982 203.51 222.945 202.271 221.293L200.532 218.975C200.201 218.534 199.986 218.016 199.907 217.47C199.645 215.667 200.897 213.993 202.702 213.731L206.962 213.114C209.614 212.73 212.308 212.735 214.959 213.129L223.192 214.353C229.382 212.375 237.642 209.779 239.704 209.331L237.143 197.254L240.17 196.046C241.176 198.38 242.119 200.563 242.999 202.597C243.153 203.807 243.33 205.012 243.538 206.209C245.571 217.012 247.926 223.469 253.469 224.646Z" fill="#8C2A00"/>
<path d="M256.563 197.138C256.499 196.92 256.623 196.69 256.842 196.625C257.061 196.561 257.29 196.685 257.355 196.904L260.08 206.088C260.145 206.306 260.02 206.536 259.802 206.601C259.583 206.665 259.353 206.541 259.288 206.322L256.563 197.138ZM273.809 192.651C273.581 192.649 273.398 192.463 273.399 192.236C273.401 192.008 273.587 191.825 273.815 191.826C274.964 191.835 276.043 191.668 277.052 191.325C277.268 191.251 277.502 191.367 277.576 191.583C277.649 191.798 277.533 192.033 277.318 192.106C276.219 192.479 275.049 192.66 273.809 192.651Z" fill="#482D1F"/>
<path d="M250.962 160.074C251.38 159.952 252.619 159.681 253.379 158.747C254.179 157.794 254.573 156.296 253.982 154.913C253.451 153.579 252.036 152.571 250.723 152.713C249.985 152.805 249.413 153.214 249.335 153.276C248.431 153.99 248.069 154.905 248.069 154.905L247.85 155.544C247.741 155.401 247.637 155.268 247.537 155.145C245.431 153.176 244.214 151.81 242.08 149.843C241.008 150.213 234.12 152.662 233.602 152.432C233.602 149.638 234.625 148.738 234.798 148.502C235.461 147.561 236.432 146.648 237.298 146.13C239.36 145.067 241.768 144.801 243.126 144.848C243.321 144.859 243.931 144.888 244.791 144.923C245.04 144.929 245.289 144.935 245.593 144.936C246.311 144.929 246.864 144.935 247.195 144.934C251.387 144.844 252.967 144.264 255.149 145.205C255.276 145.264 255.456 145.348 255.667 145.464C255.812 145.084 255.982 144.73 256.15 144.402C260.765 135.47 266.37 137.492 266.37 137.525C266.37 137.558 270.617 137.558 271.703 141.885C271.811 142.315 272.573 145.352 271.355 147.856C269.722 151.133 264.851 153.15 259.31 151.773C259.378 152.731 259.312 153.516 259.284 153.925C258.981 157.098 257.25 159.099 256.744 159.943C256.069 161.07 255.235 162.203 254.242 163.344C253.004 162.6 252.056 161.733 251.398 160.742C251.256 160.524 251.11 160.3 250.962 160.074Z" fill="#482D1F"/>
<path d="M148.476 218.01L151.123 207.34H131.253C129.188 207.34 127.482 205.773 127.482 203.876V173.656C127.454 171.731 129.133 170.164 131.225 170.164H191.698C193.762 170.164 195.469 171.731 195.469 173.629V203.876C195.469 205.773 193.762 207.34 191.698 207.34H167.482L166.39 218.01H173.559C174.66 218.01 175.513 218.89 175.513 219.962C175.513 221.062 174.632 221.915 173.559 221.915H142.869C141.768 221.915 140.914 221.035 140.914 219.962C140.859 218.89 141.768 218.01 142.869 218.01H148.476Z" fill="#474961"/>
<path fill-rule="evenodd" clip-rule="evenodd" d="M168.303 199.564L168.384 218.038H166.411L168.303 199.564Z" fill="white"/>
<path d="M197.32 218.209C200.314 215.287 206.426 212.997 216.525 218.77C218.065 219.622 217.503 222.298 215.796 222.294L198.201 222.175C196.878 222.184 196.322 219.193 197.32 218.209Z" fill="#474961"/>
<path d="M180.963 156.195H96.8465C93.5435 156.195 90.8461 153.752 90.8461 150.761V100.585C90.8461 97.5934 93.5435 95.1506 96.8465 95.1506H180.963C184.266 95.1506 186.963 97.5934 186.963 100.585V150.736C186.963 153.752 184.266 156.195 180.963 156.195Z" fill="#F2F6FB"/>
<path d="M90.8735 94.822C90.8735 91.7839 93.3385 89.321 96.3788 89.321H181.43C184.471 89.321 186.936 91.7853 186.936 94.822V101.145H90.8735V94.822Z" fill="#E1E5F0"/>
<path d="M105.668 123.418H116.265C117.139 123.418 117.848 124.126 117.848 124.999C117.848 125.872 117.139 126.58 116.265 126.58H105.668C104.794 126.58 104.086 125.872 104.086 124.999C104.086 124.126 104.794 123.418 105.668 123.418ZM105.668 141.017H116.265C117.139 141.017 117.848 141.724 117.848 142.598C117.848 143.471 117.139 144.179 116.265 144.179H105.668C104.794 144.179 104.086 143.471 104.086 142.598C104.086 141.724 104.794 141.017 105.668 141.017ZM121.908 123.418H132.505C133.379 123.418 134.088 124.126 134.088 124.999C134.088 125.872 133.379 126.58 132.505 126.58H121.908C121.034 126.58 120.325 125.872 120.325 124.999C120.325 124.126 121.034 123.418 121.908 123.418ZM121.908 141.017H132.505C133.379 141.017 134.088 141.724 134.088 142.598C134.088 143.471 133.379 144.179 132.505 144.179H121.908C121.034 144.179 120.325 143.471 120.325 142.598C120.325 141.724 121.034 141.017 121.908 141.017ZM138.148 123.418H148.745C149.619 123.418 150.327 124.126 150.327 124.999C150.327 125.872 149.619 126.58 148.745 126.58H138.148C137.274 126.58 136.565 125.872 136.565 124.999C136.565 124.126 137.274 123.418 138.148 123.418ZM138.148 141.017H148.745C149.619 141.017 150.327 141.724 150.327 142.598C150.327 143.471 149.619 144.179 148.745 144.179H138.148C137.274 144.179 136.565 143.471 136.565 142.598C136.565 141.724 137.274 141.017 138.148 141.017ZM105.668 114.619H125.349C126.223 114.619 126.931 115.327 126.931 116.2C126.931 117.073 126.223 117.781 125.349 117.781H105.668C104.794 117.781 104.086 117.073 104.086 116.2C104.086 115.327 104.794 114.619 105.668 114.619ZM150.259 114.619H172.416C173.29 114.619 173.999 115.327 173.999 116.2C173.999 117.073 173.29 117.781 172.416 117.781H150.259C149.385 117.781 148.676 117.073 148.676 116.2C148.676 115.327 149.385 114.619 150.259 114.619ZM150.259 132.217H172.416C173.29 132.217 173.999 132.925 173.999 133.798C173.999 134.672 173.29 135.38 172.416 135.38H150.259C149.385 135.38 148.676 134.672 148.676 133.798C148.676 132.925 149.385 132.217 150.259 132.217ZM130.991 132.217H134.982C135.856 132.217 136.565 132.925 136.565 133.798C136.565 134.672 135.856 135.38 134.982 135.38H130.991C130.117 135.38 129.408 134.672 129.408 133.798C129.408 132.925 130.117 132.217 130.991 132.217ZM140.625 114.619H144.616C145.49 114.619 146.199 115.327 146.199 116.2C146.199 117.073 145.49 117.781 144.616 117.781H140.625C139.751 117.781 139.042 117.073 139.042 116.2C139.042 115.327 139.751 114.619 140.625 114.619ZM154.387 123.418H172.416C173.29 123.418 173.999 124.126 173.999 124.999C173.999 125.872 173.29 126.58 172.416 126.58H154.387C153.513 126.58 152.805 125.872 152.805 124.999C152.805 124.126 153.513 123.418 154.387 123.418Z" fill="#E1E5F0"/>
<path d="M105.668 132.217H125.349C126.223 132.217 126.931 132.925 126.931 133.798C126.931 134.672 126.223 135.379 125.349 135.379H105.668C104.794 135.379 104.086 134.672 104.086 133.798C104.086 132.925 104.794 132.217 105.668 132.217ZM140.625 132.217H144.616C145.49 132.217 146.199 132.925 146.199 133.798C146.199 134.672 145.49 135.379 144.616 135.379H140.625C139.751 135.379 139.042 134.672 139.042 133.798C139.042 132.925 139.751 132.217 140.625 132.217Z" fill="#8111FF"/>
<path d="M130.991 114.619H134.982C135.856 114.619 136.565 115.327 136.565 116.2C136.565 117.073 135.856 117.781 134.982 117.781H130.991C130.117 117.781 129.408 117.073 129.408 116.2C129.408 115.327 130.117 114.619 130.991 114.619ZM154.387 141.017H172.416C173.29 141.017 173.999 141.724 173.999 142.598C173.999 143.471 173.29 144.179 172.416 144.179H154.387C153.513 144.179 152.805 143.471 152.805 142.598C152.805 141.724 153.513 141.017 154.387 141.017Z" fill="#8111FF" fill-opacity="0.5"/>
<path d="M104.911 80.7969H70.505C67.4647 80.7969 65 83.2591 65 86.2964V103.62C65 106.657 67.4647 109.119 70.505 109.119H104.911C107.952 109.119 110.416 106.657 110.416 103.62V86.2964C110.416 83.2591 107.952 80.7969 104.911 80.7969Z" fill="#8111FF"/>
<path fill-rule="evenodd" clip-rule="evenodd" d="M80.7538 87.6344C81.2303 88.226 81.1365 89.0914 80.5443 89.5674L72.9713 95.6547L80.7999 99.9393C81.4665 100.304 81.7108 101.14 81.3456 101.806C80.9804 102.472 80.144 102.716 79.4774 102.351L69.8436 97.0783C69.4407 96.8577 69.1745 96.4508 69.134 95.9936C69.0935 95.5363 69.2842 95.0891 69.6421 94.8013L78.8188 87.4251C79.411 86.9491 80.2773 87.0428 80.7538 87.6344Z" fill="white"/>
<path fill-rule="evenodd" clip-rule="evenodd" d="M93.3022 87.7399C93.7203 87.1058 94.5738 86.9302 95.2085 87.3479L104.842 93.686C105.225 93.9378 105.457 94.3634 105.462 94.8213C105.466 95.2791 105.242 95.7091 104.864 95.968L95.6535 102.279C95.0267 102.708 94.17 102.549 93.7401 101.923C93.3102 101.296 93.4698 100.441 94.0966 100.011L101.618 94.8574L93.6947 89.6444C93.0599 89.2267 92.8842 88.3741 93.3022 87.7399Z" fill="white"/>
<path fill-rule="evenodd" clip-rule="evenodd" d="M89.591 84.5084C90.3321 84.6767 90.7964 85.4134 90.6279 86.1538L86.4352 104.58C86.2667 105.321 85.5293 105.784 84.7881 105.616C84.047 105.448 83.5827 104.711 83.7512 103.971L87.9439 85.5443C88.1124 84.8039 88.8498 84.3401 89.591 84.5084Z" fill="white"/>
<path d="M305.517 49.9995H204.115C201.772 49.9995 199.872 51.8984 199.872 54.2408V128.251C199.872 130.593 201.772 132.492 204.115 132.492H305.517C307.86 132.492 309.76 130.593 309.76 128.251V54.2408C309.76 51.8984 307.86 49.9995 305.517 49.9995Z" fill="#F2F6FB"/>
<path d="M216.395 126.074C210.902 126.074 206.449 121.577 206.449 116.029C206.449 110.482 210.902 105.984 216.395 105.984C221.888 105.984 226.341 110.482 226.341 116.029C226.341 121.577 221.888 126.074 216.395 126.074ZM216.416 115.987C217.15 115.987 217.745 115.394 217.745 114.662C217.745 113.931 217.15 113.337 216.416 113.337C215.682 113.337 215.087 113.931 215.087 114.662C215.087 115.394 215.682 115.987 216.416 115.987ZM216.416 116.65C215.086 116.65 214.008 117.725 214.008 119.051H218.825C218.825 117.725 217.747 116.65 216.416 116.65Z" fill="#D8DEED"/>
<path d="M206.449 67.8143C206.449 67.345 206.827 66.9646 207.297 66.9646H277.521C277.99 66.9646 278.37 67.3443 278.37 67.8143V98.1909C278.37 98.6602 277.991 99.0406 277.521 99.0406H207.297C206.828 99.0406 206.449 98.6609 206.449 98.1909V67.8143ZM233.051 114.158H288.788C289.655 114.158 290.358 114.861 290.358 115.728V116.575C290.358 117.441 289.655 118.144 288.788 118.144H233.051C232.184 118.144 231.481 117.441 231.481 116.575V115.728C231.481 114.861 232.184 114.158 233.051 114.158ZM233.051 120.635H298.767C299.635 120.635 300.337 121.338 300.337 122.205V123.052C300.337 123.919 299.635 124.621 298.767 124.621H233.051C232.184 124.621 231.481 123.919 231.481 123.052V122.205C231.481 121.338 232.184 120.635 233.051 120.635ZM233.051 107.681H274.817C275.684 107.681 276.387 108.383 276.387 109.25V110.097C276.387 110.964 275.684 111.667 274.817 111.667H233.051C232.184 111.667 231.481 110.964 231.481 110.097V109.25C231.481 108.383 232.184 107.681 233.051 107.681ZM199.872 54.2417C199.872 51.8988 201.772 49.9995 204.117 49.9995H305.728C308.072 49.9995 309.972 51.899 309.972 54.2417V59.3303H199.872V54.2417Z" fill="#E1E5F0"/>
<path d="M286.868 92.0239H299.839C300.567 92.0239 301.196 92.1716 301.715 92.4488C302.233 92.726 302.64 93.1328 302.917 93.6512C303.195 94.1696 303.342 94.7988 303.342 95.5265V95.5379C303.342 96.2657 303.195 96.8949 302.917 97.4132C302.64 97.9316 302.233 98.3384 301.715 98.6157C301.196 98.8929 300.567 99.0405 299.839 99.0405H286.868C286.14 99.0405 285.511 98.8929 284.992 98.6157C284.474 98.3384 284.067 97.9316 283.789 97.4132C283.512 96.8949 283.364 96.2657 283.364 95.5379V95.5265C283.364 94.7988 283.512 94.1696 283.789 93.6512C284.067 93.1328 284.474 92.726 284.992 92.4488C285.511 92.1716 286.14 92.0239 286.868 92.0239Z" fill="#8111FF"/>
<path d="M206.131 56.7855C207.244 56.7855 208.146 55.8836 208.146 54.7709C208.146 53.6583 207.244 52.7563 206.131 52.7563C205.018 52.7563 204.115 53.6583 204.115 54.7709C204.115 55.8836 205.018 56.7855 206.131 56.7855Z" fill="#FF5645"/>
<path d="M212.707 56.7855C213.82 56.7855 214.722 55.8836 214.722 54.7709C214.722 53.6583 213.82 52.7563 212.707 52.7563C211.594 52.7563 210.692 53.6583 210.692 54.7709C210.692 55.8836 211.594 56.7855 212.707 56.7855Z" fill="#FFCB3D"/>
<path d="M219.495 56.7855C220.608 56.7855 221.51 55.8836 221.51 54.7709C221.51 53.6583 220.608 52.7563 219.495 52.7563C218.382 52.7563 217.48 53.6583 217.48 54.7709C217.48 55.8836 218.382 56.7855 219.495 56.7855Z" fill="#3ABF7C"/>
<path d="M115.371 286.473V282.633V225.984H277.63C278.694 225.984 279.557 225.122 279.557 224.059C279.557 222.996 278.694 222.134 277.63 222.134H113.857C113.567 222.134 113.291 222.198 113.044 222.313C112.172 222.497 111.517 223.27 111.517 224.196V324.562C111.517 325.625 112.38 326.487 113.444 326.487C114.508 326.487 115.371 325.625 115.371 324.562V286.473Z" fill="#D8DEED"/>
</svg>
