<svg width="684" height="403" viewBox="0 0 684 403" fill="none" xmlns="http://www.w3.org/2000/svg">
<path d="M674 0H10C4.47715 0 0 4.47715 0 10V393C0 398.523 4.47715 403 10 403H674C679.523 403 684 398.523 684 393V10C684 4.47715 679.523 0 674 0Z" fill="#C4C4C4"/>
<path d="M398.667 275H284.333C275.35 275 268 267.65 268 258.667V144.333C268 135.35 275.35 128 284.333 128H398.667C407.65 128 415 135.35 415 144.333V258.667C415 267.65 407.65 275 398.667 275Z" fill="#7A11FF"/>
<path d="M370.083 201.501L325.167 168.834V234.167L370.083 201.501Z" fill="white"/>
</svg>
